<svg width="183" height="121" viewBox="0 0 183 121" fill="none" xmlns="http://www.w3.org/2000/svg">
<g filter="url(#filter0_bd_4_184)">
<rect x="0.136567" y="0.136567" width="182.727" height="119.906" rx="16.2515" stroke="white" stroke-opacity="0.3" stroke-width="0.273134"/>
</g>
<g clip-path="url(#clip0_4_184)">
<g clip-path="url(#clip1_4_184)">
<path d="M16.9589 16.308H16.0859C15.9931 15.8622 15.8321 15.5372 15.603 15.3329C15.3059 15.0605 14.8725 14.9243 14.3029 14.9243C13.6095 14.9243 13.074 15.1967 12.6963 15.7415C12.3682 16.2182 12.2042 16.8435 12.2042 17.6174C12.2042 18.4903 12.4239 19.1682 12.8635 19.6511C13.2535 20.0659 13.755 20.2733 14.3679 20.2733C15.117 20.2733 15.634 19.9978 15.9188 19.4468C16.0488 19.193 16.1509 18.8556 16.2252 18.4346H17.0982C16.8939 20.1619 15.9869 21.0256 14.3772 21.0256C13.5105 21.0256 12.8264 20.7717 12.3249 20.2641C11.681 19.614 11.3591 18.7411 11.3591 17.6452C11.3591 16.5804 11.6686 15.7044 12.2877 15.0172C12.7954 14.4538 13.495 14.1721 14.3865 14.1721C15.8352 14.1721 16.6927 14.884 16.9589 16.308ZM22.9393 16.1873H22.1406C22.1221 15.3205 21.568 14.8871 20.4783 14.8871C20.0326 14.8871 19.6735 14.9893 19.4011 15.1936C19.1287 15.3917 18.9925 15.6548 18.9925 15.983C18.9925 16.2306 19.073 16.4287 19.2339 16.5773C19.4011 16.7197 19.6859 16.8435 20.0883 16.9488L21.667 17.3574C22.67 17.6236 23.1714 18.1808 23.1714 19.0289C23.1714 19.6419 22.9269 20.1402 22.4378 20.5241C22.0044 20.8584 21.3822 21.0256 20.5712 21.0256C19.5435 21.0256 18.7975 20.716 18.3331 20.0969C18.0855 19.7626 17.9555 19.3137 17.9431 18.7504H18.7418V18.7689C18.7418 19.2518 18.9058 19.6264 19.2339 19.8926C19.5683 20.1526 20.0326 20.2826 20.6269 20.2826C21.1717 20.2826 21.5773 20.1929 21.8435 20.0133C22.1592 19.7966 22.3171 19.4933 22.3171 19.1032C22.3171 18.608 21.9116 18.2582 21.1005 18.0539L19.4475 17.6267C18.5808 17.4038 18.1474 16.893 18.1474 16.0944C18.1474 15.4629 18.3858 14.9738 18.8625 14.6271C19.2773 14.3238 19.8252 14.1721 20.5062 14.1721C21.472 14.1721 22.1623 14.4538 22.5771 15.0172C22.8186 15.3453 22.9393 15.7013 22.9393 16.0851C22.9393 16.1037 22.9393 16.1377 22.9393 16.1873ZM27.1765 14.2742V14.9429H25.0127L24.9013 16.9952C25.1861 16.9519 25.412 16.9302 25.5792 16.9302C26.2664 16.9302 26.7957 17.1407 27.1672 17.5617C27.4891 17.9269 27.6501 18.4129 27.6501 19.0197C27.6501 19.7007 27.4118 20.2145 26.935 20.5612C26.5574 20.8398 26.0621 20.9791 25.4492 20.9791C25.0777 20.9791 24.7063 20.9234 24.3348 20.812L24.0376 20.4498V20.1619C24.4648 20.2486 24.8394 20.2919 25.1613 20.2919C25.7371 20.2919 26.1581 20.1991 26.4243 20.0133C26.7215 19.809 26.87 19.4716 26.87 19.0011C26.87 18.06 26.3159 17.5895 25.2077 17.5895C24.9477 17.5895 24.5701 17.6174 24.0748 17.6731L24.2605 14.2742H27.1765ZM30.442 21.0441C29.6185 21.0441 29.0304 20.6139 28.6775 19.7533C28.4484 19.2023 28.3339 18.5182 28.3339 17.701C28.3339 16.6733 28.5134 15.8251 28.8725 15.1564C29.2254 14.4878 29.7486 14.1535 30.442 14.1535C31.1168 14.1535 31.6337 14.4785 31.9928 15.1286C32.3705 15.791 32.5593 16.6392 32.5593 17.6731C32.5593 18.6451 32.4045 19.4252 32.095 20.0133C31.7297 20.7005 31.1787 21.0441 30.442 21.0441ZM31.7514 17.6917C31.7514 15.8034 31.3149 14.8593 30.442 14.8593C29.5752 14.8593 29.1418 15.7972 29.1418 17.6731C29.1418 18.4594 29.213 19.0506 29.3554 19.4468C29.5597 20.035 29.9219 20.3291 30.442 20.3291C31.3149 20.3291 31.7514 19.4499 31.7514 17.6917Z" fill="#444444"/>
<path d="M16.1138 33.2189H15.4037L14.2319 29.0433L13.0886 33.2189H12.3784L11.0788 28.1343H11.8032L12.7619 32.2602L13.891 28.1343H14.587L15.7445 32.2602L16.6819 28.1343H17.3992L16.1138 33.2189ZM21.076 31.5643H18.3846C18.3893 31.8767 18.4556 32.1253 18.5834 32.3099C18.787 32.6082 19.0805 32.7573 19.464 32.7573C19.9374 32.7573 20.257 32.5325 20.4227 32.0827H21.005C20.9293 32.4662 20.7541 32.7644 20.4795 32.9775C20.2049 33.1905 19.8593 33.297 19.4427 33.297C18.8888 33.297 18.465 33.1077 18.1715 32.7289C17.9111 32.3975 17.7809 31.9596 17.7809 31.4152C17.7809 30.7855 17.9514 30.2955 18.2922 29.9451C18.5905 29.6421 18.9763 29.4906 19.4498 29.4906C19.7954 29.4906 20.0984 29.5735 20.3588 29.7392C20.6239 29.9049 20.8133 30.1321 20.9269 30.4209C21.0263 30.6671 21.076 31.0411 21.076 31.543V31.5643ZM20.4511 31.0885C20.4511 30.7713 20.3564 30.5156 20.167 30.3215C19.9824 30.1227 19.7433 30.0233 19.4498 30.0233C19.1515 30.0233 18.9077 30.1203 18.7183 30.3144C18.5337 30.5038 18.4295 30.7618 18.4059 31.0885H20.4511ZM21.757 28.1343H22.3323V30.0588C22.6021 29.68 22.9809 29.4906 23.4685 29.4906C23.9845 29.4906 24.3822 29.68 24.6616 30.0588C24.9077 30.3902 25.0308 30.8281 25.0308 31.3725C25.0308 32.0022 24.8675 32.4922 24.5408 32.8426C24.2568 33.1455 23.8899 33.297 23.4401 33.297C22.9335 33.297 22.5477 33.1053 22.2826 32.7218V33.2189H21.757V28.1343ZM23.362 30.0304C23.0495 30.0304 22.7986 30.1582 22.6092 30.4138C22.4246 30.6648 22.3323 30.9985 22.3323 31.4152C22.3323 31.8507 22.4388 32.1916 22.6518 32.4378C22.8365 32.6461 23.0732 32.7502 23.362 32.7502C23.6839 32.7502 23.9396 32.6295 24.1289 32.3881C24.3231 32.1466 24.4201 31.8223 24.4201 31.4152C24.4201 30.9701 24.3112 30.6198 24.0934 30.3641C23.9041 30.1416 23.6602 30.0304 23.362 30.0304ZM27.8394 31.0672V33.2189H27.1932V28.1343H29.2952C29.8302 28.1343 30.2326 28.281 30.5025 28.5746C30.7392 28.8302 30.8576 29.1805 30.8576 29.6256C30.8576 30.0753 30.7132 30.4328 30.4244 30.6979C30.1592 30.9441 29.8302 31.0672 29.4373 31.0672H27.8394ZM27.8394 30.492H29.1958C29.5035 30.492 29.745 30.4138 29.9202 30.2576C30.0953 30.1014 30.1829 29.8812 30.1829 29.5972C30.1829 29.3178 30.0953 29.1001 29.9202 28.9438C29.745 28.7876 29.5035 28.7095 29.1958 28.7095H27.8394V30.492ZM31.6975 29.5688H32.2372V30.2363C32.4502 29.7345 32.7864 29.4835 33.2456 29.4835C33.3024 29.4835 33.3711 29.4906 33.4515 29.5049V30.1014C33.0728 30.1061 32.8124 30.1606 32.6704 30.2647C32.41 30.4541 32.2798 30.8068 32.2798 31.3228V33.2189H31.6975V29.5688ZM35.4552 29.4906C36.0044 29.4906 36.4234 29.6824 36.7122 30.0659C36.9678 30.3973 37.0957 30.847 37.0957 31.4152C37.0957 32.0496 36.93 32.5325 36.5986 32.8639C36.3145 33.1527 35.931 33.297 35.4481 33.297C34.8895 33.297 34.4634 33.11 34.1698 32.736C33.9142 32.4094 33.7864 31.9691 33.7864 31.4152C33.7864 30.7713 33.9544 30.2765 34.2906 29.9309C34.5794 29.6374 34.9676 29.4906 35.4552 29.4906ZM35.4552 30.0233C35.1238 30.0233 34.8634 30.1487 34.6741 30.3996C34.4847 30.6458 34.39 30.9843 34.39 31.4152C34.39 31.8649 34.4965 32.2082 34.7096 32.4449C34.8942 32.6532 35.1404 32.7573 35.4481 32.7573C35.7748 32.7573 36.0281 32.639 36.208 32.4023C36.3926 32.1655 36.4849 31.8365 36.4849 31.4152C36.4849 30.9512 36.3808 30.5961 36.1725 30.3499C35.9926 30.1321 35.7535 30.0233 35.4552 30.0233ZM40.2835 29.5688H40.8232V32.6224C40.8232 33.413 40.6954 33.9622 40.4397 34.27C40.1841 34.5824 39.7651 34.7387 39.1828 34.7387C38.7283 34.7387 38.3732 34.6298 38.1176 34.412C37.8903 34.2179 37.7625 33.9599 37.7341 33.6379H38.3306C38.359 33.8273 38.43 33.967 38.5436 34.0569C38.7093 34.1847 38.9319 34.2486 39.2112 34.2486C39.5899 34.2486 39.8598 34.135 40.0208 33.9078C40.1581 33.7137 40.2267 33.3823 40.2267 32.9136V32.6792C39.9237 33.0911 39.5592 33.297 39.1331 33.297C38.7164 33.297 38.3637 33.1408 38.0749 32.8283C37.7672 32.4922 37.6133 32.033 37.6133 31.4507C37.6133 30.8257 37.7743 30.3286 38.0963 29.9593C38.3803 29.6469 38.7378 29.4906 39.1686 29.4906C39.6325 29.4906 40.0042 29.699 40.2835 30.1156V29.5688ZM39.2325 30.0233C38.92 30.0233 38.6715 30.1487 38.4868 30.3996C38.3069 30.6458 38.217 30.9843 38.217 31.4152C38.217 31.8649 38.3211 32.2082 38.5294 32.4449C38.7046 32.6532 38.9413 32.7573 39.2396 32.7573C39.5521 32.7573 39.7935 32.639 39.9639 32.4023C40.1391 32.1655 40.2267 31.8365 40.2267 31.4152C40.2267 30.9512 40.1273 30.5961 39.9284 30.3499C39.7533 30.1321 39.5213 30.0233 39.2325 30.0233ZM41.7741 29.5688H42.3138V30.2363C42.5269 29.7345 42.863 29.4835 43.3222 29.4835C43.379 29.4835 43.4477 29.4906 43.5282 29.5049V30.1014C43.1494 30.1061 42.889 30.1606 42.747 30.2647C42.4866 30.4541 42.3564 30.8068 42.3564 31.3228V33.2189H41.7741V29.5688ZM47.3427 32.7289V33.1976C47.1818 33.2544 47.0563 33.2828 46.9663 33.2828C46.5876 33.2828 46.3817 33.11 46.3485 32.7644C46.0881 33.1195 45.6739 33.297 45.1058 33.297C44.7128 33.297 44.4074 33.1882 44.1897 32.9704C44.0003 32.781 43.9056 32.5372 43.9056 32.2389C43.9056 31.8981 44.0263 31.6353 44.2678 31.4507C44.4051 31.3465 44.6915 31.2447 45.1271 31.1453L46.3201 30.8754L46.3272 30.5701C46.3272 30.2055 46.0526 30.0233 45.5034 30.0233C44.9779 30.0233 44.6962 30.2363 44.6584 30.6624H44.0689C44.0831 30.3405 44.1636 30.0943 44.3104 29.9238C44.5613 29.635 44.9685 29.4906 45.5318 29.4906C46.4456 29.4906 46.9024 29.822 46.9024 30.4849V32.523C46.9024 32.7029 46.9806 32.7928 47.1368 32.7928C47.1557 32.7928 47.2054 32.7786 47.2859 32.7502C47.3143 32.7408 47.3333 32.7337 47.3427 32.7289ZM46.3272 31.3512L45.3898 31.5927C45.0537 31.6779 44.8217 31.7655 44.6939 31.8554C44.5708 31.9454 44.5092 32.0709 44.5092 32.2318C44.5092 32.6058 44.7507 32.7928 45.2336 32.7928C45.5745 32.7928 45.8633 32.6816 46.1 32.4591C46.2515 32.3218 46.3272 32.1655 46.3272 31.9904V31.3512ZM47.9811 29.5688H48.5209V30.0943C48.8049 29.6919 49.1789 29.4906 49.6429 29.4906C50.0927 29.4906 50.4193 29.6706 50.6229 30.0304C50.7981 29.8268 50.9661 29.6871 51.1271 29.6114C51.2928 29.5309 51.4964 29.4906 51.7378 29.4906C52.448 29.4906 52.8031 29.8244 52.8031 30.492V33.2189H52.2207V30.7192C52.2207 30.2363 51.9935 29.9949 51.539 29.9949C51.3023 29.9949 51.1011 30.0872 50.9354 30.2718C50.7697 30.4565 50.6868 30.6766 50.6868 30.9323V33.2189H50.1045V30.7192C50.1045 30.2363 49.8796 29.9949 49.4298 29.9949C49.1884 29.9949 48.9825 30.0872 48.812 30.2718C48.6463 30.4517 48.5635 30.6719 48.5635 30.9323V33.2189H47.9811V29.5688ZM53.7927 29.5688H54.3324V30.0943C54.6165 29.6919 54.9905 29.4906 55.4545 29.4906C55.9042 29.4906 56.2309 29.6706 56.4345 30.0304C56.6096 29.8268 56.7777 29.6871 56.9387 29.6114C57.1044 29.5309 57.308 29.4906 57.5494 29.4906C58.2596 29.4906 58.6146 29.8244 58.6146 30.492V33.2189H58.0323V30.7192C58.0323 30.2363 57.8051 29.9949 57.3506 29.9949C57.1138 29.9949 56.9126 30.0872 56.7469 30.2718C56.5812 30.4565 56.4984 30.6766 56.4984 30.9323V33.2189H55.9161V30.7192C55.9161 30.2363 55.6912 29.9949 55.2414 29.9949C55 29.9949 54.794 30.0872 54.6236 30.2718C54.4579 30.4517 54.375 30.6719 54.375 30.9323V33.2189H53.7927V29.5688ZM60.1511 29.5688V33.2189H59.5759V29.5688H60.1511ZM59.8741 28.1414C59.9736 28.1414 60.0564 28.1769 60.1227 28.2479C60.1937 28.3142 60.2292 28.3946 60.2292 28.4893C60.2292 28.5888 60.1937 28.674 60.1227 28.745C60.0564 28.8113 59.9736 28.8444 59.8741 28.8444C59.7795 28.8444 59.6966 28.8113 59.6256 28.745C59.5593 28.674 59.5262 28.5888 59.5262 28.4893C59.5262 28.3946 59.5593 28.3142 59.6256 28.2479C59.6966 28.1769 59.7795 28.1414 59.8741 28.1414ZM61.1508 29.5688H61.6905V30.1866C61.984 29.7226 62.3865 29.4906 62.8978 29.4906C63.2528 29.4906 63.5345 29.5806 63.7428 29.7605C63.9512 29.9357 64.0553 30.1724 64.0553 30.4707V33.2189H63.4801V30.705C63.4801 30.4872 63.4114 30.3144 63.2742 30.1866C63.1416 30.0588 62.9593 29.9949 62.7273 29.9949C62.4243 29.9949 62.1829 30.1061 62.003 30.3286C61.8231 30.5511 61.7331 30.847 61.7331 31.2163V33.2189H61.1508V29.5688ZM67.4065 29.5688H67.9462V32.6224C67.9462 33.413 67.8184 33.9622 67.5627 34.27C67.3071 34.5824 66.8881 34.7387 66.3058 34.7387C65.8513 34.7387 65.4962 34.6298 65.2405 34.412C65.0133 34.2179 64.8855 33.9599 64.8571 33.6379H65.4536C65.482 33.8273 65.553 33.967 65.6666 34.0569C65.8323 34.1847 66.0548 34.2486 66.3342 34.2486C66.7129 34.2486 66.9828 34.135 67.1437 33.9078C67.281 33.7137 67.3497 33.3823 67.3497 32.9136V32.6792C67.0467 33.0911 66.6821 33.297 66.2561 33.297C65.8394 33.297 65.4867 33.1408 65.1979 32.8283C64.8902 32.4922 64.7363 32.033 64.7363 31.4507C64.7363 30.8257 64.8973 30.3286 65.2192 29.9593C65.5033 29.6469 65.8607 29.4906 66.2916 29.4906C66.7555 29.4906 67.1272 29.699 67.4065 30.1156V29.5688ZM66.3555 30.0233C66.043 30.0233 65.7945 30.1487 65.6098 30.3996C65.4299 30.6458 65.34 30.9843 65.34 31.4152C65.34 31.8649 65.4441 32.2082 65.6524 32.4449C65.8276 32.6532 66.0643 32.7573 66.3626 32.7573C66.675 32.7573 66.9165 32.639 67.0869 32.4023C67.2621 32.1655 67.3497 31.8365 67.3497 31.4152C67.3497 30.9512 67.2503 30.5961 67.0514 30.3499C66.8763 30.1321 66.6443 30.0233 66.3555 30.0233Z" fill="#444444"/>
</g>
<g clip-path="url(#clip2_4_184)">
<rect x="10.9226" y="64.8757" width="58.997" height="2.18507" rx="1.09254" fill="white" fill-opacity="0.3"/>
<rect x="10.9226" y="71.4309" width="31.6836" height="2.18507" rx="1.09254" fill="white" fill-opacity="0.3"/>
<rect x="10.9226" y="77.9861" width="42.609" height="2.18507" rx="1.09254" fill="white" fill-opacity="0.3"/>
<g clip-path="url(#clip3_4_184)">
<rect x="10.9226" y="84.5413" width="31.6836" height="2.18507" rx="1.09254" fill="white" fill-opacity="0.3"/>
<rect x="10.9226" y="99.8369" width="45.3403" height="4.37015" rx="2.18507" fill="white" fill-opacity="0.6"/>
</g>
</g>
</g>
<g clip-path="url(#clip4_4_184)">
<rect x="124.002" y="86.3084" width="37.1463" height="2.18507" rx="1.09254" fill="white" fill-opacity="0.3"/>
<rect x="124.002" y="92.8637" width="20.7582" height="2.18507" rx="1.09254" fill="white" fill-opacity="0.3"/>
<g clip-path="url(#clip5_4_184)">
<rect x="124.002" y="99.4189" width="28.9522" height="4.37015" rx="2.18507" fill="white" fill-opacity="0.6"/>
</g>
</g>
<path d="M127.817 66.1896C127.817 66.0507 127.728 65.9479 127.545 65.9078V65.8179C127.646 65.8179 127.983 65.8317 128.078 65.8317C128.16 65.8317 128.487 65.8179 128.589 65.8179V65.9078C128.419 65.9413 128.33 66.0428 128.33 66.1896V67.9534C128.33 68.5119 128.633 68.8276 129.267 68.8276C129.813 68.8276 130.238 68.5794 130.238 67.9949V66.1828C130.238 66.0518 130.157 65.9479 129.952 65.9078V65.8179C130.027 65.8179 130.306 65.8317 130.401 65.8317C130.482 65.8317 130.775 65.8179 130.85 65.8179V65.9078C130.652 65.9555 130.564 66.0449 130.564 66.1828V67.8977C130.564 68.6674 130.122 69.1095 129.167 69.1095C128.278 69.1095 127.817 68.7006 127.817 67.9775V66.1896Z" fill="#1D1D1B"/>
<path d="M131.631 68.9712C131.838 68.9322 131.919 68.8262 131.919 68.6963V66.2585C131.919 66.0518 131.81 65.9588 131.625 65.9075V65.8176C131.73 65.8255 131.906 65.8302 131.996 65.8302C132.078 65.8302 132.205 65.8288 132.29 65.8176L134.38 68.3038V66.1828C134.38 66.0521 134.298 65.9482 134.094 65.9075V65.8176C134.169 65.8176 134.438 65.8317 134.533 65.8317C134.616 65.8317 134.904 65.8176 134.98 65.8176V65.9075C134.781 65.9551 134.685 66.0453 134.685 66.1828V69.1094H134.559C134.48 69.091 134.33 69.0048 134.102 68.7515L132.232 66.5479V68.6963C132.232 68.8269 132.307 68.9304 132.511 68.9712V69.0615C132.436 69.0615 132.167 69.0471 132.071 69.0471C131.989 69.0471 131.707 69.0615 131.631 69.0615V68.9712Z" fill="#1D1D1B"/>
<path d="M148.12 68.3138H148.209C148.255 68.496 148.358 68.6621 148.503 68.758C148.653 68.8652 148.889 68.9164 149.079 68.9164C149.499 68.9164 149.766 68.7057 149.766 68.3723C149.766 68.027 149.425 67.8476 149.016 67.6409C148.711 67.4868 148.114 67.2325 148.114 66.6479C148.114 66.1033 148.524 65.7646 149.181 65.7646C149.614 65.7646 149.817 65.8717 150.11 65.858L150.104 66.5187H150.015C149.898 66.1293 149.548 65.9937 149.166 65.9937C148.738 65.9937 148.578 66.2413 148.578 66.4931C148.578 66.8536 148.926 67.0354 149.322 67.2137C149.766 67.4139 150.248 67.6669 150.248 68.2301C150.248 68.7634 149.836 69.1496 149.082 69.1496C148.634 69.1496 148.365 69.02 148.129 68.9907L148.12 68.3138Z" fill="#1D1D1B"/>
<path d="M157.1 67.7195L156.25 66.3384C156.104 66.0959 155.993 65.968 155.831 65.9075V65.8179C155.948 65.8179 156.263 65.8321 156.352 65.8321C156.433 65.8321 156.773 65.8179 156.896 65.8179V65.9075C156.787 65.9269 156.736 65.9821 156.736 66.0651C156.736 66.1384 156.785 66.2326 156.835 66.3145C156.883 66.3956 157.462 67.3671 157.462 67.3671L158.067 66.3149C158.128 66.2095 158.171 66.1049 158.171 66.0359C158.171 65.9731 158.127 65.9211 158.024 65.9075V65.8179C158.126 65.8179 158.341 65.8321 158.41 65.8321C158.478 65.8321 158.725 65.8179 158.827 65.8179V65.9014C158.594 65.9977 158.449 66.2041 158.308 66.4433L157.535 67.7513L157.1 67.7195ZM157.588 67.5864V68.6898C157.588 68.7992 157.67 68.9366 157.856 68.9712V69.0615C157.752 69.0615 157.414 69.047 157.316 69.047C157.233 69.047 156.908 69.0615 156.791 69.0615V68.9712C156.978 68.9366 157.067 68.7992 157.067 68.6898V67.6348" fill="#1D1D1B"/>
<path d="M141.29 65.8179H143.286C143.347 65.8179 143.455 65.8108 143.517 65.7837H143.606L143.592 66.4396H143.504C143.428 66.2333 143.349 66.068 142.963 66.068H142.097V67.2112H142.764C142.862 67.2112 142.98 67.2028 143.031 67.1906C143.181 67.1574 143.247 67.0729 143.277 66.9434H143.366C143.36 67.0422 143.36 67.2678 143.36 67.3346C143.36 67.4017 143.366 67.6391 143.366 67.7466H143.277C143.234 67.6174 143.176 67.5193 143.031 67.4832C142.98 67.4695 142.86 67.4583 142.764 67.4583H142.097V68.7992H143.039C143.45 68.7992 143.57 68.6256 143.672 68.3803L143.76 68.4011L143.672 69.0749C143.366 69.0474 143.183 69.0474 142.835 69.0474H141.84C141.744 69.0474 141.392 69.0615 141.289 69.0615V68.9716C141.469 68.937 141.574 68.8471 141.574 68.6728V66.1929C141.574 66.0392 141.492 65.9432 141.29 65.9089V65.8179Z" fill="#1D1D1B"/>
<path d="M136.195 66.2105C136.195 66.0442 136.097 65.9526 135.904 65.9107V65.8216C136.011 65.8216 136.358 65.8353 136.459 65.8353C136.543 65.8353 136.899 65.8216 137.007 65.8216V65.9107C136.816 65.9526 136.716 66.0355 136.716 66.2105V68.6732C136.716 68.8395 136.814 68.9301 137.007 68.9712V69.0615C136.899 69.0615 136.558 69.0474 136.459 69.0474C136.372 69.0474 136.011 69.0615 135.904 69.0615V68.9712C136.1 68.9341 136.195 68.8471 136.195 68.6732V66.2105Z" fill="#1D1D1B"/>
<path d="M151.33 66.2105C151.33 66.0442 151.231 65.9526 151.039 65.9107V65.8216C151.146 65.8216 151.493 65.8353 151.593 65.8353C151.678 65.8353 152.034 65.8216 152.142 65.8216V65.9107C151.951 65.9526 151.851 66.0355 151.851 66.2105V68.6732C151.851 68.8395 151.949 68.9301 152.142 68.9712V69.0615C152.035 69.0615 151.694 69.0474 151.593 69.0474C151.508 69.0474 151.146 69.0615 151.039 69.0615V68.9712C151.235 68.9341 151.33 68.8471 151.33 68.6732V66.2105Z" fill="#1D1D1B"/>
<path d="M154.103 65.8317C153.01 65.8317 152.835 65.8111 152.611 65.797L152.613 66.4653H152.702C152.783 66.1691 152.946 66.1002 153.158 66.1002H153.844V68.6733C153.844 68.8471 153.75 68.9341 153.553 68.9712V69.0615C153.661 69.0615 154.025 69.0474 154.109 69.0474C154.21 69.0474 154.552 69.0615 154.659 69.0615V68.9712C154.465 68.9301 154.367 68.8396 154.367 68.6733V66.1002H155.048C155.267 66.1002 155.423 66.1756 155.505 66.4653H155.593L155.595 65.797C155.372 65.8111 155.197 65.8317 154.103 65.8317Z" fill="#1D1D1B"/>
<path d="M145.376 68.6732C145.376 68.8395 145.48 68.9298 145.673 68.9712V69.0615C145.566 69.0615 145.216 69.0474 145.116 69.0474C145.031 69.0474 144.689 69.0615 144.582 69.0615V68.9712C144.761 68.9366 144.866 68.8471 144.866 68.6732V66.1854C144.866 66.0324 144.784 65.936 144.582 65.9014V65.8119C144.689 65.8119 145.028 65.8255 145.123 65.8255C145.28 65.8255 145.725 65.7989 145.9 65.7989C146.667 65.7989 147.093 66.1197 147.093 66.6695C147.093 67.1018 146.776 67.3941 146.286 67.5135C146.286 67.5135 146.398 67.5791 146.509 67.7101C146.645 67.8714 147.01 68.4016 147.161 68.5869C147.312 68.7728 147.506 68.9803 147.714 68.9897V69.0621C147.614 69.0841 147.455 69.1033 147.333 69.1033C147.072 69.1033 146.865 69.0103 146.663 68.7631C146.488 68.548 146.192 68.1017 146.017 67.8761C145.906 67.7325 145.77 67.6203 145.523 67.5791C145.475 67.5709 145.43 67.564 145.376 67.5576V68.6732ZM145.376 67.3511C145.478 67.3652 145.628 67.3717 145.776 67.3717C146.376 67.3717 146.565 67.0224 146.565 66.7132C146.565 66.2759 146.277 66.0049 145.752 66.0049C145.643 66.0049 145.485 66.0186 145.376 66.0395V67.3511Z" fill="#1D1D1B"/>
<path d="M137.776 66.221C137.706 66.0644 137.599 65.9497 137.416 65.909V65.8176C137.53 65.8176 137.924 65.8321 138.01 65.8321C138.09 65.8321 138.434 65.8176 138.551 65.8176V65.9063C138.448 65.9265 138.329 65.9846 138.329 66.0922C138.329 66.169 138.375 66.2737 138.463 66.4708L139.289 68.3722L140.071 66.4675C140.133 66.3138 140.177 66.1947 140.177 66.1037C140.177 66.0031 140.086 65.9334 139.956 65.9063V65.8176C140.06 65.8176 140.314 65.8321 140.393 65.8321C140.466 65.8321 140.765 65.8176 140.879 65.8176V65.909C140.684 65.9623 140.565 66.0709 140.455 66.3282L139.305 69.073H139.045L137.776 66.221Z" fill="#1D1D1B"/>
<path d="M140.726 57.5648C140.593 57.2678 140.389 57.0513 140.043 56.9737V56.8009C140.258 56.8009 140.972 56.8269 141.136 56.8269C141.287 56.8269 141.979 56.8009 142.199 56.8009V56.9694C142.004 57.0081 141.779 57.1185 141.779 57.3223C141.779 57.4662 141.867 57.6651 142.031 58.0378L143.598 61.6414L145.08 58.0317C145.196 57.7394 145.282 57.5161 145.282 57.3432C145.282 57.1512 145.107 57.0211 144.861 56.9694V56.8009C145.057 56.8009 145.534 56.8269 145.686 56.8269C145.823 56.8269 146.39 56.8009 146.605 56.8009V56.964C146.236 57.0654 146.009 57.2801 145.804 57.7675L143.624 62.9704H143.131L140.726 57.5648Z" fill="#1D1D1B"/>
<path d="M119.631 62.7723C119.916 62.7065 120.116 62.5756 120.116 62.2494V57.4796C120.116 57.1664 119.93 57.0365 119.631 56.9579V56.7886C119.781 56.7886 120.425 56.8143 120.581 56.8143C120.761 56.8143 121.436 56.7886 121.585 56.7886V56.9579C121.3 57.0232 121.09 57.1538 121.09 57.4796V59.4721H124.601V57.4796C124.601 57.1538 124.414 57.0232 124.117 56.9579V56.7886C124.266 56.7886 124.928 56.8143 125.108 56.8143C125.264 56.8143 125.923 56.7886 126.069 56.7886V56.9579C125.785 57.0232 125.574 57.1538 125.574 57.4796V62.2494C125.574 62.5626 125.772 62.694 126.069 62.7723V62.9284C125.923 62.9284 125.264 62.9155 125.108 62.9155C124.928 62.9155 124.266 62.9284 124.117 62.9284V62.7723C124.4 62.7065 124.601 62.5756 124.601 62.2494V59.9952H121.09V62.2494C121.09 62.5756 121.287 62.694 121.585 62.7723V62.9284C121.436 62.9284 120.761 62.9155 120.581 62.9155C120.425 62.9155 119.781 62.9284 119.631 62.9284V62.7723Z" fill="#1D1D1B"/>
<path d="M160.252 62.7723C160.617 62.7065 160.817 62.5601 160.817 62.2235V57.4796C160.817 57.1527 160.619 57.0232 160.267 56.9579V56.7886C160.47 56.7886 161.131 56.8143 161.313 56.8143C161.609 56.8143 162.432 56.749 163.074 56.749C165.234 56.749 166.546 57.9696 166.546 59.8257C166.546 61.6299 165.181 62.9668 162.953 62.9668C162.311 62.9668 161.55 62.9155 161.251 62.9155C161.07 62.9155 160.454 62.9414 160.252 62.9414V62.7723ZM161.79 62.4579C162.01 62.4984 162.417 62.5236 162.737 62.5236C164.552 62.5236 165.497 61.4184 165.497 59.877C165.497 58.2789 164.5 57.1545 162.803 57.1545C162.457 57.1545 162.024 57.1808 161.79 57.2191V62.4579Z" fill="#1D1D1B"/>
<path d="M135.799 62.2061C135.799 62.5222 135.997 62.6939 136.361 62.7722V62.9415C136.159 62.9415 135.498 62.9155 135.308 62.9155C135.147 62.9155 134.499 62.9415 134.296 62.9415V62.7722C134.634 62.7066 134.834 62.5363 134.834 62.2061V57.4963C134.834 57.2065 134.679 57.0232 134.297 56.9578V56.7886C134.5 56.7886 135.14 56.8142 135.32 56.8142C135.617 56.8142 136.46 56.7641 136.792 56.7641C138.245 56.7641 139.053 57.3721 139.053 58.412C139.053 59.2318 138.45 59.7835 137.524 60.0112C137.524 60.0112 137.734 60.135 137.945 60.3843C138.202 60.6892 138.909 61.714 139.195 62.065C139.481 62.4165 139.848 62.809 140.241 62.8271V62.9654C140.053 63.0064 139.752 63.0414 139.522 63.0414C139.026 63.0414 138.633 62.8661 138.25 62.3969C137.921 61.9899 137.344 61.1247 137.013 60.6975C136.802 60.4254 136.547 60.2133 136.08 60.135C135.988 60.119 135.901 60.1068 135.799 60.0953V62.2061ZM135.799 59.7045C135.992 59.7301 136.276 59.7431 136.558 59.7431C137.694 59.7431 138.051 59.0814 138.051 58.4968C138.051 57.6666 137.504 57.1545 136.509 57.1545C136.304 57.1545 136.005 57.1809 135.799 57.2191V59.7045Z" fill="#1D1D1B"/>
<path d="M154.948 62.2061C154.948 62.5222 155.146 62.6939 155.511 62.7722V62.9415C155.308 62.9415 154.648 62.9155 154.458 62.9155C154.295 62.9155 153.649 62.9415 153.445 62.9415V62.7722C153.783 62.7066 153.982 62.5363 153.982 62.2061V57.4963C153.982 57.2065 153.826 57.0232 153.446 56.9578V56.7886C153.65 56.7886 154.288 56.8142 154.47 56.8142C154.767 56.8142 155.609 56.7641 155.939 56.7641C157.395 56.7641 158.201 57.3721 158.201 58.412C158.201 59.2318 157.599 59.7835 156.672 60.0112C156.672 60.0112 156.883 60.135 157.093 60.3843C157.352 60.6892 158.059 61.714 158.344 62.065C158.631 62.4165 158.998 62.809 159.388 62.8271V62.9654C159.203 63.0064 158.9 63.0414 158.673 63.0414C158.176 63.0414 157.781 62.8661 157.4 62.3969C157.07 61.9899 156.495 61.1247 156.161 60.6975C155.95 60.4254 155.696 60.2133 155.23 60.135C155.136 60.119 155.051 60.1068 154.948 60.0953V62.2061ZM154.948 59.7045C155.142 59.7301 155.425 59.7431 155.707 59.7431C156.843 59.7431 157.199 59.0814 157.199 58.4968C157.199 57.6666 156.653 57.1545 155.659 57.1545C155.452 57.1545 155.155 57.1809 154.948 57.2191V59.7045Z" fill="#1D1D1B"/>
<path d="M126.993 62.7711C127.378 62.6803 127.589 62.4284 127.729 62.0913L129.674 57.3562C129.757 57.1603 129.853 56.7576 129.853 56.7576H130.397C130.397 56.7576 130.495 57.1614 130.576 57.3577L132.631 62.1043C132.778 62.4312 132.936 62.6673 133.345 62.7711L133.344 62.9289C133.121 62.9289 132.43 62.9159 132.272 62.9159C132.116 62.9159 131.455 62.9289 131.233 62.9289L131.234 62.7711C131.533 62.6968 131.627 62.5428 131.627 62.3937C131.627 62.2671 131.576 62.1242 131.513 61.9759L131.071 60.9561H128.806L128.401 61.9817C128.356 62.0979 128.302 62.2621 128.302 62.3728C128.302 62.5439 128.391 62.6803 128.73 62.7711L128.729 62.9289C128.528 62.9289 127.997 62.9159 127.873 62.9159L126.993 62.9289L126.993 62.7711ZM130.866 60.4726L129.899 58.1926L128.998 60.4726H130.866Z" fill="#1D1D1B"/>
<path d="M146.262 62.7711C146.646 62.6803 146.858 62.4284 146.997 62.0913L148.943 57.3562C149.026 57.1603 149.123 56.7576 149.123 56.7576H149.667C149.667 56.7576 149.763 57.1614 149.844 57.3577L151.9 62.1043C152.046 62.4312 152.206 62.6673 152.613 62.7711L152.612 62.9289C152.39 62.9289 151.698 62.9159 151.539 62.9159C151.384 62.9159 150.724 62.9289 150.501 62.9289V62.7711C150.802 62.6968 150.895 62.5428 150.895 62.3937C150.895 62.2671 150.844 62.1242 150.783 61.9759L150.339 60.9561H148.074L147.669 61.9817C147.624 62.0979 147.57 62.2621 147.57 62.3728C147.57 62.5439 147.659 62.6803 147.998 62.7711V62.9289C147.796 62.9289 147.266 62.9159 147.141 62.9159L146.261 62.9289L146.262 62.7711ZM150.134 60.4726L149.166 58.1926L148.266 60.4726H150.134Z" fill="#1D1D1B"/>
<path d="M101.675 54.8741H115.236V60.0574C115.236 62.4323 114.362 67.4687 108.506 71.2171C108.506 71.2171 102.161 68.5357 101.675 60.0574V54.8741Z" fill="#A81D28"/>
<path d="M101.647 54.8604H115.221V60.0473C115.221 62.423 114.347 67.4622 108.485 71.2131C108.485 71.2131 102.134 68.53 101.647 60.0473V54.8604Z" stroke="#12110C" stroke-width="0.306667"/>
<path d="M111.939 61.5346C111.939 61.5346 111.818 61.9246 111.28 61.5237L109.434 61.4786C109.434 61.4786 109.193 61.5573 109.16 61.3015C109.16 61.3015 109.204 60.7902 109.181 60.7455C109.181 60.7455 109.193 60.6011 108.95 60.6011C108.95 60.6011 108.577 60.6455 108.566 60.3114C108.566 60.3114 108.501 59.9556 109.017 59.9675C109.017 59.9675 109.181 60.0451 109.193 59.8333C109.193 59.8333 109.171 58.3875 109.181 58.2771C109.181 58.2771 109.226 58.1442 108.972 58.1215C108.972 58.1215 108.61 58.1991 108.566 57.9552C108.566 57.9552 108.544 57.5883 108.786 57.5655C108.786 57.5655 109.083 57.5883 109.138 57.51C109.138 57.51 109.204 57.5539 109.193 57.2884L109.204 56.8315C109.204 56.8315 109.236 56.7096 109.423 56.7215C109.423 56.7215 109.764 56.7435 109.808 56.7096C109.808 56.7096 109.884 56.6101 109.907 56.5649C109.907 56.5649 110.083 56.5541 110.115 56.5988C110.115 56.5988 110.379 56.7767 111.379 56.7096C111.379 56.7096 111.533 56.7096 111.565 56.7544C111.565 56.7544 111.753 56.8986 111.862 56.7435C111.862 56.7435 112.027 56.7096 112.521 56.7215C112.521 56.7215 113.061 56.8655 113.433 56.5541L113.554 56.5765C113.554 56.5765 113.708 56.8315 113.818 56.7544C113.818 56.7544 114.148 56.7215 114.202 56.7879C114.202 56.7879 114.312 56.9536 114.257 57.3887C114.257 57.3887 114.192 57.5771 114.511 57.5771C114.511 57.5771 114.874 57.51 114.829 57.8545C114.829 57.8545 114.928 58.2439 114.324 58.1886C114.324 58.1886 114.247 58.2998 114.257 58.3777C114.257 58.3777 114.247 59.6446 114.236 59.79C114.236 59.79 114.225 59.9903 114.488 59.9787C114.488 59.9787 114.84 59.9556 114.852 60.2786C114.852 60.2786 114.895 60.7011 114.389 60.6228C114.389 60.6228 114.236 60.6455 114.213 60.7455L114.192 61.3015C114.192 61.3015 114.202 61.5793 113.895 61.5122C113.852 61.5122 112.182 61.5466 112.038 61.5022C112.038 61.5022 111.96 61.491 111.939 61.5346Z" fill="white"/>
<path d="M108.39 63.3929C108.39 63.3929 108.467 63.36 108.489 63.3052C108.489 63.3052 108.72 63.2824 108.752 63.2493L109.478 63.3052C109.478 63.3052 110.192 63.36 110.499 63.1367C110.499 63.1367 110.61 63.1367 110.687 63.1706C110.687 63.1706 110.84 63.2045 110.884 63.2702L111.302 63.259C111.302 63.259 111.544 63.3376 111.521 63.4935V63.6931C111.521 63.6931 111.477 64.0936 111.587 64.1163H111.906C111.906 64.1163 112.17 64.2383 112.137 64.3938C112.137 64.3938 112.148 64.6153 111.918 64.6605C111.918 64.6605 111.686 64.7268 111.61 64.7164C111.61 64.7164 111.533 64.816 111.521 64.9383L111.489 66.395C111.489 66.395 111.467 66.5505 111.698 66.5284C111.698 66.5284 112.038 66.4949 112.137 66.6847C112.137 66.6847 112.225 67.0065 112.049 67.0621L111.918 67.1281L111.631 67.1744C111.631 67.1744 111.511 67.1844 111.5 67.3955V67.7841C111.5 67.7841 111.511 68.0519 111.302 68.0519L110.994 68.0742C110.994 68.0742 110.917 68.1399 110.764 68.0955C110.764 68.0955 108.895 68.1298 108.829 68.1071L108.61 68.1522C108.61 68.1522 108.368 68.3745 108.17 68.207L108.016 68.0847C108.016 68.0847 107.906 68.1071 107.863 68.0955C107.819 68.0847 105.797 68.1183 105.797 68.1183C105.797 68.1183 105.368 68.1634 105.336 68.018C105.336 68.018 105.281 67.4514 105.303 67.3836C105.303 67.3836 105.303 67.2176 105.204 67.2068C105.204 67.2068 104.775 67.1844 104.764 67.1393C104.764 67.1393 104.533 66.9734 104.599 66.8069C104.599 66.8069 104.676 66.5837 104.907 66.5616C104.907 66.5616 105.258 66.6179 105.258 66.5176C105.258 66.5176 105.281 66.4509 105.281 66.3401C105.281 66.3401 105.303 65.0162 105.292 64.9275C105.292 64.9275 105.324 64.7607 105.181 64.7607C105.181 64.7607 105.028 64.8048 104.929 64.7384C104.929 64.7384 104.665 64.7496 104.61 64.5381C104.61 64.5381 104.566 64.405 104.632 64.2928C104.632 64.2928 104.753 64.0485 105.105 64.1267C105.105 64.1267 105.303 64.1827 105.324 64.0387L105.314 63.5039C105.314 63.5039 105.269 63.36 105.544 63.2824C105.544 63.2824 105.896 63.382 106.006 63.2045C106.006 63.2045 106.127 62.9591 106.225 63.1259C106.225 63.1259 106.434 63.3265 107.005 63.3052C107.005 63.3052 107.995 63.2266 108.016 63.2702C108.016 63.2702 108.258 63.3052 108.324 63.382L108.39 63.3929Z" fill="white"/>
<path d="M105.403 61.5346C105.403 61.5346 105.281 61.9246 104.743 61.5234L102.897 61.4786C102.897 61.4786 102.655 61.5573 102.622 61.3012C102.622 61.3012 102.666 60.7902 102.643 60.7455C102.643 60.7455 102.655 60.6004 102.413 60.6004C102.413 60.6004 102.04 60.6458 102.029 60.3121C102.029 60.3121 101.963 59.9552 102.479 59.9675C102.479 59.9675 102.643 60.0451 102.655 59.8337C102.655 59.8337 102.633 58.3885 102.643 58.2767C102.643 58.2767 102.688 58.1447 102.436 58.1219C102.436 58.1219 102.073 58.1991 102.029 57.9545C102.029 57.9545 102.007 57.5883 102.248 57.5655C102.248 57.5655 102.545 57.5883 102.6 57.5114C102.6 57.5114 102.666 57.5543 102.655 57.2873L102.666 56.832C102.666 56.832 102.699 56.7096 102.885 56.7208C102.885 56.7208 103.227 56.7428 103.271 56.7096C103.271 56.7096 103.348 56.6101 103.369 56.5649C103.369 56.5649 103.546 56.5544 103.578 56.5977C103.578 56.5977 103.842 56.7767 104.843 56.7096C104.843 56.7096 104.996 56.7096 105.029 56.7544C105.029 56.7544 105.215 56.8986 105.325 56.7428C105.325 56.7428 105.49 56.7096 105.985 56.7208C105.985 56.7208 106.522 56.8651 106.896 56.5544L107.017 56.5772C107.017 56.5772 107.171 56.832 107.281 56.7544C107.281 56.7544 107.611 56.7208 107.666 56.7879C107.666 56.7879 107.776 56.9546 107.72 57.3887C107.72 57.3887 107.655 57.5774 107.973 57.5774C107.973 57.5774 108.336 57.5114 108.292 57.8545C108.292 57.8545 108.391 58.2439 107.787 58.1886C107.787 58.1886 107.709 58.3001 107.72 58.3777C107.72 58.3777 107.709 59.6446 107.699 59.79C107.699 59.79 107.688 59.9888 107.952 59.9787C107.952 59.9787 108.303 59.9552 108.314 60.279C108.314 60.279 108.358 60.7011 107.853 60.6228C107.853 60.6228 107.699 60.6458 107.676 60.7455L107.655 61.3012C107.655 61.3012 107.666 61.5793 107.357 61.513C107.314 61.513 105.644 61.5458 105.501 61.5022C105.501 61.5022 105.424 61.491 105.403 61.5346Z" fill="white"/>
<path d="M111.939 61.5346C111.939 61.5346 111.818 61.9246 111.28 61.5237L109.434 61.4786C109.434 61.4786 109.193 61.5573 109.16 61.3015C109.16 61.3015 109.204 60.7902 109.181 60.7455C109.181 60.7455 109.193 60.6011 108.95 60.6011C108.95 60.6011 108.577 60.6455 108.566 60.3114C108.566 60.3114 108.501 59.9556 109.017 59.9675C109.017 59.9675 109.181 60.0451 109.193 59.8333C109.193 59.8333 109.171 58.3875 109.181 58.2771C109.181 58.2771 109.226 58.1442 108.972 58.1215C108.972 58.1215 108.61 58.1991 108.566 57.9552C108.566 57.9552 108.544 57.5883 108.786 57.5655C108.786 57.5655 109.083 57.5883 109.138 57.51C109.138 57.51 109.204 57.5539 109.193 57.2884L109.204 56.8315C109.204 56.8315 109.236 56.7096 109.423 56.7215C109.423 56.7215 109.764 56.7435 109.808 56.7096C109.808 56.7096 109.884 56.6101 109.907 56.5649C109.907 56.5649 110.083 56.5541 110.115 56.5988C110.115 56.5988 110.379 56.7767 111.379 56.7096C111.379 56.7096 111.533 56.7096 111.565 56.7544C111.565 56.7544 111.753 56.8986 111.862 56.7435C111.862 56.7435 112.027 56.7096 112.521 56.7215C112.521 56.7215 113.061 56.8655 113.433 56.5541L113.554 56.5765C113.554 56.5765 113.708 56.8315 113.818 56.7544C113.818 56.7544 114.148 56.7215 114.202 56.7879C114.202 56.7879 114.312 56.9536 114.257 57.3887C114.257 57.3887 114.192 57.5771 114.511 57.5771C114.511 57.5771 114.874 57.51 114.829 57.8545C114.829 57.8545 114.928 58.2439 114.324 58.1886C114.324 58.1886 114.247 58.2998 114.257 58.3777C114.257 58.3777 114.247 59.6446 114.236 59.79C114.236 59.79 114.225 59.9903 114.488 59.9787C114.488 59.9787 114.84 59.9556 114.852 60.2786C114.852 60.2786 114.895 60.7011 114.389 60.6228C114.389 60.6228 114.236 60.6455 114.213 60.7455L114.192 61.3015C114.192 61.3015 114.202 61.5793 113.895 61.5122C113.852 61.5122 112.182 61.5466 112.038 61.5022C112.038 61.5022 111.96 61.491 111.939 61.5346Z" fill="#12110C"/>
<path d="M111.939 61.5349C111.939 61.5349 111.818 61.925 111.28 61.5242L109.434 61.479C109.434 61.479 109.192 61.5577 109.159 61.3015C109.159 61.3015 109.204 60.7902 109.181 60.7455C109.181 60.7455 109.192 60.6011 108.95 60.6011C108.95 60.6011 108.577 60.6459 108.566 60.3117C108.566 60.3117 108.5 59.956 109.016 59.9675C109.016 59.9675 109.181 60.0451 109.192 59.8337C109.192 59.8337 109.17 58.3878 109.181 58.2771C109.181 58.2771 109.226 58.1439 108.972 58.1215C108.972 58.1215 108.61 58.1992 108.566 57.9552C108.566 57.9552 108.544 57.5878 108.786 57.5655C108.786 57.5655 109.082 57.5878 109.137 57.51C109.137 57.51 109.204 57.5539 109.192 57.288L109.204 56.8312C109.204 56.8312 109.235 56.7093 109.423 56.7212C109.423 56.7212 109.764 56.7432 109.808 56.7093C109.808 56.7093 109.884 56.6101 109.907 56.5649C109.907 56.5649 110.083 56.5538 110.115 56.5985C110.115 56.5985 110.379 56.7764 111.379 56.7093C111.379 56.7093 111.533 56.7093 111.565 56.754C111.565 56.754 111.753 56.8983 111.862 56.7432C111.862 56.7432 112.027 56.7093 112.521 56.7212C112.521 56.7212 113.061 56.8651 113.434 56.5538L113.555 56.5757C113.555 56.5757 113.709 56.8312 113.818 56.754C113.818 56.754 114.148 56.7212 114.202 56.7872C114.202 56.7872 114.312 56.9536 114.258 57.3879C114.258 57.3879 114.192 57.5771 114.511 57.5771C114.511 57.5771 114.874 57.51 114.829 57.8542C114.829 57.8542 114.928 58.2439 114.324 58.1883C114.324 58.1883 114.247 58.2994 114.258 58.3777C114.258 58.3777 114.247 59.6446 114.236 59.7897C114.236 59.7897 114.225 59.9899 114.488 59.9791C114.488 59.9791 114.841 59.956 114.852 60.2786C114.852 60.2786 114.895 60.7011 114.39 60.6228C114.39 60.6228 114.236 60.6459 114.213 60.7455L114.192 61.3015C114.192 61.3015 114.202 61.5797 113.896 61.5126C113.852 61.5126 112.182 61.5465 112.038 61.5022C112.038 61.5022 111.96 61.4913 111.939 61.5349Z" stroke="#12110C" stroke-width="0.0133333"/>
<path d="M109.863 56.9539C109.863 56.9539 109.884 57.1765 109.884 57.2328C109.884 57.288 109.852 60.4453 109.852 60.4453C109.852 60.4453 109.884 60.6899 109.676 60.8126C109.676 60.8126 109.621 60.8342 109.61 60.6787L109.632 57.3443C109.632 57.3443 109.654 56.9318 109.863 56.9539Z" fill="white"/>
<path d="M109.863 56.9535C109.863 56.9535 109.884 57.1762 109.884 57.2325C109.884 57.288 109.852 60.4457 109.852 60.4457C109.852 60.4457 109.884 60.6903 109.676 60.8125C109.676 60.8125 109.621 60.8346 109.61 60.6791L109.632 57.344C109.632 57.344 109.654 56.9315 109.863 56.9535V56.9535Z" stroke="#12110C" stroke-width="0.016"/>
<path d="M109.5 60.8454C109.5 60.8454 109.522 57.7102 109.512 57.6546C109.5 57.5998 109.522 57.7001 109.522 57.7001C109.522 57.7001 109.489 57.1545 109.632 56.9315C109.632 56.9315 109.588 56.7436 109.335 56.9766L109.324 57.4319C109.324 57.4319 109.324 57.6882 109.094 57.677C109.094 57.677 108.83 57.6654 108.709 57.7878C108.709 57.7878 108.643 58.0327 108.895 57.9887C108.895 57.9887 109.291 57.9887 109.313 58.1543L109.291 59.8337C109.291 59.8337 109.379 60.1129 109.072 60.1129C109.072 60.1129 108.697 60.0891 108.709 60.3226C108.709 60.3226 108.786 60.5225 109.105 60.4564C109.105 60.4564 109.335 60.5001 109.324 60.7234V61.1456C109.324 61.1456 109.302 61.3134 109.522 61.3239H111.236C111.236 61.3239 111.324 61.3347 111.324 61.2235C111.324 61.2235 111.313 61.1348 111.181 61.1348L109.753 61.1124C109.753 61.1124 109.522 61.1907 109.5 60.8454Z" fill="white"/>
<path d="M109.83 60.8404C109.83 60.8404 109.786 60.9959 109.951 60.9634H111.083L111.39 61.0309C111.39 61.0309 111.708 60.9523 111.39 60.7747C111.39 60.7747 110.379 60.7848 110.291 60.7631C110.291 60.7631 110.082 60.7079 110.037 60.6968C110.037 60.6968 109.929 60.6524 109.83 60.8404Z" fill="white"/>
<path d="M109.83 60.8404C109.83 60.8404 109.786 60.9962 109.95 60.9638H111.083L111.39 61.0312C111.39 61.0312 111.708 60.9523 111.39 60.7743C111.39 60.7743 110.379 60.7844 110.291 60.7631C110.291 60.7631 110.082 60.7076 110.037 60.6964C110.037 60.6964 109.928 60.652 109.83 60.8404Z" stroke="#12110C" stroke-width="0.016"/>
<path d="M111.708 60.9962C111.708 60.9962 111.5 60.9962 111.51 61.2748C111.51 61.2748 111.533 61.4851 111.752 61.4851C111.752 61.4851 111.949 61.4524 111.928 61.2301C111.928 61.2301 111.807 60.9522 111.708 60.9962Z" fill="white"/>
<path d="M111.862 60.8855C111.862 60.8855 111.961 60.7747 112.027 60.7747C112.027 60.7747 113.126 60.8743 113.312 60.7411C113.312 60.7411 113.477 60.708 113.522 60.7411C113.522 60.7411 113.686 60.8743 113.686 60.9522C113.686 60.9522 113.675 61.0528 113.477 60.9959C113.477 60.9959 112.236 61.0081 112.17 61.0081C112.17 61.0081 111.829 61.0854 111.862 60.8855Z" fill="white"/>
<path d="M111.862 60.8855C111.862 60.8855 111.961 60.7743 112.027 60.7743C112.027 60.7743 113.126 60.8739 113.312 60.7407C113.312 60.7407 113.478 60.7076 113.522 60.7407C113.522 60.7407 113.686 60.8739 113.686 60.9526C113.686 60.9526 113.676 61.0533 113.478 60.9962C113.478 60.9962 112.235 61.0085 112.169 61.0085C112.169 61.0085 111.828 61.0857 111.862 60.8855V60.8855Z" stroke="#12110C" stroke-width="0.016"/>
<path d="M112.005 61.2459C112.005 61.2459 112.005 61.156 112.159 61.156L113.697 61.1452C113.697 61.1452 113.84 61.2232 113.84 60.9569C113.84 60.9569 113.896 59.7449 113.901 58.4106C113.903 58.0133 113.921 57.5966 113.907 57.2104C113.907 57.2104 113.873 57.0434 113.829 57.0094C113.829 57.0094 113.829 56.8319 114.016 56.8987C114.016 56.8987 114.181 56.9099 114.137 57.1664L114.148 57.5539C114.148 57.5539 114.115 57.7217 114.411 57.6767C114.411 57.6767 114.707 57.7217 114.719 57.8321C114.719 57.8321 114.807 58.0555 114.456 58.0327H114.202C114.202 58.0327 114.093 58.0992 114.125 58.2331L114.093 59.8455C114.093 59.8455 114.071 60.123 114.334 60.1125C114.334 60.1125 114.609 60.101 114.664 60.1902C114.664 60.1902 114.852 60.468 114.445 60.4457C114.445 60.4457 114.192 60.4341 114.137 60.4792C114.137 60.4792 114.093 60.5343 114.06 61.0576C114.06 61.0576 114.082 61.3689 113.851 61.3347C113.851 61.3347 112.324 61.3567 112.181 61.3239C112.181 61.3239 112.027 61.3689 112.005 61.2459" fill="white"/>
<path d="M110.028 56.8529L109.994 60.4229C109.994 60.4229 109.984 60.5885 110.258 60.622C110.258 60.622 110.577 60.6552 110.653 60.622C110.653 60.622 110.863 60.6105 111.401 60.6332C111.401 60.6332 111.533 60.7678 111.544 60.5997C111.544 60.5997 111.631 57.7102 111.589 57.1083C111.589 57.1083 111.576 56.8529 111.39 56.8417C111.39 56.8417 110.555 56.9099 110.478 56.8417L110.148 56.7536C110.148 56.7536 110.016 56.7644 110.028 56.8529Z" fill="white"/>
<path d="M111.763 57.0315C111.763 57.0315 111.73 58.7104 111.741 58.766L111.72 60.1776L111.675 60.6672C111.675 60.6672 111.741 60.7671 111.796 60.7007C111.796 60.7007 112.148 60.6105 112.368 60.6455C112.368 60.6455 113.072 60.7116 113.214 60.5997C113.214 60.5997 113.324 60.6553 113.356 60.4773C113.356 60.4773 113.4 57.3653 113.379 57.3097C113.379 57.3097 113.422 56.8637 113.4 56.8204C113.4 56.8204 113.39 56.7204 113.203 56.8089C113.203 56.8089 113.224 56.8984 112.181 56.8637C112.181 56.8637 111.786 56.8528 111.763 57.0315Z" fill="white"/>
<path d="M113.511 56.9875L113.5 60.5001C113.5 60.5001 113.588 60.8125 113.731 60.7798C113.731 60.7798 113.752 60.7123 113.763 60.6011L113.807 57.2541C113.807 57.2541 113.697 56.7215 113.511 56.9875Z" fill="white"/>
<path d="M113.511 56.9871L113.5 60.5005C113.5 60.5005 113.588 60.813 113.731 60.7801C113.731 60.7801 113.752 60.7126 113.763 60.6015L113.807 57.2538C113.807 57.2538 113.697 56.7212 113.511 56.9871Z" stroke="#12110C" stroke-width="0.016"/>
<path d="M112.162 58.0393C112.129 57.9505 112.348 57.9393 112.348 57.9393L112.459 57.9613C112.536 57.9505 112.613 57.984 112.613 57.984C112.689 58.106 112.557 58.1724 112.557 58.1724L112.514 58.3175C112.502 58.4401 112.514 59.4963 112.514 59.4963C112.536 59.5511 112.623 59.6508 112.623 59.6508C112.623 59.7514 112.502 59.7294 112.502 59.7294L112.184 59.7406C112.085 59.7294 112.118 59.6178 112.118 59.6178C112.228 59.5623 112.261 59.3617 112.261 59.3617V58.2616L112.162 58.0393Z" fill="#12110C"/>
<path d="M110.678 59.0734L110.657 59.4179L110.755 59.5843C110.822 59.6731 110.711 59.7406 110.711 59.7406L110.36 59.7073C110.294 59.6731 110.36 59.5623 110.36 59.5623C110.448 59.5075 110.459 59.362 110.459 59.362L110.448 58.7173L110.459 58.2504C110.459 58.1944 110.371 58.0952 110.371 58.0952C110.294 58.084 110.316 57.984 110.316 57.984C110.338 57.9281 110.524 57.9613 110.524 57.9613H110.986C111.426 58.1061 111.36 58.4286 111.36 58.4286C111.393 58.7505 111.053 58.8847 111.053 58.8847L111.03 59.0626L111.349 59.5731C111.404 59.6179 111.393 59.663 111.393 59.663C111.349 59.7853 111.173 59.663 111.173 59.663L110.778 59.0399C110.744 58.9951 110.678 59.0734 110.678 59.0734ZM110.69 58.1944C110.7 58.4398 110.7 58.7732 110.7 58.7732C110.91 58.9403 111.03 58.7061 111.03 58.7061C111.304 58.4398 111.03 58.1944 110.986 58.1284C110.942 58.0613 110.722 58.1168 110.722 58.1168L110.69 58.1944Z" fill="#12110C"/>
<path d="M108.39 63.3929C108.39 63.3929 108.467 63.36 108.489 63.3052C108.489 63.3052 108.72 63.2824 108.752 63.2493L109.478 63.3052C109.478 63.3052 110.192 63.36 110.499 63.1367C110.499 63.1367 110.61 63.1367 110.687 63.1706C110.687 63.1706 110.84 63.2045 110.884 63.2702L111.302 63.259C111.302 63.259 111.544 63.3376 111.521 63.4935V63.6931C111.521 63.6931 111.477 64.0936 111.587 64.1163H111.906C111.906 64.1163 112.17 64.2383 112.137 64.3938C112.137 64.3938 112.148 64.6153 111.918 64.6605C111.918 64.6605 111.686 64.7268 111.61 64.7164C111.61 64.7164 111.533 64.816 111.521 64.9383L111.489 66.395C111.489 66.395 111.467 66.5505 111.698 66.5284C111.698 66.5284 112.038 66.4949 112.137 66.6847C112.137 66.6847 112.225 67.0065 112.049 67.0621L111.918 67.1281L111.631 67.1744C111.631 67.1744 111.511 67.1844 111.5 67.3955V67.7841C111.5 67.7841 111.511 68.0519 111.302 68.0519L110.994 68.0742C110.994 68.0742 110.917 68.1399 110.764 68.0955C110.764 68.0955 108.895 68.1298 108.829 68.1071L108.61 68.1522C108.61 68.1522 108.368 68.3745 108.17 68.207L108.016 68.0847C108.016 68.0847 107.906 68.1071 107.863 68.0955C107.819 68.0847 105.797 68.1183 105.797 68.1183C105.797 68.1183 105.368 68.1634 105.336 68.018C105.336 68.018 105.281 67.4514 105.303 67.3836C105.303 67.3836 105.303 67.2176 105.204 67.2068C105.204 67.2068 104.775 67.1844 104.764 67.1393C104.764 67.1393 104.533 66.9734 104.599 66.8069C104.599 66.8069 104.676 66.5837 104.907 66.5616C104.907 66.5616 105.258 66.6179 105.258 66.5176C105.258 66.5176 105.281 66.4509 105.281 66.3401C105.281 66.3401 105.303 65.0162 105.292 64.9275C105.292 64.9275 105.324 64.7607 105.181 64.7607C105.181 64.7607 105.028 64.8048 104.929 64.7384C104.929 64.7384 104.665 64.7496 104.61 64.5381C104.61 64.5381 104.566 64.405 104.632 64.2928C104.632 64.2928 104.753 64.0485 105.105 64.1267C105.105 64.1267 105.303 64.1827 105.324 64.0387L105.314 63.5039C105.314 63.5039 105.269 63.36 105.544 63.2824C105.544 63.2824 105.896 63.382 106.006 63.2045C106.006 63.2045 106.127 62.9591 106.225 63.1259C106.225 63.1259 106.434 63.3265 107.005 63.3052C107.005 63.3052 107.995 63.2266 108.016 63.2702C108.016 63.2702 108.258 63.3052 108.324 63.382L108.39 63.3929Z" fill="#12110C"/>
<path d="M108.39 63.3791C108.39 63.3791 108.466 63.3467 108.489 63.2911C108.489 63.2911 108.719 63.2684 108.752 63.2351L109.477 63.2911C109.477 63.2911 110.192 63.3467 110.499 63.1233C110.499 63.1233 110.61 63.1233 110.687 63.1573C110.687 63.1573 110.84 63.1908 110.884 63.2565L111.302 63.2456C111.302 63.2456 111.544 63.3243 111.521 63.4798V63.6797C111.521 63.6797 111.477 64.0802 111.587 64.1023H111.906C111.906 64.1023 112.17 64.2249 112.137 64.3805C112.137 64.3805 112.148 64.602 111.918 64.6471C111.918 64.6471 111.686 64.7135 111.61 64.7026C111.61 64.7026 111.533 64.8026 111.521 64.9249L111.489 66.382C111.489 66.382 111.467 66.5368 111.697 66.5151C111.697 66.5151 112.037 66.4823 112.137 66.671C112.137 66.671 112.225 66.9932 112.05 67.0491L111.918 67.1155L111.631 67.1607C111.631 67.1607 111.511 67.1714 111.5 67.3818V67.7719C111.5 67.7719 111.511 68.0385 111.302 68.0385L110.994 68.0609C110.994 68.0609 110.917 68.1273 110.764 68.083C110.764 68.083 108.895 68.1165 108.829 68.0934L108.609 68.1384C108.609 68.1384 108.368 68.3611 108.17 68.1933L108.016 68.0709C108.016 68.0709 107.906 68.0934 107.863 68.083C107.819 68.0709 105.797 68.1053 105.797 68.1053C105.797 68.1053 105.368 68.15 105.335 68.005C105.335 68.005 105.281 67.4377 105.302 67.3706C105.302 67.3706 105.302 67.2046 105.203 67.1934C105.203 67.1934 104.775 67.1714 104.764 67.1267C104.764 67.1267 104.533 66.9597 104.599 66.7933C104.599 66.7933 104.676 66.5703 104.907 66.5479C104.907 66.5479 105.258 66.605 105.258 66.5035C105.258 66.5035 105.281 66.4371 105.281 66.3267C105.281 66.3267 105.302 65.0029 105.292 64.9141C105.292 64.9141 105.324 64.7467 105.181 64.7467C105.181 64.7467 105.027 64.7911 104.929 64.725C104.929 64.725 104.665 64.7359 104.61 64.5248C104.61 64.5248 104.566 64.3917 104.632 64.2798C104.632 64.2798 104.752 64.0351 105.104 64.1131C105.104 64.1131 105.302 64.1694 105.324 64.025L105.313 63.4906C105.313 63.4906 105.269 63.3467 105.544 63.2684C105.544 63.2684 105.896 63.3687 106.006 63.1908C106.006 63.1908 106.126 62.9458 106.225 63.1118C106.225 63.1118 106.434 63.3125 107.005 63.2911C107.005 63.2911 107.995 63.2124 108.016 63.2565C108.016 63.2565 108.258 63.2911 108.324 63.3687L108.39 63.3791Z" stroke="#12110C" stroke-width="0.0133333"/>
<path d="M108.675 67.7625C108.675 67.7625 108.808 67.695 108.896 67.7181C108.984 67.7402 110.269 67.7072 110.269 67.7072C110.269 67.7072 110.829 67.7513 110.918 67.6726L111.049 67.6286C111.049 67.6286 111.104 67.5623 111.104 67.4738C111.104 67.384 111.115 67.0837 111.115 67.0837L111.148 66.9734C111.148 66.9734 111.137 66.8622 111.148 63.8929C111.148 63.8929 111.192 63.6606 111.049 63.5152C111.049 63.5152 111.049 63.4271 111.092 63.4376C111.137 63.4496 111.115 63.4496 111.115 63.4496C111.115 63.4496 111.313 63.3929 111.345 63.4707C111.345 63.4707 111.434 63.7367 111.356 63.8929C111.356 63.8929 111.334 64.2158 111.5 64.2158C111.5 64.2158 111.565 64.283 111.697 64.2491C111.697 64.2491 111.983 64.283 111.983 64.371C111.983 64.371 111.983 64.572 111.785 64.5385L111.521 64.5601C111.521 64.5601 111.345 64.5944 111.367 64.8049C111.39 65.0162 111.356 66.5284 111.356 66.5284C111.356 66.5284 111.356 66.7071 111.632 66.6959C111.632 66.6959 111.972 66.6843 111.972 66.7839C111.972 66.7839 112.06 67.0062 111.818 67.0178C111.818 67.0178 111.356 67.0062 111.39 67.1393C111.39 67.1393 111.356 67.4514 111.334 67.5063C111.334 67.5063 111.379 67.7625 111.323 67.8073C111.323 67.8073 111.291 67.9512 110.994 67.9292C110.994 67.9292 109.105 67.9183 108.808 67.9404C108.808 67.9404 108.632 67.9183 108.675 67.7625Z" fill="white"/>
<path d="M108.336 67.5514C108.336 67.5514 108.522 67.5842 108.522 67.7625C108.522 67.94 108.533 68.0403 108.423 68.0623C108.313 68.0846 108.193 68.0519 108.16 67.9075C108.126 67.7625 108.181 67.5842 108.336 67.5514Z" fill="white"/>
<path d="M108.555 67.4626C108.555 67.4626 108.752 67.3284 108.829 67.3516C108.829 67.3516 109.829 67.4175 110.138 67.363C110.445 67.3071 110.258 67.3516 110.258 67.3516C110.258 67.3516 110.522 67.3516 110.598 67.2508C110.598 67.2508 110.676 67.2295 110.719 67.3071L110.884 67.4857C110.884 67.4857 110.896 67.5958 110.708 67.5846C110.708 67.5846 108.917 67.5846 108.863 67.5958C108.863 67.5958 108.522 67.6506 108.555 67.4626Z" fill="white"/>
<path d="M108.555 67.4626C108.555 67.4626 108.752 67.3284 108.829 67.3512C108.829 67.3512 109.829 67.4175 110.137 67.363C110.445 67.3068 110.258 67.3512 110.258 67.3512C110.258 67.3512 110.522 67.3512 110.599 67.2501C110.599 67.2501 110.676 67.2292 110.72 67.3068L110.884 67.4857C110.884 67.4857 110.896 67.5962 110.709 67.5846C110.709 67.5846 108.917 67.5846 108.862 67.5962C108.862 67.5962 108.522 67.651 108.555 67.4626V67.4626Z" stroke="#12110C" stroke-width="0.016"/>
<path d="M105.951 63.5155C105.951 63.5155 106.028 63.5155 106.017 63.6491L105.995 67.0065C105.995 67.0065 106.028 67.2295 105.841 67.3735C105.841 67.3735 105.742 67.4954 105.742 67.3071L105.787 63.8825C105.787 63.8825 105.797 63.6266 105.951 63.5155Z" fill="white"/>
<path d="M105.951 63.5152C105.951 63.5152 106.028 63.5152 106.018 63.6487L105.995 67.0069C105.995 67.0069 106.028 67.2299 105.841 67.3739C105.841 67.3739 105.741 67.4958 105.741 67.3074L105.786 63.8825C105.786 63.8825 105.797 63.6263 105.951 63.5152Z" stroke="#12110C" stroke-width="0.016"/>
<path d="M105.775 63.5379C105.775 63.5379 105.643 63.7829 105.654 63.8389L105.643 64.5829C105.643 64.5829 105.632 65.061 105.643 65.1169C105.654 65.1721 105.632 66.5732 105.632 66.5732C105.632 66.5732 105.621 66.8394 105.632 66.9289V67.529C105.632 67.529 105.61 67.7964 105.808 67.7285C105.808 67.7285 107.742 67.6846 107.863 67.7184C107.863 67.7184 108.038 67.7513 107.973 67.8404C107.973 67.8404 107.973 67.9188 107.851 67.896C107.851 67.896 106.939 67.9843 106.116 67.9516C106.116 67.9516 105.566 67.9843 105.533 67.9188C105.533 67.9188 105.445 67.9075 105.445 67.5846C105.445 67.5846 105.445 67.2852 105.424 67.2295C105.424 67.2295 105.445 67.0719 105.171 67.0397C105.171 67.0397 104.786 67.1068 104.775 66.8734C104.775 66.8734 104.83 66.7067 105.204 66.7284C105.204 66.7284 105.479 66.7731 105.424 66.5501L105.456 64.9058C105.456 64.9058 105.49 64.6154 105.303 64.6038C105.303 64.6038 105.128 64.5948 105.072 64.6154C105.072 64.6154 104.753 64.6154 104.775 64.4277C104.775 64.4277 104.885 64.2271 105.204 64.2718C105.204 64.2718 105.445 64.3159 105.456 64.0387C105.456 64.0387 105.445 63.4712 105.577 63.4495C105.577 63.4495 105.852 63.4596 105.775 63.5379Z" fill="white"/>
<path d="M106.104 67.2176C106.104 67.2176 106.258 67.3836 106.512 67.3739L108.005 67.3955C108.005 67.3955 108.171 67.4074 108.16 67.4954C108.16 67.4954 108.137 67.6286 107.94 67.5842L106.137 67.5623L105.939 67.5744C105.939 67.5744 105.807 67.5514 106.017 67.2959L106.104 67.2176Z" fill="white"/>
<path d="M106.104 67.2173C106.104 67.2173 106.258 67.3836 106.512 67.3735L108.005 67.3955C108.005 67.3955 108.17 67.4071 108.161 67.4954C108.161 67.4954 108.137 67.6289 107.941 67.585L106.137 67.5629L105.939 67.5744C105.939 67.5744 105.807 67.5518 106.017 67.2956L106.104 67.2173Z" stroke="#12110C" stroke-width="0.016"/>
<path d="M110.719 67.0722C110.719 67.0722 110.851 67.3284 110.917 67.3634C110.917 67.3634 111.038 67.5066 111.006 67.2512L111.027 64.0489C111.027 64.0489 110.994 63.9374 111.027 63.7602L110.896 63.5155C110.896 63.5155 110.752 63.4044 110.752 63.582L110.731 66.9957L110.719 67.0722Z" fill="white"/>
<path d="M110.719 67.0726C110.719 67.0726 110.851 67.3284 110.918 67.3638C110.918 67.3638 111.039 67.5074 111.006 67.2512L111.028 64.0481C111.028 64.0481 110.994 63.9374 111.028 63.7602L110.896 63.5153C110.896 63.5153 110.752 63.4044 110.752 63.5819L110.73 66.996L110.719 67.0726Z" stroke="#12110C" stroke-width="0.016"/>
<path d="M108.28 65.5499C108.28 65.5499 108.291 65.8158 108.258 66.0709C108.24 66.212 108.302 66.8615 108.247 67.1945C108.247 67.1945 108.237 67.306 108.005 67.2065C108.005 67.2065 106.599 67.2392 106.555 67.1945C106.555 67.1945 106.171 67.2065 106.137 67.0058C106.137 67.0058 106.192 65.4828 106.16 65.4261C106.16 65.4261 106.137 64.5926 106.16 64.515C106.16 64.515 106.192 63.7479 106.171 63.6591C106.171 63.6591 106.182 63.4812 106.149 63.3918C106.149 63.3918 106.149 63.2806 106.336 63.3471C106.336 63.3471 106.401 63.4697 106.764 63.4152C106.764 63.4152 107.028 63.4593 107.281 63.4257C107.281 63.4257 107.841 63.3813 107.984 63.4257C107.984 63.4257 108.204 63.3813 108.269 63.6267L108.258 64.3154L108.323 64.5377L108.401 64.4825L108.433 64.3154L108.444 63.5815C108.444 63.5815 108.488 63.4477 108.665 63.4257C108.665 63.4257 108.939 63.3918 108.984 63.4152C109.028 63.4366 109.62 63.4697 109.786 63.4366C109.95 63.4033 109.983 63.5476 110.478 63.2926C110.478 63.2926 110.61 63.3037 110.61 63.3918C110.61 63.3918 110.565 64.3383 110.61 64.515C110.61 64.515 110.61 66.2492 110.576 66.3715L110.598 66.9274C110.598 66.9274 110.62 67.1722 110.236 67.1945C110.236 67.1945 110.478 67.228 108.961 67.1837C108.961 67.1837 108.719 67.1722 108.456 67.2942C108.456 67.2942 108.401 67.2833 108.401 67.139C108.401 67.139 108.444 66.6169 108.401 66.1045L108.38 65.5377L108.28 65.5499Z" fill="white"/>
<path d="M107.291 64.7611C107.291 64.7611 107.324 65.5835 107.291 65.6946L107.281 65.8729C107.281 65.8729 107.324 65.9944 107.39 66.0395C107.39 66.0395 107.446 66.1947 107.313 66.1839C107.313 66.1839 107.039 66.1615 106.973 66.172C106.973 66.172 106.819 66.172 106.973 65.9731C106.973 65.9731 107.028 65.8941 107.017 65.6946C107.017 65.6946 107.017 64.7611 107.039 64.7059C107.039 64.7059 107.061 64.5828 106.984 64.5493L106.851 64.5608L106.687 64.7164C106.687 64.7164 106.654 64.8838 106.577 64.7059V64.6161L106.676 64.3494L106.742 64.3378C106.742 64.3378 106.841 64.4047 106.928 64.4277H107.446L107.632 64.3378C107.632 64.3378 107.709 64.3494 107.688 64.4494C107.688 64.4494 107.72 64.7059 107.577 64.7384C107.577 64.7384 107.489 64.7059 107.446 64.5828C107.446 64.5828 107.303 64.5057 107.291 64.7611Z" fill="#12110C"/>
<path d="M109.719 64.4609C109.719 64.4609 109.302 64.4273 109.292 64.883C109.292 64.883 109.247 65.1951 109.709 65.3955C109.709 65.3955 110.05 65.5614 110.027 65.7725C110.027 65.7725 109.983 66.1507 109.62 65.9619C109.62 65.9619 109.445 65.8724 109.457 65.7725C109.457 65.7725 109.401 65.6499 109.335 65.6725C109.335 65.6725 109.258 65.6943 109.292 66.0615C109.292 66.0615 109.292 66.2062 109.457 66.0615L109.543 66.0843C109.543 66.0843 109.84 66.3289 110.093 66.028C110.093 66.028 110.368 65.7725 110.17 65.4615C110.17 65.4615 110.027 65.2399 109.775 65.1285C109.775 65.1285 109.533 65.0162 109.478 64.8275C109.478 64.8275 109.555 64.4934 109.851 64.6713C109.851 64.6713 109.961 64.8048 110.027 64.8275C110.027 64.8275 110.115 64.8275 110.093 64.6265L110.072 64.4609C110.072 64.4609 110.05 64.3371 109.895 64.4609C109.895 64.4609 109.752 64.5157 109.719 64.4609Z" fill="#12110C"/>
<path d="M108.379 64.2267C108.456 64.2834 108.467 64.3942 108.467 64.3942C108.687 64.983 108.874 65.84 108.874 65.84C108.928 65.95 109.027 66.0395 109.027 66.0395C109.214 66.1059 109.027 66.1611 109.027 66.1611C108.95 66.1951 108.698 66.151 108.698 66.151C108.566 66.1272 108.62 66.0839 108.62 66.0839C108.676 66.0283 108.632 65.8053 108.632 65.8053C108.62 65.7173 108.522 65.5723 108.522 65.5723C108.478 65.5498 108.401 65.6499 108.401 65.6499C108.401 65.6499 108.281 65.6946 108.269 65.6499C108.258 65.6047 108.181 65.5626 108.181 65.5626C108.049 65.5626 107.995 65.8941 107.995 65.8941C108.071 66.1723 107.995 66.1272 107.995 66.1272C107.929 66.2171 107.72 66.151 107.72 66.151C107.621 66.1272 107.688 66.0497 107.688 66.0497C107.808 66.0283 107.841 65.8941 107.841 65.8941C107.896 65.8165 108.247 64.3715 108.247 64.3715C108.281 64.3043 108.302 64.1712 108.379 64.2267ZM108.204 64.9603C108.193 65.0162 108.115 65.3276 108.115 65.3276L108.181 65.4398C108.181 65.4398 108.357 65.45 108.423 65.45C108.488 65.45 108.5 65.3954 108.5 65.3387C108.5 65.2836 108.379 64.9502 108.379 64.9502L108.324 64.8834L108.204 64.9603Z" fill="#12110C"/>
<path d="M105.403 61.5346C105.403 61.5346 105.281 61.9246 104.743 61.5234L102.897 61.4786C102.897 61.4786 102.655 61.5573 102.622 61.3012C102.622 61.3012 102.666 60.7902 102.643 60.7455C102.643 60.7455 102.655 60.6004 102.413 60.6004C102.413 60.6004 102.04 60.6458 102.029 60.3121C102.029 60.3121 101.963 59.9552 102.479 59.9675C102.479 59.9675 102.643 60.0451 102.655 59.8337C102.655 59.8337 102.633 58.3885 102.643 58.2767C102.643 58.2767 102.688 58.1447 102.436 58.1219C102.436 58.1219 102.073 58.1991 102.029 57.9545C102.029 57.9545 102.007 57.5883 102.248 57.5655C102.248 57.5655 102.545 57.5883 102.6 57.5114C102.6 57.5114 102.666 57.5543 102.655 57.2873L102.666 56.832C102.666 56.832 102.699 56.7096 102.885 56.7208C102.885 56.7208 103.227 56.7428 103.271 56.7096C103.271 56.7096 103.348 56.6101 103.369 56.5649C103.369 56.5649 103.546 56.5544 103.578 56.5977C103.578 56.5977 103.842 56.7767 104.843 56.7096C104.843 56.7096 104.996 56.7096 105.029 56.7544C105.029 56.7544 105.215 56.8986 105.325 56.7428C105.325 56.7428 105.49 56.7096 105.985 56.7208C105.985 56.7208 106.522 56.8651 106.896 56.5544L107.017 56.5772C107.017 56.5772 107.171 56.832 107.281 56.7544C107.281 56.7544 107.611 56.7208 107.666 56.7879C107.666 56.7879 107.776 56.9546 107.72 57.3887C107.72 57.3887 107.655 57.5774 107.973 57.5774C107.973 57.5774 108.336 57.5114 108.292 57.8545C108.292 57.8545 108.391 58.2439 107.787 58.1886C107.787 58.1886 107.709 58.3001 107.72 58.3777C107.72 58.3777 107.709 59.6446 107.699 59.79C107.699 59.79 107.688 59.9888 107.952 59.9787C107.952 59.9787 108.303 59.9552 108.314 60.279C108.314 60.279 108.358 60.7011 107.853 60.6228C107.853 60.6228 107.699 60.6458 107.676 60.7455L107.655 61.3012C107.655 61.3012 107.666 61.5793 107.357 61.513C107.314 61.513 105.644 61.5458 105.501 61.5022C105.501 61.5022 105.424 61.491 105.403 61.5346Z" fill="#12110C"/>
<path d="M105.403 61.5349C105.403 61.5349 105.281 61.925 104.743 61.5237L102.897 61.479C102.897 61.479 102.655 61.5577 102.622 61.3012C102.622 61.3012 102.666 60.7902 102.643 60.7455C102.643 60.7455 102.655 60.6008 102.413 60.6008C102.413 60.6008 102.04 60.6462 102.029 60.3125C102.029 60.3125 101.963 59.9552 102.479 59.9675C102.479 59.9675 102.643 60.0451 102.655 59.834C102.655 59.834 102.633 58.3882 102.643 58.2767C102.643 58.2767 102.688 58.1442 102.435 58.1219C102.435 58.1219 102.072 58.1992 102.029 57.9541C102.029 57.9541 102.007 57.5878 102.248 57.5655C102.248 57.5655 102.545 57.5878 102.6 57.5107C102.6 57.5107 102.666 57.5543 102.655 57.2873L102.666 56.8315C102.666 56.8315 102.699 56.7093 102.885 56.7208C102.885 56.7208 103.227 56.7425 103.271 56.7093C103.271 56.7093 103.348 56.6101 103.369 56.5649C103.369 56.5649 103.545 56.5541 103.578 56.5977C103.578 56.5977 103.841 56.7764 104.843 56.7093C104.843 56.7093 104.996 56.7093 105.029 56.754C105.029 56.754 105.215 56.8983 105.325 56.7425C105.325 56.7425 105.49 56.7093 105.985 56.7208C105.985 56.7208 106.523 56.8644 106.896 56.5541L107.017 56.5768C107.017 56.5768 107.171 56.8315 107.281 56.754C107.281 56.754 107.611 56.7208 107.667 56.7872C107.667 56.7872 107.776 56.9543 107.72 57.3879C107.72 57.3879 107.655 57.5774 107.973 57.5774C107.973 57.5774 108.336 57.5107 108.292 57.8542C108.292 57.8542 108.391 58.2439 107.787 58.1883C107.787 58.1883 107.709 58.2998 107.72 58.3777C107.72 58.3777 107.709 59.6446 107.699 59.7897C107.699 59.7897 107.688 59.9892 107.952 59.9791C107.952 59.9791 108.303 59.9552 108.314 60.2793C108.314 60.2793 108.358 60.7011 107.853 60.6228C107.853 60.6228 107.699 60.6462 107.677 60.7455L107.655 61.3012C107.655 61.3012 107.667 61.5797 107.358 61.5133C107.314 61.5133 105.644 61.5458 105.501 61.5022C105.501 61.5022 105.424 61.4913 105.403 61.5349Z" stroke="#12110C" stroke-width="0.0133333"/>
<path d="M103.326 56.9546C103.326 56.9546 103.348 57.1765 103.348 57.2321C103.348 57.2877 103.314 60.4453 103.314 60.4453C103.314 60.4453 103.348 60.6906 103.138 60.8122C103.138 60.8122 103.084 60.8349 103.073 60.6794L103.095 57.344C103.095 57.344 103.117 56.9322 103.326 56.9546Z" fill="white"/>
<path d="M103.326 56.9543C103.326 56.9543 103.348 57.1762 103.348 57.2317C103.348 57.2873 103.315 60.4452 103.315 60.4452C103.315 60.4452 103.348 60.6906 103.138 60.8129C103.138 60.8129 103.084 60.8353 103.072 60.6798L103.094 57.3439C103.094 57.3439 103.116 56.9322 103.326 56.9543V56.9543Z" stroke="#12110C" stroke-width="0.016"/>
<path d="M102.963 60.8454C102.963 60.8454 102.984 57.7102 102.974 57.6542C102.963 57.5994 102.984 57.6994 102.984 57.6994C102.984 57.6994 102.952 57.1552 103.095 56.9323C103.095 56.9323 103.051 56.7431 102.798 56.9762L102.788 57.4324C102.788 57.4324 102.788 57.6882 102.556 57.677C102.556 57.677 102.293 57.6654 102.171 57.7885C102.171 57.7885 102.106 58.0327 102.358 57.9888C102.358 57.9888 102.754 57.9888 102.776 58.1543L102.754 59.8337C102.754 59.8337 102.842 60.1115 102.534 60.1115C102.534 60.1115 102.161 60.0902 102.171 60.3237C102.171 60.3237 102.248 60.5239 102.568 60.4568C102.568 60.4568 102.798 60.5015 102.788 60.7228V61.1464C102.788 61.1464 102.765 61.3134 102.984 61.3235H104.699C104.699 61.3235 104.787 61.3347 104.787 61.2232C104.787 61.2232 104.776 61.1355 104.644 61.1355L103.217 61.1124C103.217 61.1124 102.984 61.1904 102.963 60.8454Z" fill="white"/>
<path d="M103.26 60.8682C103.26 60.8682 103.216 61.0244 103.38 60.9901H104.512L104.82 61.0565C104.82 61.0565 105.139 60.9789 104.82 60.8006C104.82 60.8006 103.809 60.8126 103.721 60.7902C103.721 60.7902 103.513 60.7347 103.468 60.7234C103.468 60.7234 103.358 60.6794 103.26 60.8682Z" fill="white"/>
<path d="M103.259 60.8678C103.259 60.8678 103.216 61.0247 103.38 60.9897H104.512L104.82 61.0568C104.82 61.0568 105.14 60.9793 104.82 60.8007C104.82 60.8007 103.809 60.8125 103.721 60.7895C103.721 60.7895 103.512 60.7343 103.468 60.7235C103.468 60.7235 103.358 60.6791 103.259 60.8678Z" stroke="#12110C" stroke-width="0.016"/>
<path d="M105.139 61.0244C105.139 61.0244 104.93 61.0244 104.941 61.3008C104.941 61.3008 104.963 61.5133 105.182 61.5133C105.182 61.5133 105.38 61.4787 105.359 61.2575C105.359 61.2575 105.237 60.9789 105.139 61.0244Z" fill="white"/>
<path d="M105.292 60.9122C105.292 60.9122 105.391 60.801 105.457 60.801C105.457 60.801 106.556 60.9014 106.743 60.7682C106.743 60.7682 106.908 60.735 106.951 60.7682C106.951 60.7682 107.116 60.9014 107.116 60.9789C107.116 60.9789 107.105 61.08 106.908 61.0244C106.908 61.0244 105.665 61.0348 105.6 61.0348C105.6 61.0348 105.259 61.1124 105.292 60.9122Z" fill="white"/>
<path d="M105.292 60.9122C105.292 60.9122 105.391 60.8007 105.457 60.8007C105.457 60.8007 106.556 60.9014 106.743 60.7682C106.743 60.7682 106.908 60.7347 106.952 60.7682C106.952 60.7682 107.116 60.9014 107.116 60.9793C107.116 60.9793 107.106 61.0804 106.908 61.0244C106.908 61.0244 105.666 61.0353 105.6 61.0353C105.6 61.0353 105.259 61.1128 105.292 60.9122V60.9122Z" stroke="#12110C" stroke-width="0.016"/>
<path d="M105.468 61.2459C105.468 61.2459 105.468 61.1575 105.621 61.1575L107.161 61.146C107.161 61.146 107.303 61.2228 107.303 60.9569C107.303 60.9569 107.359 59.7445 107.364 58.4102C107.366 58.0133 107.383 57.5966 107.369 57.2104C107.369 57.2104 107.336 57.0441 107.292 57.0098C107.292 57.0098 107.292 56.8319 107.479 56.8994C107.479 56.8994 107.643 56.9099 107.6 57.1653L107.61 57.5546C107.61 57.5546 107.577 57.7214 107.874 57.677C107.874 57.677 108.171 57.7214 108.181 57.8325C108.181 57.8325 108.27 58.0555 107.919 58.0327H107.666C107.666 58.0327 107.556 58.0992 107.589 58.2331L107.556 59.8448C107.556 59.8448 107.533 60.1227 107.798 60.1125C107.798 60.1125 108.072 60.101 108.127 60.1898C108.127 60.1898 108.314 60.468 107.907 60.4457C107.907 60.4457 107.654 60.4341 107.6 60.4784C107.6 60.4784 107.556 60.5351 107.523 61.0569C107.523 61.0569 107.545 61.3683 107.314 61.3347C107.314 61.3347 105.787 61.3563 105.644 61.3235C105.644 61.3235 105.49 61.3683 105.468 61.2459" fill="white"/>
<path d="M103.49 56.8536L103.458 60.4229C103.458 60.4229 103.447 60.5885 103.721 60.622C103.721 60.622 104.04 60.6556 104.117 60.622C104.117 60.622 104.325 60.6112 104.864 60.6336C104.864 60.6336 104.996 60.7664 105.006 60.6004C105.006 60.6004 105.094 57.7091 105.051 57.1091C105.051 57.1091 105.04 56.8536 104.852 56.8424C104.852 56.8424 104.018 56.9088 103.941 56.8424L103.612 56.7532C103.612 56.7532 103.479 56.7638 103.49 56.8536Z" fill="white"/>
<path d="M106.973 56.9871L106.962 60.5008C106.962 60.5008 107.05 60.813 107.194 60.7797C107.194 60.7797 107.215 60.7126 107.226 60.6008L107.271 57.2538C107.271 57.2538 107.161 56.72 106.973 56.9871Z" fill="white" stroke="#12110C" stroke-width="0.016"/>
<path d="M106.973 56.9871L106.962 60.5008C106.962 60.5008 107.05 60.813 107.194 60.7797C107.194 60.7797 107.215 60.7126 107.226 60.6008L107.271 57.2538C107.271 57.2538 107.161 56.72 106.973 56.9871Z" stroke="#12110C" stroke-width="0.016"/>
<path d="M105.227 57.017C105.227 57.017 105.194 58.6956 105.204 58.7519L105.184 60.1642L105.139 60.652C105.139 60.652 105.204 60.7534 105.26 60.6863C105.26 60.6863 105.612 60.5978 105.831 60.6308C105.831 60.6308 106.535 60.6979 106.677 60.5863C106.677 60.5863 106.787 60.6416 106.82 60.4636C106.82 60.4636 106.864 57.3511 106.842 57.2952C106.842 57.2952 106.886 56.851 106.864 56.8071C106.864 56.8071 106.852 56.706 106.667 56.7944C106.667 56.7944 106.688 56.8842 105.645 56.851C105.645 56.851 105.249 56.8395 105.227 57.017Z" fill="white"/>
<path d="M104.888 58.0454L104.788 58.2576C104.788 58.2576 104.547 59.3354 104.416 59.5573C104.416 59.5573 104.394 59.7803 104.207 59.602C104.207 59.602 103.778 58.2349 103.756 58.1901L103.613 58.0901C103.613 58.0901 103.526 57.9678 103.679 57.957L104.086 57.9678C104.086 57.9678 104.218 58.0786 104.042 58.2023C104.042 58.2023 104.064 58.3799 104.295 59.0572C104.295 59.0572 104.36 59.313 104.437 59.1239L104.657 58.3344L104.591 58.101C104.591 58.101 104.525 57.9898 104.624 57.979C104.624 57.979 104.855 57.957 104.888 58.0454Z" fill="#12110C"/>
<path d="M105.526 58.2236L105.514 59.4021L105.482 59.4909C105.482 59.4909 105.372 59.6349 105.448 59.6464C105.448 59.6464 105.35 59.7135 106.151 59.7243C106.151 59.7243 106.459 59.7796 106.382 59.3794C106.382 59.3794 106.349 59.235 106.239 59.4465C106.239 59.4465 106.206 59.6236 105.811 59.5684C105.811 59.5684 105.723 59.4909 105.723 59.4021V58.9125C105.723 58.9125 105.711 58.7898 105.899 58.8024C105.899 58.8024 106.107 58.9352 106.14 58.8789C106.14 58.8789 106.217 58.7017 106.14 58.5903C106.14 58.5903 106.041 58.5798 106.031 58.6242C106.031 58.6242 105.965 58.7569 105.778 58.679C105.778 58.679 105.69 58.5015 105.745 58.3568C105.745 58.3568 105.723 58.0786 105.91 58.1013C105.91 58.1013 106.13 58.1453 106.151 58.2128C106.151 58.2128 106.206 58.3467 106.262 58.1909L106.206 58.001C106.206 58.001 106.174 57.923 106.119 57.9454C106.119 57.9454 105.745 58.001 105.7 57.9559L105.404 57.9898C105.404 57.9898 105.36 58.1013 105.492 58.1562C105.492 58.1562 105.526 58.1789 105.526 58.2236Z" fill="#12110C"/>
<path d="M127.459 11C123.133 11 123.403 12.8761 123.403 12.8761L123.408 14.8198H127.537V15.4034H121.768C121.768 15.4034 119 15.0894 119 19.4546C119 23.8199 121.416 23.6651 121.416 23.6651H122.858V21.6394C122.858 21.6394 122.781 19.2231 125.236 19.2231H129.331C129.331 19.2231 131.631 19.2603 131.631 16.9998V13.262C131.631 13.262 131.981 11 127.459 11ZM125.183 12.307C125.594 12.307 125.926 12.639 125.926 13.0498C125.926 13.4605 125.594 13.7925 125.183 13.7925C124.772 13.7925 124.44 13.4605 124.44 13.0498C124.44 12.639 124.772 12.307 125.183 12.307Z" fill="url(#paint0_linear_4_184)"/>
<path d="M127.582 27.9531C131.909 27.9531 131.638 26.0769 131.638 26.0769L131.634 24.1333H127.505V23.5497H133.273C133.273 23.5497 136.042 23.8637 136.042 19.4984C136.042 15.1332 133.625 15.288 133.625 15.288H132.183V17.3136C132.183 17.3136 132.261 19.7299 129.806 19.7299H125.711C125.711 19.7299 123.41 19.6927 123.41 21.9533V25.6911C123.41 25.6911 123.061 27.9531 127.582 27.9531ZM129.859 26.646C129.448 26.646 129.116 26.3141 129.116 25.9033C129.116 25.4926 129.448 25.1606 129.859 25.1606C130.27 25.1606 130.602 25.4926 130.602 25.9033C130.602 26.3141 130.27 26.646 129.859 26.646Z" fill="url(#paint1_linear_4_184)"/>
<path d="M141.216 10.3769V27.9809H158.82V10.3769H141.216ZM150.404 25.4361C150.145 25.9632 149.649 26.3097 149.075 26.4767C148.193 26.6793 147.35 26.5639 146.722 26.1871C146.302 25.9294 145.974 25.5329 145.752 25.0761C146.199 24.8033 146.644 24.5288 147.091 24.256C147.103 24.2611 147.137 24.3246 147.185 24.4067C147.355 24.6931 147.503 24.8956 147.792 25.0373C148.077 25.1341 148.701 25.1965 148.942 24.6959C149.089 24.4416 149.042 23.6069 149.042 22.7018C149.042 21.2792 149.049 19.8803 149.049 18.4403H150.695C150.695 19.9523 150.704 21.4683 150.695 22.978C150.699 23.9033 150.779 24.7443 150.404 25.4356V25.4361ZM157.235 24.9709C156.663 26.929 153.471 26.9926 152.197 25.6988C151.927 25.3945 151.758 25.2353 151.598 24.8837C152.275 24.4939 152.275 24.4939 152.935 24.1126C153.293 24.6632 153.624 24.9659 154.22 25.0896C155.028 25.1881 155.842 24.9108 155.659 24.0524C155.472 23.3509 154.004 23.1805 153.005 22.4307C151.991 21.7495 151.754 20.0946 152.587 19.1491C152.865 18.7992 153.338 18.5382 153.835 18.4128C154.007 18.3908 154.182 18.3677 154.354 18.3458C155.349 18.3256 155.972 18.5883 156.429 19.099C156.556 19.2278 156.659 19.3667 156.854 19.6683C156.324 20.0063 156.325 20.0029 155.565 20.4951C155.403 20.1453 155.134 19.9259 154.849 19.8308C154.408 19.6969 153.85 19.8426 153.735 20.3095C153.695 20.4535 153.704 20.5874 153.767 20.8247C153.946 21.2331 154.547 21.4103 155.086 21.6578C156.637 22.2873 157.161 22.9611 157.289 23.7644C157.413 24.4557 157.259 24.904 157.236 24.9709H157.235Z" fill="#444444"/>
<defs>
<filter id="filter0_bd_4_184" x="-32.7761" y="-21.8507" width="248.552" height="191.194" filterUnits="userSpaceOnUse" color-interpolation-filters="sRGB">
<feFlood flood-opacity="0" result="BackgroundImageFix"/>
<feGaussianBlur in="BackgroundImage" stdDeviation="10.9254"/>
<feComposite in2="SourceAlpha" operator="in" result="effect1_backgroundBlur_4_184"/>
<feColorMatrix in="SourceAlpha" type="matrix" values="0 0 0 0 0 0 0 0 0 0 0 0 0 0 0 0 0 0 127 0" result="hardAlpha"/>
<feOffset dy="16.3881"/>
<feGaussianBlur stdDeviation="16.3881"/>
<feColorMatrix type="matrix" values="0 0 0 0 0.387689 0 0 0 0 0.116111 0 0 0 0 0.733333 0 0 0 0.5 0"/>
<feBlend mode="normal" in2="effect1_backgroundBlur_4_184" result="effect2_dropShadow_4_184"/>
<feBlend mode="normal" in="SourceGraphic" in2="effect2_dropShadow_4_184" result="shape"/>
</filter>
<linearGradient id="paint0_linear_4_184" x1="120.638" y1="12.5249" x2="129.083" y2="20.8859" gradientUnits="userSpaceOnUse">
<stop stop-color="#387EB8"/>
<stop offset="1" stop-color="#366994"/>
</linearGradient>
<linearGradient id="paint1_linear_4_184" x1="125.821" y1="17.8938" x2="134.891" y2="26.4673" gradientUnits="userSpaceOnUse">
<stop stop-color="#FFE052"/>
<stop offset="1" stop-color="#FFC331"/>
</linearGradient>
<clipPath id="clip0_4_184">
<rect width="58.997" height="93.2836" fill="white" transform="translate(10.9226 10.9234)"/>
</clipPath>
<clipPath id="clip1_4_184">
<rect width="59" height="25" fill="white" transform="translate(10.9226 10.9234)"/>
</clipPath>
<clipPath id="clip2_4_184">
<rect width="58.997" height="39.3313" fill="white" transform="translate(10.9226 64.8757)"/>
</clipPath>
<clipPath id="clip3_4_184">
<rect width="45.3403" height="19.6657" fill="white" transform="translate(10.9226 84.5413)"/>
</clipPath>
<clipPath id="clip4_4_184">
<rect width="37.1463" height="17.4806" fill="white" transform="translate(124.002 86.3084)"/>
</clipPath>
<clipPath id="clip5_4_184">
<rect width="28.9522" height="4.37015" fill="white" transform="translate(124.002 99.4189)"/>
</clipPath>
</defs>
</svg>
