<svg width="249" height="187" viewBox="0 0 249 187" fill="none" xmlns="http://www.w3.org/2000/svg">
<g filter="url(#filter0_bd_4_184)">
<rect x="33.1366" y="17.1366" width="182.727" height="119.906" rx="16.2515" stroke="white" stroke-opacity="0.3" stroke-width="0.273134"/>
</g>
<g filter="url(#filter1_d_4_184)">
<g filter="url(#filter2_ii_4_184)">
<path fill-rule="evenodd" clip-rule="evenodd" d="M191.018 49.0358C197.655 49.0358 203.036 43.6552 203.036 37.0179C203.036 30.3806 197.655 25 191.018 25C184.381 25 179 30.3806 179 37.0179C179 43.6552 184.381 49.0358 191.018 49.0358Z" fill="#2FB5FC"/>
</g>
<path fill-rule="evenodd" clip-rule="evenodd" d="M191.018 49.0358C197.655 49.0358 203.036 43.6552 203.036 37.0179C203.036 30.3806 197.655 25 191.018 25C184.381 25 179 30.3806 179 37.0179C179 43.6552 184.381 49.0358 191.018 49.0358Z" stroke="black" stroke-opacity="0.3" stroke-width="0.273134"/>
<path d="M194.724 36.4336L190.433 40.725L192.19 42.4826L196.482 38.1911L194.724 36.4336Z" fill="#3913B8"/>
<path fill-rule="evenodd" clip-rule="evenodd" d="M185.664 32.1297L189.452 35.9177C189.443 35.9577 189.439 35.9992 189.439 36.0417C189.439 36.3736 189.708 36.6426 190.04 36.6426C190.372 36.6426 190.641 36.3736 190.641 36.0417C190.641 35.7098 190.372 35.4408 190.04 35.4408C189.997 35.4408 189.955 35.4453 189.915 35.4538L186.126 31.6649L192.772 32.9226H192.777L193.946 37.2162L191.215 39.9476L186.921 38.7731L185.664 32.1297Z" fill="white"/>
</g>
<g clip-path="url(#clip0_4_184)">
<path d="M48.9559 31.2742H49.801V35.8339C49.801 36.5521 49.5379 37.1093 49.0116 37.5055C48.5597 37.8522 47.9685 38.0256 47.2379 38.0256C46.3959 38.0256 45.7459 37.8058 45.2877 37.3662C44.8915 36.9762 44.6934 36.4654 44.6934 35.8339V31.2742H45.5385V35.8339C45.5385 36.2921 45.6871 36.648 45.9842 36.9019C46.2814 37.1495 46.6993 37.2733 47.2379 37.2733C47.8075 37.2733 48.2471 37.1309 48.5566 36.8462C48.8228 36.5923 48.9559 36.2549 48.9559 35.8339V31.2742ZM52.2804 31.2742V37.9234H51.4167V31.2742H52.2804ZM55.5588 37.9234V31.2742H58.1219C59.0196 31.2742 59.7099 31.6085 60.1928 32.2772C60.6138 32.8653 60.8243 33.6392 60.8243 34.5988C60.8243 35.7008 60.5519 36.549 60.0071 37.1433C59.5304 37.6634 58.902 37.9234 58.1219 37.9234H55.5588ZM56.4039 37.1712H57.9733C59.3106 37.1712 59.9792 36.3137 59.9792 34.5988C59.9792 32.8839 59.3106 32.0264 57.9733 32.0264H56.4039V37.1712ZM62.9972 34.896V37.1712H66.9162V37.9234H62.1521V31.2742H66.7583V32.0264H62.9972V34.1438H66.619V34.896H62.9972ZM72.8528 33.1873H72.0542C72.0356 32.3205 71.4815 31.8871 70.3919 31.8871C69.9461 31.8871 69.587 31.9893 69.3146 32.1936C69.0422 32.3917 68.906 32.6548 68.906 32.9829C68.906 33.2306 68.9865 33.4287 69.1475 33.5773C69.3146 33.7197 69.5994 33.8435 70.0018 33.9487L71.5805 34.3574C72.5835 34.6236 73.085 35.1808 73.085 36.0289C73.085 36.6419 72.8404 37.1402 72.3513 37.5241C71.918 37.8584 71.2958 38.0256 70.4847 38.0256C69.457 38.0256 68.711 37.716 68.2467 37.0969C67.999 36.7626 67.869 36.3137 67.8566 35.7503H68.6553V35.7689C68.6553 36.2518 68.8193 36.6264 69.1475 36.8926C69.4818 37.1526 69.9461 37.2826 70.5405 37.2826C71.0853 37.2826 71.4908 37.1929 71.757 37.0133C72.0727 36.7966 72.2306 36.4933 72.2306 36.1032C72.2306 35.6079 71.8251 35.2582 71.0141 35.0539L69.3611 34.6267C68.4943 34.4038 68.0609 33.893 68.0609 33.0944C68.0609 32.4629 68.2993 31.9738 68.776 31.6271C69.1908 31.3237 69.7387 31.1721 70.4197 31.1721C71.3855 31.1721 72.0758 31.4538 72.4906 32.0171C72.7321 32.3453 72.8528 32.7013 72.8528 33.0851C72.8528 33.1037 72.8528 33.1377 72.8528 33.1873ZM75.2791 31.2742V37.9234H74.4155V31.2742H75.2791ZM82.5082 34.4224V37.9234H81.9695L81.7559 36.9855C81.1245 37.6789 80.3691 38.0256 79.49 38.0256C78.5242 38.0256 77.7565 37.6696 77.1869 36.9576C76.6917 36.3323 76.444 35.5522 76.444 34.6174C76.444 33.3977 76.8433 32.4598 77.642 31.8036C78.162 31.3826 78.8276 31.1721 79.6386 31.1721C80.5982 31.1721 81.3349 31.463 81.8488 32.045C82.1274 32.3607 82.3162 32.7694 82.4153 33.2708H81.5516C81.4588 32.8498 81.2421 32.5217 80.9016 32.2865C80.5611 32.045 80.1339 31.9243 79.62 31.9243C78.8709 31.9243 78.2797 32.1967 77.8463 32.7415C77.4748 33.2182 77.2891 33.828 77.2891 34.5709C77.2891 35.4377 77.5244 36.1218 77.9949 36.6233C78.4035 37.0567 78.9638 37.2733 79.6757 37.2733C80.3196 37.2733 80.8397 37.0628 81.2359 36.6419C81.5826 36.2704 81.7559 35.8184 81.7559 35.286V35.1746H79.7315V34.4224H82.5082ZM89.0243 31.2742V37.9234H88.077L84.6317 32.5279V37.9234H83.8331V31.2742H84.7525L88.2256 36.7069V31.2742H89.0243Z" fill="white"/>
<path d="M48.5386 46.6895H47.871C47.8 46.3486 47.6769 46.1001 47.5018 45.9438C47.2745 45.7355 46.9431 45.6314 46.5076 45.6314C45.9773 45.6314 45.5678 45.8397 45.279 46.2563C45.0281 46.6208 44.9026 47.099 44.9026 47.6908C44.9026 48.3583 45.0707 48.8767 45.4068 49.246C45.7051 49.5632 46.0886 49.7218 46.5573 49.7218C47.1301 49.7218 47.5254 49.5111 47.7432 49.0898C47.8426 48.8957 47.9207 48.6377 47.9776 48.3157H48.6451C48.4889 49.6366 47.7953 50.297 46.5644 50.297C45.9016 50.297 45.3784 50.1029 44.9949 49.7147C44.5026 49.2176 44.2564 48.5501 44.2564 47.7121C44.2564 46.8978 44.4931 46.2279 44.9665 45.7024C45.3547 45.2715 45.8897 45.0561 46.5715 45.0561C47.6793 45.0561 48.335 45.6006 48.5386 46.6895ZM52.5295 48.5643H49.838C49.8428 48.8767 49.9091 49.1253 50.0369 49.3099C50.2405 49.6082 50.534 49.7573 50.9175 49.7573C51.3909 49.7573 51.7105 49.5324 51.8762 49.0827H52.4585C52.3827 49.4662 52.2076 49.7644 51.933 49.9775C51.6584 50.1905 51.3128 50.297 50.8962 50.297C50.3422 50.297 49.9185 50.1077 49.625 49.7289C49.3646 49.3975 49.2344 48.9596 49.2344 48.4151C49.2344 47.7855 49.4048 47.2955 49.7457 46.9451C50.044 46.6421 50.4298 46.4906 50.9033 46.4906C51.2489 46.4906 51.5519 46.5735 51.8123 46.7392C52.0774 46.9049 52.2668 47.1321 52.3804 47.4209C52.4798 47.6671 52.5295 48.0411 52.5295 48.543V48.5643ZM51.9046 48.0885C51.9046 47.7713 51.8099 47.5156 51.6205 47.3215C51.4359 47.1227 51.1968 47.0232 50.9033 47.0232C50.605 47.0232 50.3612 47.1203 50.1718 47.3144C49.9872 47.5038 49.883 47.7618 49.8593 48.0885H51.9046ZM53.3171 46.5688H53.8568V47.2363C54.0698 46.7345 54.4059 46.4835 54.8652 46.4835C54.922 46.4835 54.9906 46.4906 55.0711 46.5048V47.1014C54.6924 47.1061 54.432 47.1605 54.29 47.2647C54.0296 47.4541 53.8994 47.8068 53.8994 48.3228V50.2189H53.3171V46.5688ZM57.0748 46.5688V47.0374H56.3291V49.4662C56.3291 49.5514 56.3575 49.6248 56.4144 49.6863C56.4759 49.7431 56.554 49.7715 56.6487 49.7715C56.7387 49.7715 56.876 49.7502 57.0606 49.7076L57.1245 50.2189C56.831 50.271 56.6085 50.297 56.457 50.297C55.9883 50.297 55.7539 50.1053 55.7539 49.7218V47.0374H55.2568V46.5688H55.7539V45.8231L56.3291 45.5603V46.5688H57.0748ZM58.3025 46.5688V50.2189H57.7272V46.5688H58.3025ZM58.0255 45.1413C58.1249 45.1413 58.2078 45.1769 58.2741 45.2479C58.3451 45.3142 58.3806 45.3946 58.3806 45.4893C58.3806 45.5887 58.3451 45.674 58.2741 45.745C58.2078 45.8113 58.1249 45.8444 58.0255 45.8444C57.9308 45.8444 57.848 45.8113 57.777 45.745C57.7107 45.674 57.6775 45.5887 57.6775 45.4893C57.6775 45.3946 57.7107 45.3142 57.777 45.2479C57.848 45.1769 57.9308 45.1413 58.0255 45.1413ZM60.6088 46.5688V47.0374H60.0052V50.2189H59.43V47.0374H58.94V46.5688H59.43V45.9438C59.43 45.6834 59.5034 45.4799 59.6501 45.3331C59.8016 45.1863 60.0123 45.1129 60.2822 45.1129C60.3863 45.1129 60.4952 45.1248 60.6088 45.1485V45.6314H60.5449C60.4929 45.6266 60.4479 45.6243 60.41 45.6243C60.1401 45.6243 60.0052 45.7473 60.0052 45.9935V46.5688H60.6088ZM61.7908 46.5688V50.2189H61.2156V46.5688H61.7908ZM61.5138 45.1413C61.6133 45.1413 61.6961 45.1769 61.7624 45.2479C61.8334 45.3142 61.8689 45.3946 61.8689 45.4893C61.8689 45.5887 61.8334 45.674 61.7624 45.745C61.6961 45.8113 61.6133 45.8444 61.5138 45.8444C61.4192 45.8444 61.3363 45.8113 61.2653 45.745C61.199 45.674 61.1659 45.5887 61.1659 45.4893C61.1659 45.3946 61.199 45.3142 61.2653 45.2479C61.3363 45.1769 61.4192 45.1413 61.5138 45.1413ZM65.5814 47.7902H64.9991C64.928 47.2789 64.6393 47.0232 64.1327 47.0232C63.8155 47.0232 63.5669 47.1487 63.387 47.3996C63.2071 47.6505 63.1172 47.9985 63.1172 48.4435C63.1172 48.8838 63.2237 49.22 63.4367 49.452C63.6166 49.6555 63.8581 49.7573 64.1611 49.7573C64.6487 49.7573 64.9399 49.4922 65.0346 48.962H65.624C65.5861 49.4164 65.4228 49.7597 65.134 49.9917C64.8831 50.1952 64.554 50.297 64.1469 50.297C63.6119 50.297 63.1953 50.1077 62.897 49.7289C62.6414 49.4022 62.5135 48.9738 62.5135 48.4435C62.5135 47.8091 62.6816 47.312 63.0177 46.9522C63.3065 46.6445 63.6806 46.4906 64.1398 46.4906C64.67 46.4906 65.0677 46.6682 65.3328 47.0232C65.4701 47.2079 65.553 47.4635 65.5814 47.7902ZM69.5171 49.7289V50.1976C69.3561 50.2544 69.2307 50.2828 69.1407 50.2828C68.762 50.2828 68.556 50.11 68.5229 49.7644C68.2625 50.1195 67.8483 50.297 67.2801 50.297C66.8872 50.297 66.5818 50.1881 66.364 49.9704C66.1747 49.781 66.08 49.5372 66.08 49.2389C66.08 48.898 66.2007 48.6353 66.4422 48.4506C66.5795 48.3465 66.8659 48.2447 67.3014 48.1453L68.4945 47.8754L68.5016 47.5701C68.5016 47.2055 68.227 47.0232 67.6778 47.0232C67.1523 47.0232 66.8706 47.2363 66.8327 47.6624H66.2433C66.2575 47.3404 66.338 47.0943 66.4848 46.9238C66.7357 46.635 67.1428 46.4906 67.7062 46.4906C68.62 46.4906 69.0768 46.822 69.0768 47.4848V49.523C69.0768 49.7029 69.1549 49.7928 69.3112 49.7928C69.3301 49.7928 69.3798 49.7786 69.4603 49.7502C69.4887 49.7408 69.5076 49.7336 69.5171 49.7289ZM68.5016 48.3512L67.5642 48.5927C67.2281 48.6779 66.9961 48.7655 66.8683 48.8554C66.7452 48.9454 66.6836 49.0708 66.6836 49.2318C66.6836 49.6058 66.9251 49.7928 67.408 49.7928C67.7488 49.7928 68.0376 49.6816 68.2743 49.4591C68.4258 49.3218 68.5016 49.1655 68.5016 48.9904V48.3512ZM71.5829 46.5688V47.0374H70.8373V49.4662C70.8373 49.5514 70.8657 49.6248 70.9225 49.6863C70.984 49.7431 71.0621 49.7715 71.1568 49.7715C71.2468 49.7715 71.3841 49.7502 71.5687 49.7076L71.6326 50.2189C71.3391 50.271 71.1166 50.297 70.9651 50.297C70.4964 50.297 70.262 50.1053 70.262 49.7218V47.0374H69.7649V46.5688H70.262V45.8231L70.8373 45.5603V46.5688H71.5829ZM75.3458 48.5643H72.6544C72.6591 48.8767 72.7254 49.1253 72.8532 49.3099C73.0568 49.6082 73.3503 49.7573 73.7338 49.7573C74.2072 49.7573 74.5268 49.5324 74.6925 49.0827H75.2748C75.1991 49.4662 75.0239 49.7644 74.7493 49.9775C74.4747 50.1905 74.1291 50.297 73.7125 50.297C73.1586 50.297 72.7348 50.1077 72.4413 49.7289C72.1809 49.3975 72.0507 48.9596 72.0507 48.4151C72.0507 47.7855 72.2212 47.2955 72.562 46.9451C72.8603 46.6421 73.2462 46.4906 73.7196 46.4906C74.0652 46.4906 74.3682 46.5735 74.6286 46.7392C74.8937 46.9049 75.0831 47.1321 75.1967 47.4209C75.2961 47.6671 75.3458 48.0411 75.3458 48.543V48.5643ZM74.7209 48.0885C74.7209 47.7713 74.6262 47.5156 74.4368 47.3215C74.2522 47.1227 74.0131 47.0232 73.7196 47.0232C73.4213 47.0232 73.1775 47.1203 72.9881 47.3144C72.8035 47.5038 72.6993 47.7618 72.6757 48.0885H74.7209Z" fill="white" fill-opacity="0.6"/>
<g clip-path="url(#clip1_4_184)">
<rect x="43.9226" y="81.4577" width="58.997" height="2.18507" rx="1.09254" fill="white" fill-opacity="0.3"/>
<rect x="43.9226" y="88.013" width="31.6836" height="2.18507" rx="1.09254" fill="white" fill-opacity="0.3"/>
<rect x="43.9226" y="94.5682" width="42.609" height="2.18507" rx="1.09254" fill="white" fill-opacity="0.3"/>
<g clip-path="url(#clip2_4_184)">
<rect x="43.9226" y="101.123" width="31.6836" height="2.18507" rx="1.09254" fill="white" fill-opacity="0.3"/>
<rect x="43.9226" y="116.419" width="45.3403" height="4.37015" rx="2.18507" fill="white" fill-opacity="0.6"/>
</g>
</g>
</g>
<g clip-path="url(#clip3_4_184)">
<rect x="157.002" y="103.308" width="37.1463" height="2.18507" rx="1.09254" fill="white" fill-opacity="0.3"/>
<rect x="157.002" y="109.864" width="20.7582" height="2.18507" rx="1.09254" fill="white" fill-opacity="0.3"/>
<g clip-path="url(#clip4_4_184)">
<rect x="157.002" y="116.419" width="28.9522" height="4.37015" rx="2.18507" fill="white" fill-opacity="0.6"/>
</g>
</g>
<path d="M160.817 83.1896C160.817 83.0507 160.728 82.9479 160.545 82.9078V82.8179C160.646 82.8179 160.983 82.8317 161.078 82.8317C161.16 82.8317 161.487 82.8179 161.589 82.8179V82.9078C161.419 82.9413 161.33 83.0428 161.33 83.1896V84.9534C161.33 85.5119 161.633 85.8276 162.267 85.8276C162.813 85.8276 163.238 85.5794 163.238 84.9949V83.1828C163.238 83.0518 163.157 82.9479 162.952 82.9078V82.8179C163.027 82.8179 163.306 82.8317 163.401 82.8317C163.482 82.8317 163.775 82.8179 163.85 82.8179V82.9078C163.652 82.9555 163.565 83.0449 163.565 83.1828V84.8977C163.565 85.6674 163.122 86.1095 162.167 86.1095C161.278 86.1095 160.817 85.7006 160.817 84.9775V83.1896Z" fill="#1D1D1B"/>
<path d="M164.631 85.9712C164.838 85.9323 164.919 85.8263 164.919 85.6963V83.2585C164.919 83.0518 164.81 82.9588 164.625 82.9075V82.8176C164.73 82.8256 164.906 82.8302 164.996 82.8302C165.078 82.8302 165.205 82.8288 165.29 82.8176L167.38 85.3038V83.1828C167.38 83.0521 167.298 82.9482 167.094 82.9075V82.8176C167.169 82.8176 167.438 82.8317 167.533 82.8317C167.616 82.8317 167.904 82.8176 167.98 82.8176V82.9075C167.781 82.9551 167.685 83.0453 167.685 83.1828V86.1094H167.559C167.48 86.091 167.33 86.0048 167.102 85.7516L165.232 83.5479V85.6963C165.232 85.8269 165.307 85.9305 165.511 85.9712V86.0615C165.436 86.0615 165.167 86.0471 165.071 86.0471C164.989 86.0471 164.707 86.0615 164.631 86.0615V85.9712Z" fill="#1D1D1B"/>
<path d="M181.12 85.3138H181.209C181.255 85.496 181.358 85.6621 181.503 85.758C181.653 85.8652 181.889 85.9164 182.079 85.9164C182.499 85.9164 182.766 85.7057 182.766 85.3723C182.766 85.027 182.425 84.8476 182.016 84.6409C181.711 84.4868 181.114 84.2325 181.114 83.6479C181.114 83.1033 181.524 82.7646 182.181 82.7646C182.614 82.7646 182.817 82.8717 183.11 82.858L183.104 83.5187H183.015C182.898 83.1293 182.548 82.9937 182.166 82.9937C181.738 82.9937 181.578 83.2413 181.578 83.4931C181.578 83.8536 181.926 84.0354 182.322 84.2137C182.766 84.4139 183.248 84.6669 183.248 85.2301C183.248 85.7634 182.836 86.1496 182.082 86.1496C181.634 86.1496 181.365 86.02 181.129 85.9907L181.12 85.3138Z" fill="#1D1D1B"/>
<path d="M190.1 84.7195L189.25 83.3383C189.104 83.0959 188.993 82.968 188.831 82.9075V82.8179C188.948 82.8179 189.263 82.832 189.352 82.832C189.433 82.832 189.773 82.8179 189.896 82.8179V82.9075C189.787 82.9269 189.736 82.9821 189.736 83.0651C189.736 83.1384 189.785 83.2326 189.835 83.3145C189.883 83.3956 190.462 84.367 190.462 84.367L191.067 83.3149C191.128 83.2095 191.171 83.1048 191.171 83.0359C191.171 82.9731 191.127 82.9211 191.024 82.9075V82.8179C191.126 82.8179 191.341 82.832 191.41 82.832C191.478 82.832 191.725 82.8179 191.827 82.8179V82.9013C191.594 82.9977 191.449 83.2041 191.308 83.4433L190.535 84.7513L190.1 84.7195ZM190.588 84.5864V85.6898C190.588 85.7991 190.67 85.9366 190.856 85.9712V86.0615C190.752 86.0615 190.414 86.047 190.316 86.047C190.233 86.047 189.908 86.0615 189.791 86.0615V85.9712C189.978 85.9366 190.067 85.7991 190.067 85.6898V84.6348" fill="#1D1D1B"/>
<path d="M174.29 82.8179H176.286C176.347 82.8179 176.455 82.8108 176.517 82.7837H176.606L176.592 83.4396H176.504C176.428 83.2333 176.349 83.068 175.963 83.068H175.097V84.2112H175.764C175.862 84.2112 175.98 84.2028 176.031 84.1906C176.181 84.1574 176.247 84.0729 176.277 83.9434H176.366C176.36 84.0422 176.36 84.2678 176.36 84.3346C176.36 84.4017 176.366 84.6391 176.366 84.7466H176.277C176.234 84.6174 176.176 84.5193 176.031 84.4832C175.98 84.4695 175.86 84.4583 175.764 84.4583H175.097V85.7992H176.039C176.45 85.7992 176.57 85.6256 176.672 85.3803L176.76 85.4011L176.672 86.0749C176.366 86.0474 176.183 86.0474 175.835 86.0474H174.84C174.744 86.0474 174.392 86.0615 174.289 86.0615V85.9716C174.469 85.937 174.574 85.8471 174.574 85.6728V83.1929C174.574 83.0392 174.492 82.9432 174.29 82.9089V82.8179Z" fill="#1D1D1B"/>
<path d="M169.195 83.2105C169.195 83.0442 169.097 82.9526 168.904 82.9107V82.8216C169.011 82.8216 169.358 82.8352 169.459 82.8352C169.543 82.8352 169.899 82.8216 170.007 82.8216V82.9107C169.816 82.9526 169.716 83.0355 169.716 83.2105V85.6732C169.716 85.8395 169.814 85.9301 170.007 85.9712V86.0615C169.899 86.0615 169.558 86.0474 169.459 86.0474C169.372 86.0474 169.011 86.0615 168.904 86.0615V85.9712C169.1 85.9341 169.195 85.8471 169.195 85.6732V83.2105Z" fill="#1D1D1B"/>
<path d="M184.33 83.2105C184.33 83.0442 184.231 82.9526 184.039 82.9107V82.8216C184.146 82.8216 184.493 82.8352 184.593 82.8352C184.678 82.8352 185.034 82.8216 185.142 82.8216V82.9107C184.951 82.9526 184.851 83.0355 184.851 83.2105V85.6732C184.851 85.8395 184.949 85.9301 185.142 85.9712V86.0615C185.035 86.0615 184.694 86.0474 184.593 86.0474C184.508 86.0474 184.146 86.0615 184.039 86.0615V85.9712C184.235 85.9341 184.33 85.8471 184.33 85.6732V83.2105Z" fill="#1D1D1B"/>
<path d="M187.103 82.8317C186.01 82.8317 185.835 82.8111 185.611 82.797L185.613 83.4653H185.702C185.783 83.1691 185.946 83.1002 186.158 83.1002H186.844V85.6733C186.844 85.8471 186.75 85.9341 186.553 85.9712V86.0615C186.661 86.0615 187.025 86.0474 187.109 86.0474C187.21 86.0474 187.552 86.0615 187.659 86.0615V85.9712C187.465 85.9301 187.367 85.8396 187.367 85.6733V83.1002H188.048C188.267 83.1002 188.423 83.1756 188.505 83.4653H188.593L188.595 82.797C188.372 82.8111 188.197 82.8317 187.103 82.8317Z" fill="#1D1D1B"/>
<path d="M178.376 85.6732C178.376 85.8395 178.48 85.9297 178.673 85.9712V86.0615C178.566 86.0615 178.216 86.0473 178.116 86.0473C178.031 86.0473 177.689 86.0615 177.582 86.0615V85.9712C177.761 85.9366 177.866 85.8471 177.866 85.6732V83.1854C177.866 83.0324 177.784 82.936 177.582 82.9014V82.8119C177.689 82.8119 178.028 82.8255 178.123 82.8255C178.28 82.8255 178.725 82.7989 178.9 82.7989C179.667 82.7989 180.093 83.1196 180.093 83.6695C180.093 84.1018 179.776 84.3941 179.286 84.5135C179.286 84.5135 179.398 84.5791 179.509 84.7101C179.645 84.8714 180.01 85.4015 180.161 85.5869C180.312 85.7728 180.506 85.9803 180.714 85.9897V86.0621C180.614 86.0841 180.455 86.1033 180.333 86.1033C180.072 86.1033 179.865 86.0102 179.663 85.7631C179.488 85.548 179.192 85.1017 179.017 84.8761C178.906 84.7325 178.77 84.6203 178.523 84.5791C178.475 84.5709 178.43 84.564 178.376 84.5575V85.6732ZM178.376 84.3511C178.478 84.3652 178.628 84.3717 178.776 84.3717C179.376 84.3717 179.565 84.0224 179.565 83.7132C179.565 83.2759 179.277 83.0049 178.752 83.0049C178.643 83.0049 178.485 83.0186 178.376 83.0395V84.3511Z" fill="#1D1D1B"/>
<path d="M170.776 83.221C170.706 83.0644 170.599 82.9497 170.416 82.909V82.8176C170.53 82.8176 170.924 82.8321 171.01 82.8321C171.09 82.8321 171.434 82.8176 171.551 82.8176V82.9063C171.448 82.9265 171.329 82.9846 171.329 83.0922C171.329 83.169 171.375 83.2737 171.463 83.4708L172.289 85.3722L173.071 83.4675C173.133 83.3138 173.177 83.1947 173.177 83.1037C173.177 83.0031 173.086 82.9334 172.956 82.9063V82.8176C173.06 82.8176 173.314 82.8321 173.393 82.8321C173.466 82.8321 173.765 82.8176 173.879 82.8176V82.909C173.684 82.9623 173.565 83.0709 173.455 83.3282L172.305 86.073H172.045L170.776 83.221Z" fill="#1D1D1B"/>
<path d="M173.726 74.5648C173.593 74.2678 173.389 74.0513 173.043 73.9737V73.8009C173.258 73.8009 173.972 73.8269 174.136 73.8269C174.287 73.8269 174.979 73.8009 175.199 73.8009V73.9694C175.004 74.0081 174.779 74.1185 174.779 74.3223C174.779 74.4662 174.867 74.6651 175.031 75.0378L176.598 78.6414L178.08 75.0317C178.196 74.7394 178.282 74.5161 178.282 74.3432C178.282 74.1512 178.107 74.0211 177.861 73.9694V73.8009C178.057 73.8009 178.534 73.8269 178.686 73.8269C178.823 73.8269 179.39 73.8009 179.605 73.8009V73.964C179.236 74.0654 179.009 74.2801 178.804 74.7676L176.624 79.9704H176.131L173.726 74.5648Z" fill="#1D1D1B"/>
<path d="M152.631 79.7723C152.916 79.7065 153.116 79.5756 153.116 79.2494V74.4796C153.116 74.1664 152.93 74.0365 152.631 73.9579V73.7886C152.781 73.7886 153.425 73.8143 153.581 73.8143C153.761 73.8143 154.436 73.7886 154.585 73.7886V73.9579C154.3 74.0232 154.09 74.1538 154.09 74.4796V76.4721H157.601V74.4796C157.601 74.1538 157.414 74.0232 157.117 73.9579V73.7886C157.266 73.7886 157.928 73.8143 158.108 73.8143C158.264 73.8143 158.923 73.7886 159.069 73.7886V73.9579C158.785 74.0232 158.574 74.1538 158.574 74.4796V79.2494C158.574 79.5626 158.772 79.694 159.069 79.7723V79.9284C158.923 79.9284 158.264 79.9155 158.108 79.9155C157.928 79.9155 157.266 79.9284 157.117 79.9284V79.7723C157.4 79.7065 157.601 79.5756 157.601 79.2494V76.9952H154.09V79.2494C154.09 79.5756 154.287 79.694 154.585 79.7723V79.9284C154.436 79.9284 153.761 79.9155 153.581 79.9155C153.425 79.9155 152.781 79.9284 152.631 79.9284V79.7723Z" fill="#1D1D1B"/>
<path d="M193.252 79.7723C193.617 79.7065 193.817 79.5601 193.817 79.2235V74.4796C193.817 74.1527 193.619 74.0232 193.267 73.9579V73.7886C193.47 73.7886 194.131 73.8143 194.313 73.8143C194.609 73.8143 195.432 73.749 196.074 73.749C198.234 73.749 199.546 74.9696 199.546 76.8257C199.546 78.6299 198.181 79.9668 195.953 79.9668C195.311 79.9668 194.55 79.9155 194.251 79.9155C194.07 79.9155 193.454 79.9414 193.252 79.9414V79.7723ZM194.79 79.4579C195.01 79.4984 195.417 79.5236 195.737 79.5236C197.552 79.5236 198.497 78.4184 198.497 76.877C198.497 75.2789 197.5 74.1545 195.803 74.1545C195.457 74.1545 195.024 74.1808 194.79 74.2191V79.4579Z" fill="#1D1D1B"/>
<path d="M168.799 79.2061C168.799 79.5222 168.997 79.6939 169.361 79.7722V79.9415C169.159 79.9415 168.498 79.9155 168.308 79.9155C168.147 79.9155 167.499 79.9415 167.296 79.9415V79.7722C167.634 79.7066 167.834 79.5363 167.834 79.2061V74.4963C167.834 74.2065 167.679 74.0232 167.297 73.9578V73.7886C167.5 73.7886 168.14 73.8142 168.32 73.8142C168.617 73.8142 169.46 73.7641 169.792 73.7641C171.245 73.7641 172.053 74.3721 172.053 75.412C172.053 76.2318 171.45 76.7835 170.524 77.0112C170.524 77.0112 170.734 77.135 170.945 77.3842C171.202 77.6892 171.909 78.7139 172.195 79.065C172.481 79.4165 172.848 79.809 173.241 79.8271V79.9654C173.053 80.0064 172.752 80.0414 172.522 80.0414C172.026 80.0414 171.633 79.8661 171.25 79.3969C170.921 78.9899 170.344 78.1247 170.013 77.6975C169.802 77.4254 169.547 77.2133 169.08 77.135C168.988 77.119 168.901 77.1068 168.799 77.0953V79.2061ZM168.799 76.7045C168.992 76.7301 169.276 76.7431 169.558 76.7431C170.694 76.7431 171.051 76.0814 171.051 75.4968C171.051 74.6666 170.504 74.1545 169.509 74.1545C169.304 74.1545 169.005 74.1809 168.799 74.2191V76.7045Z" fill="#1D1D1B"/>
<path d="M187.948 79.2061C187.948 79.5222 188.146 79.6939 188.511 79.7722V79.9415C188.308 79.9415 187.648 79.9155 187.458 79.9155C187.295 79.9155 186.649 79.9415 186.445 79.9415V79.7722C186.783 79.7066 186.982 79.5363 186.982 79.2061V74.4963C186.982 74.2065 186.826 74.0232 186.446 73.9578V73.7886C186.65 73.7886 187.288 73.8142 187.47 73.8142C187.767 73.8142 188.609 73.7641 188.939 73.7641C190.395 73.7641 191.201 74.3721 191.201 75.412C191.201 76.2318 190.599 76.7835 189.672 77.0112C189.672 77.0112 189.883 77.135 190.093 77.3842C190.352 77.6892 191.059 78.7139 191.344 79.065C191.631 79.4165 191.998 79.809 192.388 79.8271V79.9654C192.203 80.0064 191.9 80.0414 191.673 80.0414C191.176 80.0414 190.781 79.8661 190.4 79.3969C190.07 78.9899 189.495 78.1247 189.161 77.6975C188.95 77.4254 188.696 77.2133 188.23 77.135C188.136 77.119 188.051 77.1068 187.948 77.0953V79.2061ZM187.948 76.7045C188.142 76.7301 188.425 76.7431 188.707 76.7431C189.843 76.7431 190.199 76.0814 190.199 75.4968C190.199 74.6666 189.653 74.1545 188.659 74.1545C188.452 74.1545 188.155 74.1809 187.948 74.2191V76.7045Z" fill="#1D1D1B"/>
<path d="M159.993 79.7711C160.378 79.6802 160.589 79.4284 160.729 79.0913L162.674 74.3562C162.757 74.1603 162.853 73.7576 162.853 73.7576H163.397C163.397 73.7576 163.495 74.1614 163.576 74.3577L165.631 79.1043C165.778 79.4312 165.936 79.6673 166.345 79.7711L166.344 79.9289C166.121 79.9289 165.43 79.9159 165.272 79.9159C165.116 79.9159 164.455 79.9289 164.233 79.9289L164.234 79.7711C164.533 79.6968 164.627 79.5428 164.627 79.3937C164.627 79.2671 164.576 79.1242 164.513 78.9759L164.071 77.9561H161.806L161.401 78.9816C161.356 79.0979 161.302 79.2621 161.302 79.3728C161.302 79.5438 161.391 79.6802 161.73 79.7711L161.729 79.9289C161.528 79.9289 160.997 79.9159 160.873 79.9159L159.993 79.9289L159.993 79.7711ZM163.866 77.4726L162.899 75.1926L161.998 77.4726H163.866Z" fill="#1D1D1B"/>
<path d="M179.262 79.7711C179.646 79.6802 179.858 79.4284 179.997 79.0913L181.943 74.3562C182.026 74.1603 182.123 73.7576 182.123 73.7576H182.667C182.667 73.7576 182.763 74.1614 182.844 74.3577L184.9 79.1043C185.046 79.4312 185.206 79.6673 185.613 79.7711L185.612 79.9289C185.39 79.9289 184.698 79.9159 184.539 79.9159C184.384 79.9159 183.724 79.9289 183.501 79.9289V79.7711C183.802 79.6968 183.895 79.5428 183.895 79.3937C183.895 79.2671 183.844 79.1242 183.783 78.9759L183.339 77.9561H181.074L180.669 78.9816C180.624 79.0979 180.57 79.2621 180.57 79.3728C180.57 79.5438 180.659 79.6802 180.998 79.7711V79.9289C180.796 79.9289 180.266 79.9159 180.141 79.9159L179.261 79.9289L179.262 79.7711ZM183.134 77.4726L182.166 75.1926L181.266 77.4726H183.134Z" fill="#1D1D1B"/>
<path d="M134.675 71.8741H148.236V77.0574C148.236 79.4323 147.362 84.4687 141.506 88.2171C141.506 88.2171 135.161 85.5357 134.675 77.0574V71.8741Z" fill="#A81D28"/>
<path d="M134.647 71.8604H148.221V77.0473C148.221 79.423 147.347 84.4622 141.485 88.2131C141.485 88.2131 135.134 85.53 134.647 77.0473V71.8604Z" stroke="#12110C" stroke-width="0.306667"/>
<path d="M144.939 78.5346C144.939 78.5346 144.818 78.9246 144.28 78.5237L142.434 78.4786C142.434 78.4786 142.193 78.5573 142.16 78.3014C142.16 78.3014 142.204 77.7902 142.181 77.7455C142.181 77.7455 142.193 77.6011 141.95 77.6011C141.95 77.6011 141.577 77.6455 141.566 77.3114C141.566 77.3114 141.501 76.9556 142.017 76.9675C142.017 76.9675 142.181 77.0451 142.193 76.8333C142.193 76.8333 142.171 75.3875 142.181 75.2771C142.181 75.2771 142.226 75.1442 141.972 75.1215C141.972 75.1215 141.61 75.1991 141.566 74.9552C141.566 74.9552 141.544 74.5883 141.786 74.5655C141.786 74.5655 142.083 74.5883 142.138 74.51C142.138 74.51 142.204 74.5539 142.193 74.2884L142.204 73.8315C142.204 73.8315 142.236 73.7096 142.423 73.7215C142.423 73.7215 142.764 73.7435 142.808 73.7096C142.808 73.7096 142.884 73.6101 142.907 73.5649C142.907 73.5649 143.083 73.5541 143.115 73.5988C143.115 73.5988 143.379 73.7767 144.379 73.7096C144.379 73.7096 144.533 73.7096 144.565 73.7544C144.565 73.7544 144.753 73.8986 144.862 73.7435C144.862 73.7435 145.027 73.7096 145.521 73.7215C145.521 73.7215 146.061 73.8655 146.433 73.5541L146.554 73.5765C146.554 73.5765 146.708 73.8315 146.818 73.7544C146.818 73.7544 147.148 73.7215 147.202 73.7879C147.202 73.7879 147.312 73.9536 147.257 74.3887C147.257 74.3887 147.192 74.5771 147.511 74.5771C147.511 74.5771 147.874 74.51 147.829 74.8545C147.829 74.8545 147.928 75.2439 147.324 75.1886C147.324 75.1886 147.247 75.2998 147.257 75.3777C147.257 75.3777 147.247 76.6446 147.236 76.79C147.236 76.79 147.225 76.9903 147.488 76.9787C147.488 76.9787 147.84 76.9556 147.852 77.2786C147.852 77.2786 147.895 77.7011 147.389 77.6228C147.389 77.6228 147.236 77.6455 147.213 77.7455L147.192 78.3014C147.192 78.3014 147.202 78.5793 146.895 78.5122C146.852 78.5122 145.182 78.5465 145.038 78.5022C145.038 78.5022 144.96 78.491 144.939 78.5346Z" fill="white"/>
<path d="M141.39 80.3929C141.39 80.3929 141.467 80.36 141.489 80.3052C141.489 80.3052 141.72 80.2824 141.752 80.2493L142.478 80.3052C142.478 80.3052 143.192 80.36 143.499 80.1367C143.499 80.1367 143.61 80.1367 143.687 80.1706C143.687 80.1706 143.84 80.2045 143.884 80.2702L144.302 80.259C144.302 80.259 144.544 80.3376 144.521 80.4935V80.6931C144.521 80.6931 144.477 81.0936 144.587 81.1163H144.906C144.906 81.1163 145.17 81.2383 145.137 81.3938C145.137 81.3938 145.148 81.6153 144.918 81.6605C144.918 81.6605 144.686 81.7268 144.61 81.7164C144.61 81.7164 144.533 81.816 144.521 81.9383L144.489 83.395C144.489 83.395 144.467 83.5505 144.698 83.5284C144.698 83.5284 145.037 83.4949 145.137 83.6847C145.137 83.6847 145.225 84.0065 145.049 84.0621L144.918 84.1281L144.631 84.1744C144.631 84.1744 144.511 84.1844 144.5 84.3955V84.7841C144.5 84.7841 144.511 85.0519 144.302 85.0519L143.994 85.0742C143.994 85.0742 143.917 85.1399 143.764 85.0955C143.764 85.0955 141.895 85.1298 141.829 85.1071L141.61 85.1522C141.61 85.1522 141.368 85.3745 141.17 85.207L141.016 85.0847C141.016 85.0847 140.906 85.1071 140.863 85.0955C140.819 85.0847 138.797 85.1183 138.797 85.1183C138.797 85.1183 138.368 85.1634 138.336 85.018C138.336 85.018 138.281 84.4514 138.303 84.3836C138.303 84.3836 138.303 84.2176 138.204 84.2068C138.204 84.2068 137.775 84.1844 137.764 84.1393C137.764 84.1393 137.533 83.9734 137.599 83.8069C137.599 83.8069 137.676 83.5837 137.907 83.5616C137.907 83.5616 138.258 83.6179 138.258 83.5176C138.258 83.5176 138.281 83.4509 138.281 83.3401C138.281 83.3401 138.303 82.0162 138.292 81.9275C138.292 81.9275 138.324 81.7607 138.181 81.7607C138.181 81.7607 138.028 81.8048 137.929 81.7384C137.929 81.7384 137.665 81.7496 137.61 81.5381C137.61 81.5381 137.566 81.405 137.632 81.2928C137.632 81.2928 137.753 81.0485 138.105 81.1267C138.105 81.1267 138.303 81.1827 138.324 81.0387L138.314 80.5039C138.314 80.5039 138.269 80.36 138.544 80.2824C138.544 80.2824 138.896 80.382 139.006 80.2045C139.006 80.2045 139.127 79.9591 139.225 80.1259C139.225 80.1259 139.434 80.3265 140.005 80.3052C140.005 80.3052 140.995 80.2266 141.016 80.2702C141.016 80.2702 141.258 80.3052 141.324 80.382L141.39 80.3929Z" fill="white"/>
<path d="M138.403 78.5346C138.403 78.5346 138.281 78.9246 137.743 78.5234L135.897 78.4786C135.897 78.4786 135.655 78.5573 135.622 78.3012C135.622 78.3012 135.666 77.7902 135.643 77.7455C135.643 77.7455 135.655 77.6004 135.413 77.6004C135.413 77.6004 135.04 77.6458 135.029 77.3121C135.029 77.3121 134.963 76.9552 135.479 76.9675C135.479 76.9675 135.643 77.0451 135.655 76.8337C135.655 76.8337 135.633 75.3885 135.643 75.2767C135.643 75.2767 135.688 75.1447 135.436 75.1219C135.436 75.1219 135.073 75.1991 135.029 74.9545C135.029 74.9545 135.007 74.5883 135.248 74.5655C135.248 74.5655 135.545 74.5883 135.6 74.5114C135.6 74.5114 135.666 74.5543 135.655 74.2873L135.666 73.832C135.666 73.832 135.699 73.7096 135.885 73.7208C135.885 73.7208 136.227 73.7428 136.271 73.7096C136.271 73.7096 136.348 73.6101 136.369 73.5649C136.369 73.5649 136.546 73.5544 136.578 73.5977C136.578 73.5977 136.842 73.7767 137.843 73.7096C137.843 73.7096 137.996 73.7096 138.029 73.7544C138.029 73.7544 138.215 73.8986 138.325 73.7428C138.325 73.7428 138.49 73.7096 138.985 73.7208C138.985 73.7208 139.522 73.8651 139.896 73.5544L140.017 73.5772C140.017 73.5772 140.171 73.832 140.281 73.7544C140.281 73.7544 140.611 73.7208 140.666 73.7879C140.666 73.7879 140.776 73.9546 140.72 74.3887C140.72 74.3887 140.655 74.5774 140.973 74.5774C140.973 74.5774 141.336 74.5114 141.292 74.8545C141.292 74.8545 141.391 75.2439 140.787 75.1886C140.787 75.1886 140.709 75.3001 140.72 75.3777C140.72 75.3777 140.709 76.6446 140.699 76.79C140.699 76.79 140.688 76.9888 140.952 76.9787C140.952 76.9787 141.303 76.9552 141.314 77.279C141.314 77.279 141.358 77.7011 140.853 77.6228C140.853 77.6228 140.699 77.6458 140.676 77.7455L140.655 78.3012C140.655 78.3012 140.666 78.5793 140.357 78.513C140.314 78.513 138.644 78.5458 138.501 78.5022C138.501 78.5022 138.424 78.491 138.403 78.5346Z" fill="white"/>
<path d="M144.939 78.5346C144.939 78.5346 144.818 78.9246 144.28 78.5237L142.434 78.4786C142.434 78.4786 142.193 78.5573 142.16 78.3014C142.16 78.3014 142.204 77.7902 142.181 77.7455C142.181 77.7455 142.193 77.6011 141.95 77.6011C141.95 77.6011 141.577 77.6455 141.566 77.3114C141.566 77.3114 141.501 76.9556 142.017 76.9675C142.017 76.9675 142.181 77.0451 142.193 76.8333C142.193 76.8333 142.171 75.3875 142.181 75.2771C142.181 75.2771 142.226 75.1442 141.972 75.1215C141.972 75.1215 141.61 75.1991 141.566 74.9552C141.566 74.9552 141.544 74.5883 141.786 74.5655C141.786 74.5655 142.083 74.5883 142.138 74.51C142.138 74.51 142.204 74.5539 142.193 74.2884L142.204 73.8315C142.204 73.8315 142.236 73.7096 142.423 73.7215C142.423 73.7215 142.764 73.7435 142.808 73.7096C142.808 73.7096 142.884 73.6101 142.907 73.5649C142.907 73.5649 143.083 73.5541 143.115 73.5988C143.115 73.5988 143.379 73.7767 144.379 73.7096C144.379 73.7096 144.533 73.7096 144.565 73.7544C144.565 73.7544 144.753 73.8986 144.862 73.7435C144.862 73.7435 145.027 73.7096 145.521 73.7215C145.521 73.7215 146.061 73.8655 146.433 73.5541L146.554 73.5765C146.554 73.5765 146.708 73.8315 146.818 73.7544C146.818 73.7544 147.148 73.7215 147.202 73.7879C147.202 73.7879 147.312 73.9536 147.257 74.3887C147.257 74.3887 147.192 74.5771 147.511 74.5771C147.511 74.5771 147.874 74.51 147.829 74.8545C147.829 74.8545 147.928 75.2439 147.324 75.1886C147.324 75.1886 147.247 75.2998 147.257 75.3777C147.257 75.3777 147.247 76.6446 147.236 76.79C147.236 76.79 147.225 76.9903 147.488 76.9787C147.488 76.9787 147.84 76.9556 147.852 77.2786C147.852 77.2786 147.895 77.7011 147.389 77.6228C147.389 77.6228 147.236 77.6455 147.213 77.7455L147.192 78.3014C147.192 78.3014 147.202 78.5793 146.895 78.5122C146.852 78.5122 145.182 78.5465 145.038 78.5022C145.038 78.5022 144.96 78.491 144.939 78.5346Z" fill="#12110C"/>
<path d="M144.939 78.5349C144.939 78.5349 144.818 78.925 144.28 78.5241L142.434 78.479C142.434 78.479 142.192 78.5577 142.159 78.3015C142.159 78.3015 142.204 77.7902 142.181 77.7455C142.181 77.7455 142.192 77.6011 141.95 77.6011C141.95 77.6011 141.577 77.6459 141.566 77.3117C141.566 77.3117 141.5 76.956 142.016 76.9675C142.016 76.9675 142.181 77.0451 142.192 76.8337C142.192 76.8337 142.17 75.3878 142.181 75.277C142.181 75.277 142.226 75.1439 141.972 75.1215C141.972 75.1215 141.61 75.1992 141.566 74.9552C141.566 74.9552 141.544 74.5878 141.786 74.5655C141.786 74.5655 142.082 74.5878 142.137 74.51C142.137 74.51 142.204 74.5539 142.192 74.288L142.204 73.8312C142.204 73.8312 142.235 73.7093 142.423 73.7212C142.423 73.7212 142.764 73.7432 142.808 73.7093C142.808 73.7093 142.884 73.6101 142.907 73.5649C142.907 73.5649 143.083 73.5537 143.115 73.5985C143.115 73.5985 143.379 73.7764 144.379 73.7093C144.379 73.7093 144.533 73.7093 144.565 73.754C144.565 73.754 144.753 73.8983 144.862 73.7432C144.862 73.7432 145.027 73.7093 145.521 73.7212C145.521 73.7212 146.061 73.8651 146.434 73.5537L146.555 73.5757C146.555 73.5757 146.709 73.8312 146.818 73.754C146.818 73.754 147.148 73.7212 147.202 73.7872C147.202 73.7872 147.312 73.9536 147.258 74.3879C147.258 74.3879 147.192 74.577 147.511 74.577C147.511 74.577 147.874 74.51 147.829 74.8542C147.829 74.8542 147.928 75.2439 147.324 75.1883C147.324 75.1883 147.247 75.2994 147.258 75.3777C147.258 75.3777 147.247 76.6446 147.236 76.7897C147.236 76.7897 147.225 76.9899 147.488 76.9791C147.488 76.9791 147.841 76.956 147.852 77.2785C147.852 77.2785 147.895 77.7011 147.39 77.6228C147.39 77.6228 147.236 77.6459 147.213 77.7455L147.192 78.3015C147.192 78.3015 147.202 78.5797 146.896 78.5126C146.852 78.5126 145.182 78.5465 145.038 78.5022C145.038 78.5022 144.96 78.4913 144.939 78.5349Z" stroke="#12110C" stroke-width="0.0133333"/>
<path d="M142.863 73.9539C142.863 73.9539 142.884 74.1765 142.884 74.2328C142.884 74.288 142.852 77.4453 142.852 77.4453C142.852 77.4453 142.884 77.6899 142.676 77.8126C142.676 77.8126 142.621 77.8342 142.61 77.6787L142.632 74.3443C142.632 74.3443 142.654 73.9318 142.863 73.9539" fill="white"/>
<path d="M142.863 73.9535C142.863 73.9535 142.884 74.1762 142.884 74.2325C142.884 74.288 142.852 77.4457 142.852 77.4457C142.852 77.4457 142.884 77.6903 142.676 77.8125C142.676 77.8125 142.621 77.8346 142.61 77.6791L142.632 74.344C142.632 74.344 142.654 73.9315 142.863 73.9535V73.9535Z" stroke="#12110C" stroke-width="0.016"/>
<path d="M142.5 77.8454C142.5 77.8454 142.522 74.7102 142.512 74.6547C142.5 74.5998 142.522 74.7001 142.522 74.7001C142.522 74.7001 142.489 74.1545 142.632 73.9315C142.632 73.9315 142.588 73.7436 142.335 73.9766L142.324 74.4319C142.324 74.4319 142.324 74.6882 142.094 74.677C142.094 74.677 141.83 74.6654 141.709 74.7878C141.709 74.7878 141.643 75.0327 141.895 74.9888C141.895 74.9888 142.291 74.9888 142.313 75.1543L142.291 76.8337C142.291 76.8337 142.379 77.1129 142.072 77.1129C142.072 77.1129 141.697 77.0891 141.709 77.3226C141.709 77.3226 141.786 77.5225 142.105 77.4564C142.105 77.4564 142.335 77.5001 142.324 77.7234V78.1456C142.324 78.1456 142.302 78.3134 142.522 78.3239H144.236C144.236 78.3239 144.324 78.3347 144.324 78.2235C144.324 78.2235 144.313 78.1348 144.181 78.1348L142.753 78.1124C142.753 78.1124 142.522 78.1907 142.5 77.8454Z" fill="white"/>
<path d="M142.83 77.8404C142.83 77.8404 142.786 77.9959 142.951 77.9634H144.083L144.39 78.0309C144.39 78.0309 144.708 77.9523 144.39 77.7747C144.39 77.7747 143.379 77.7848 143.291 77.7631C143.291 77.7631 143.082 77.7079 143.037 77.6968C143.037 77.6968 142.929 77.6524 142.83 77.8404Z" fill="white"/>
<path d="M142.83 77.8404C142.83 77.8404 142.786 77.9962 142.95 77.9638H144.083L144.39 78.0312C144.39 78.0312 144.708 77.9523 144.39 77.7743C144.39 77.7743 143.379 77.7844 143.291 77.7631C143.291 77.7631 143.082 77.7076 143.037 77.6964C143.037 77.6964 142.928 77.652 142.83 77.8404Z" stroke="#12110C" stroke-width="0.016"/>
<path d="M144.708 77.9963C144.708 77.9963 144.5 77.9963 144.51 78.2748C144.51 78.2748 144.533 78.4852 144.752 78.4852C144.752 78.4852 144.949 78.4524 144.928 78.2301C144.928 78.2301 144.807 77.9522 144.708 77.9963" fill="white"/>
<path d="M144.862 77.8855C144.862 77.8855 144.961 77.7747 145.027 77.7747C145.027 77.7747 146.126 77.8743 146.312 77.7411C146.312 77.7411 146.477 77.708 146.522 77.7411C146.522 77.7411 146.686 77.8743 146.686 77.9522C146.686 77.9522 146.675 78.0528 146.477 77.9959C146.477 77.9959 145.236 78.0081 145.17 78.0081C145.17 78.0081 144.829 78.0854 144.862 77.8855" fill="white"/>
<path d="M144.862 77.8855C144.862 77.8855 144.961 77.7743 145.027 77.7743C145.027 77.7743 146.126 77.8739 146.312 77.7407C146.312 77.7407 146.478 77.7076 146.522 77.7407C146.522 77.7407 146.686 77.8739 146.686 77.9526C146.686 77.9526 146.676 78.0533 146.478 77.9962C146.478 77.9962 145.235 78.0085 145.169 78.0085C145.169 78.0085 144.828 78.0857 144.862 77.8855V77.8855Z" stroke="#12110C" stroke-width="0.016"/>
<path d="M145.005 78.2459C145.005 78.2459 145.005 78.156 145.159 78.156L146.697 78.1452C146.697 78.1452 146.84 78.2232 146.84 77.9569C146.84 77.9569 146.896 76.7449 146.901 75.4106C146.903 75.0133 146.921 74.5966 146.907 74.2104C146.907 74.2104 146.873 74.0434 146.829 74.0094C146.829 74.0094 146.829 73.8319 147.016 73.8987C147.016 73.8987 147.181 73.9099 147.137 74.1664L147.148 74.5539C147.148 74.5539 147.115 74.7217 147.411 74.6767C147.411 74.6767 147.707 74.7217 147.719 74.8321C147.719 74.8321 147.807 75.0555 147.456 75.0327H147.202C147.202 75.0327 147.093 75.0992 147.125 75.2331L147.093 76.8455C147.093 76.8455 147.071 77.123 147.334 77.1125C147.334 77.1125 147.609 77.101 147.664 77.1902C147.664 77.1902 147.852 77.468 147.445 77.4457C147.445 77.4457 147.192 77.4341 147.137 77.4792C147.137 77.4792 147.093 77.5343 147.06 78.0575C147.06 78.0575 147.082 78.3689 146.851 78.3347C146.851 78.3347 145.324 78.3567 145.181 78.3239C145.181 78.3239 145.027 78.3689 145.005 78.2459" fill="white"/>
<path d="M143.028 73.8529L142.994 77.4229C142.994 77.4229 142.984 77.5885 143.258 77.622C143.258 77.622 143.577 77.6552 143.653 77.622C143.653 77.622 143.863 77.6105 144.401 77.6332C144.401 77.6332 144.533 77.7678 144.544 77.5997C144.544 77.5997 144.631 74.7102 144.589 74.1083C144.589 74.1083 144.576 73.8529 144.39 73.8417C144.39 73.8417 143.555 73.9099 143.478 73.8417L143.148 73.7536C143.148 73.7536 143.016 73.7644 143.028 73.8529Z" fill="white"/>
<path d="M144.763 74.0315C144.763 74.0315 144.73 75.7104 144.741 75.766L144.72 77.1776L144.675 77.6672C144.675 77.6672 144.741 77.7671 144.796 77.7007C144.796 77.7007 145.148 77.6105 145.368 77.6455C145.368 77.6455 146.072 77.7116 146.214 77.5997C146.214 77.5997 146.324 77.6553 146.356 77.4773C146.356 77.4773 146.4 74.3653 146.379 74.3097C146.379 74.3097 146.422 73.8637 146.4 73.8204C146.4 73.8204 146.39 73.7204 146.203 73.8089C146.203 73.8089 146.224 73.8983 145.181 73.8637C145.181 73.8637 144.786 73.8528 144.763 74.0315Z" fill="white"/>
<path d="M146.511 73.9875L146.5 77.5001C146.5 77.5001 146.588 77.8125 146.731 77.7798C146.731 77.7798 146.752 77.7123 146.763 77.6011L146.807 74.2541C146.807 74.2541 146.697 73.7215 146.511 73.9875Z" fill="white"/>
<path d="M146.511 73.9871L146.5 77.5005C146.5 77.5005 146.588 77.813 146.731 77.7802C146.731 77.7802 146.752 77.7127 146.763 77.6015L146.807 74.2538C146.807 74.2538 146.697 73.7212 146.511 73.9871Z" stroke="#12110C" stroke-width="0.016"/>
<path d="M145.162 75.0393C145.129 74.9505 145.348 74.9393 145.348 74.9393L145.459 74.9613C145.536 74.9505 145.613 74.984 145.613 74.984C145.689 75.106 145.557 75.1724 145.557 75.1724L145.514 75.3175C145.502 75.4401 145.514 76.4963 145.514 76.4963C145.536 76.5511 145.623 76.6508 145.623 76.6508C145.623 76.7514 145.502 76.7294 145.502 76.7294L145.184 76.7406C145.085 76.7294 145.118 76.6178 145.118 76.6178C145.228 76.5623 145.261 76.3617 145.261 76.3617V75.2616L145.162 75.0393Z" fill="#12110C"/>
<path d="M143.678 76.0734L143.657 76.4179L143.755 76.5843C143.822 76.6731 143.711 76.7406 143.711 76.7406L143.36 76.7073C143.294 76.6731 143.36 76.5623 143.36 76.5623C143.448 76.5075 143.459 76.362 143.459 76.362L143.448 75.7173L143.459 75.2504C143.459 75.1944 143.371 75.0952 143.371 75.0952C143.294 75.084 143.316 74.984 143.316 74.984C143.338 74.9281 143.524 74.9613 143.524 74.9613H143.986C144.426 75.1061 144.36 75.4285 144.36 75.4285C144.393 75.7505 144.053 75.8847 144.053 75.8847L144.03 76.0626L144.349 76.5731C144.404 76.6178 144.393 76.663 144.393 76.663C144.349 76.7853 144.173 76.663 144.173 76.663L143.778 76.0399C143.744 75.9951 143.678 76.0734 143.678 76.0734ZM143.69 75.1944C143.7 75.4397 143.7 75.7732 143.7 75.7732C143.91 75.9402 144.03 75.7061 144.03 75.7061C144.304 75.4397 144.03 75.1944 143.986 75.1284C143.942 75.0613 143.722 75.1168 143.722 75.1168L143.69 75.1944Z" fill="#12110C"/>
<path d="M141.39 80.3929C141.39 80.3929 141.467 80.36 141.489 80.3052C141.489 80.3052 141.72 80.2824 141.752 80.2493L142.478 80.3052C142.478 80.3052 143.192 80.36 143.499 80.1367C143.499 80.1367 143.61 80.1367 143.687 80.1706C143.687 80.1706 143.84 80.2045 143.884 80.2702L144.302 80.259C144.302 80.259 144.544 80.3376 144.521 80.4935V80.6931C144.521 80.6931 144.477 81.0936 144.587 81.1163H144.906C144.906 81.1163 145.17 81.2383 145.137 81.3938C145.137 81.3938 145.148 81.6153 144.918 81.6605C144.918 81.6605 144.686 81.7268 144.61 81.7164C144.61 81.7164 144.533 81.816 144.521 81.9383L144.489 83.395C144.489 83.395 144.467 83.5505 144.698 83.5284C144.698 83.5284 145.037 83.4949 145.137 83.6847C145.137 83.6847 145.225 84.0065 145.049 84.0621L144.918 84.1281L144.631 84.1744C144.631 84.1744 144.511 84.1844 144.5 84.3955V84.7841C144.5 84.7841 144.511 85.0519 144.302 85.0519L143.994 85.0742C143.994 85.0742 143.917 85.1399 143.764 85.0955C143.764 85.0955 141.895 85.1298 141.829 85.1071L141.61 85.1522C141.61 85.1522 141.368 85.3745 141.17 85.207L141.016 85.0847C141.016 85.0847 140.906 85.1071 140.863 85.0955C140.819 85.0847 138.797 85.1183 138.797 85.1183C138.797 85.1183 138.368 85.1634 138.336 85.018C138.336 85.018 138.281 84.4514 138.303 84.3836C138.303 84.3836 138.303 84.2176 138.204 84.2068C138.204 84.2068 137.775 84.1844 137.764 84.1393C137.764 84.1393 137.533 83.9734 137.599 83.8069C137.599 83.8069 137.676 83.5837 137.907 83.5616C137.907 83.5616 138.258 83.6179 138.258 83.5176C138.258 83.5176 138.281 83.4509 138.281 83.3401C138.281 83.3401 138.303 82.0162 138.292 81.9275C138.292 81.9275 138.324 81.7607 138.181 81.7607C138.181 81.7607 138.028 81.8048 137.929 81.7384C137.929 81.7384 137.665 81.7496 137.61 81.5381C137.61 81.5381 137.566 81.405 137.632 81.2928C137.632 81.2928 137.753 81.0485 138.105 81.1267C138.105 81.1267 138.303 81.1827 138.324 81.0387L138.314 80.5039C138.314 80.5039 138.269 80.36 138.544 80.2824C138.544 80.2824 138.896 80.382 139.006 80.2045C139.006 80.2045 139.127 79.9591 139.225 80.1259C139.225 80.1259 139.434 80.3265 140.005 80.3052C140.005 80.3052 140.995 80.2266 141.016 80.2702C141.016 80.2702 141.258 80.3052 141.324 80.382L141.39 80.3929Z" fill="#12110C"/>
<path d="M141.39 80.3792C141.39 80.3792 141.466 80.3467 141.489 80.2911C141.489 80.2911 141.719 80.2684 141.752 80.2351L142.477 80.2911C142.477 80.2911 143.192 80.3467 143.499 80.1233C143.499 80.1233 143.61 80.1233 143.687 80.1573C143.687 80.1573 143.84 80.1908 143.884 80.2565L144.302 80.2456C144.302 80.2456 144.544 80.3243 144.521 80.4798V80.6797C144.521 80.6797 144.477 81.0802 144.587 81.1023H144.906C144.906 81.1023 145.17 81.2249 145.137 81.3805C145.137 81.3805 145.148 81.602 144.918 81.6471C144.918 81.6471 144.686 81.7135 144.61 81.7026C144.61 81.7026 144.533 81.8026 144.521 81.9249L144.489 83.382C144.489 83.382 144.467 83.5368 144.697 83.5151C144.697 83.5151 145.038 83.4823 145.137 83.671C145.137 83.671 145.225 83.9932 145.05 84.0491L144.918 84.1156L144.631 84.1607C144.631 84.1607 144.511 84.1715 144.5 84.3818V84.7719C144.5 84.7719 144.511 85.0385 144.302 85.0385L143.994 85.0609C143.994 85.0609 143.917 85.1273 143.764 85.083C143.764 85.083 141.895 85.1165 141.829 85.0934L141.609 85.1385C141.609 85.1385 141.368 85.3611 141.17 85.1933L141.016 85.0709C141.016 85.0709 140.906 85.0934 140.863 85.083C140.819 85.0709 138.797 85.1053 138.797 85.1053C138.797 85.1053 138.368 85.1501 138.335 85.005C138.335 85.005 138.281 84.4377 138.302 84.3706C138.302 84.3706 138.302 84.2046 138.203 84.1934C138.203 84.1934 137.775 84.1715 137.764 84.1267C137.764 84.1267 137.533 83.9597 137.599 83.7933C137.599 83.7933 137.676 83.5704 137.907 83.5479C137.907 83.5479 138.258 83.605 138.258 83.5035C138.258 83.5035 138.281 83.4371 138.281 83.3267C138.281 83.3267 138.302 82.0029 138.292 81.9141C138.292 81.9141 138.324 81.7467 138.181 81.7467C138.181 81.7467 138.027 81.7911 137.929 81.725C137.929 81.725 137.665 81.7359 137.61 81.5248C137.61 81.5248 137.566 81.3917 137.632 81.2798C137.632 81.2798 137.752 81.0351 138.104 81.1131C138.104 81.1131 138.302 81.1694 138.324 81.025L138.313 80.4906C138.313 80.4906 138.269 80.3467 138.544 80.2684C138.544 80.2684 138.896 80.3687 139.006 80.1908C139.006 80.1908 139.126 79.9458 139.225 80.1118C139.225 80.1118 139.434 80.3125 140.005 80.2911C140.005 80.2911 140.995 80.2124 141.016 80.2565C141.016 80.2565 141.258 80.2911 141.324 80.3687L141.39 80.3792Z" stroke="#12110C" stroke-width="0.0133333"/>
<path d="M141.675 84.7625C141.675 84.7625 141.808 84.695 141.896 84.7181C141.984 84.7402 143.269 84.7072 143.269 84.7072C143.269 84.7072 143.829 84.7513 143.918 84.6726L144.049 84.6286C144.049 84.6286 144.104 84.5623 144.104 84.4738C144.104 84.384 144.115 84.0837 144.115 84.0837L144.148 83.9734C144.148 83.9734 144.137 83.8622 144.148 80.893C144.148 80.893 144.192 80.6606 144.049 80.5152C144.049 80.5152 144.049 80.4271 144.093 80.4376C144.137 80.4496 144.115 80.4496 144.115 80.4496C144.115 80.4496 144.313 80.3929 144.345 80.4707C144.345 80.4707 144.434 80.7367 144.356 80.893C144.356 80.893 144.334 81.2159 144.5 81.2159C144.5 81.2159 144.565 81.283 144.697 81.2491C144.697 81.2491 144.983 81.283 144.983 81.3711C144.983 81.3711 144.983 81.572 144.785 81.5385L144.521 81.5601C144.521 81.5601 144.345 81.5944 144.367 81.8049C144.39 82.0162 144.356 83.5284 144.356 83.5284C144.356 83.5284 144.356 83.7071 144.632 83.6959C144.632 83.6959 144.972 83.6843 144.972 83.7839C144.972 83.7839 145.06 84.0062 144.818 84.0178C144.818 84.0178 144.356 84.0062 144.39 84.1393C144.39 84.1393 144.356 84.4514 144.334 84.5063C144.334 84.5063 144.379 84.7625 144.323 84.8073C144.323 84.8073 144.291 84.9512 143.994 84.9292C143.994 84.9292 142.105 84.9183 141.808 84.9404C141.808 84.9404 141.632 84.9183 141.675 84.7625" fill="white"/>
<path d="M141.336 84.5514C141.336 84.5514 141.522 84.5842 141.522 84.7625C141.522 84.94 141.533 85.0403 141.423 85.0623C141.313 85.0847 141.193 85.0519 141.16 84.9075C141.126 84.7625 141.181 84.5842 141.336 84.5514Z" fill="white"/>
<path d="M141.555 84.4626C141.555 84.4626 141.752 84.3284 141.829 84.3516C141.829 84.3516 142.829 84.4175 143.138 84.363C143.445 84.3071 143.258 84.3516 143.258 84.3516C143.258 84.3516 143.522 84.3516 143.598 84.2508C143.598 84.2508 143.676 84.2295 143.719 84.3071L143.884 84.4857C143.884 84.4857 143.896 84.5958 143.708 84.5846C143.708 84.5846 141.917 84.5846 141.863 84.5958C141.863 84.5958 141.522 84.6506 141.555 84.4626" fill="white"/>
<path d="M141.555 84.4626C141.555 84.4626 141.752 84.3284 141.829 84.3512C141.829 84.3512 142.829 84.4175 143.137 84.363C143.445 84.3068 143.258 84.3512 143.258 84.3512C143.258 84.3512 143.522 84.3512 143.599 84.2501C143.599 84.2501 143.676 84.2292 143.72 84.3068L143.884 84.4857C143.884 84.4857 143.896 84.5962 143.709 84.5846C143.709 84.5846 141.917 84.5846 141.862 84.5962C141.862 84.5962 141.522 84.651 141.555 84.4626V84.4626Z" stroke="#12110C" stroke-width="0.016"/>
<path d="M138.951 80.5155C138.951 80.5155 139.028 80.5155 139.017 80.6491L138.995 84.0065C138.995 84.0065 139.028 84.2295 138.841 84.3735C138.841 84.3735 138.742 84.4954 138.742 84.3071L138.787 80.8825C138.787 80.8825 138.797 80.6266 138.951 80.5155" fill="white"/>
<path d="M138.951 80.5152C138.951 80.5152 139.028 80.5152 139.018 80.6487L138.995 84.0069C138.995 84.0069 139.028 84.2299 138.841 84.3739C138.841 84.3739 138.741 84.4958 138.741 84.3074L138.786 80.8825C138.786 80.8825 138.797 80.6263 138.951 80.5152Z" stroke="#12110C" stroke-width="0.016"/>
<path d="M138.775 80.5379C138.775 80.5379 138.643 80.7829 138.654 80.8389L138.643 81.5829C138.643 81.5829 138.632 82.061 138.643 82.1169C138.654 82.1721 138.632 83.5732 138.632 83.5732C138.632 83.5732 138.621 83.8394 138.632 83.9289V84.529C138.632 84.529 138.61 84.7964 138.808 84.7285C138.808 84.7285 140.742 84.6846 140.863 84.7184C140.863 84.7184 141.038 84.7513 140.973 84.8404C140.973 84.8404 140.973 84.9188 140.851 84.896C140.851 84.896 139.939 84.9843 139.116 84.9516C139.116 84.9516 138.566 84.9843 138.533 84.9188C138.533 84.9188 138.445 84.9075 138.445 84.5846C138.445 84.5846 138.445 84.2852 138.424 84.2295C138.424 84.2295 138.445 84.0719 138.171 84.0397C138.171 84.0397 137.786 84.1068 137.775 83.8734C137.775 83.8734 137.83 83.7067 138.204 83.7284C138.204 83.7284 138.479 83.7731 138.424 83.5501L138.456 81.9058C138.456 81.9058 138.49 81.6154 138.303 81.6038C138.303 81.6038 138.128 81.5948 138.072 81.6154C138.072 81.6154 137.753 81.6154 137.775 81.4277C137.775 81.4277 137.885 81.2271 138.204 81.2718C138.204 81.2718 138.445 81.3159 138.456 81.0387C138.456 81.0387 138.445 80.4712 138.577 80.4495C138.577 80.4495 138.852 80.4596 138.775 80.5379" fill="white"/>
<path d="M139.104 84.2176C139.104 84.2176 139.258 84.3836 139.512 84.3739L141.005 84.3955C141.005 84.3955 141.171 84.4074 141.16 84.4954C141.16 84.4954 141.137 84.6286 140.94 84.5842L139.137 84.5623L138.939 84.5744C138.939 84.5744 138.807 84.5514 139.017 84.2959L139.104 84.2176Z" fill="white"/>
<path d="M139.104 84.2173C139.104 84.2173 139.258 84.3836 139.512 84.3735L141.005 84.3955C141.005 84.3955 141.17 84.4071 141.161 84.4954C141.161 84.4954 141.137 84.629 140.941 84.585L139.137 84.5629L138.939 84.5744C138.939 84.5744 138.807 84.5518 139.017 84.2956L139.104 84.2173Z" stroke="#12110C" stroke-width="0.016"/>
<path d="M143.719 84.0722C143.719 84.0722 143.851 84.3284 143.917 84.3634C143.917 84.3634 144.038 84.5066 144.006 84.2512L144.027 81.0488C144.027 81.0488 143.994 80.9374 144.027 80.7602L143.896 80.5155C143.896 80.5155 143.752 80.4044 143.752 80.5819L143.731 83.9957L143.719 84.0722Z" fill="white"/>
<path d="M143.719 84.0726C143.719 84.0726 143.851 84.3284 143.918 84.3638C143.918 84.3638 144.039 84.5074 144.006 84.2512L144.028 81.0481C144.028 81.0481 143.994 80.9374 144.028 80.7602L143.896 80.5153C143.896 80.5153 143.752 80.4044 143.752 80.5819L143.73 83.996L143.719 84.0726Z" stroke="#12110C" stroke-width="0.016"/>
<path d="M141.28 82.5499C141.28 82.5499 141.291 82.8158 141.258 83.0709C141.24 83.212 141.302 83.8615 141.247 84.1945C141.247 84.1945 141.237 84.306 141.005 84.2065C141.005 84.2065 139.599 84.2392 139.555 84.1945C139.555 84.1945 139.171 84.2065 139.137 84.0058C139.137 84.0058 139.192 82.4828 139.16 82.4261C139.16 82.4261 139.137 81.5926 139.16 81.515C139.16 81.515 139.192 80.7479 139.171 80.6591C139.171 80.6591 139.182 80.4812 139.149 80.3918C139.149 80.3918 139.149 80.2806 139.336 80.3471C139.336 80.3471 139.401 80.4697 139.764 80.4152C139.764 80.4152 140.028 80.4593 140.281 80.4257C140.281 80.4257 140.841 80.3813 140.984 80.4257C140.984 80.4257 141.204 80.3813 141.269 80.6267L141.258 81.3154L141.323 81.5377L141.401 81.4825L141.433 81.3154L141.444 80.5815C141.444 80.5815 141.488 80.4477 141.665 80.4257C141.665 80.4257 141.939 80.3918 141.984 80.4152C142.028 80.4366 142.62 80.4697 142.786 80.4366C142.95 80.4033 142.983 80.5476 143.478 80.2926C143.478 80.2926 143.61 80.3037 143.61 80.3918C143.61 80.3918 143.565 81.3383 143.61 81.515C143.61 81.515 143.61 83.2492 143.576 83.3715L143.598 83.9274C143.598 83.9274 143.62 84.1722 143.236 84.1945C143.236 84.1945 143.478 84.228 141.961 84.1837C141.961 84.1837 141.719 84.1722 141.456 84.2942C141.456 84.2942 141.401 84.2833 141.401 84.139C141.401 84.139 141.444 83.6169 141.401 83.1045L141.38 82.5377L141.28 82.5499Z" fill="white"/>
<path d="M140.291 81.7611C140.291 81.7611 140.324 82.5835 140.291 82.6946L140.281 82.8729C140.281 82.8729 140.324 82.9944 140.39 83.0395C140.39 83.0395 140.446 83.1947 140.313 83.1839C140.313 83.1839 140.039 83.1615 139.973 83.172C139.973 83.172 139.819 83.172 139.973 82.9731C139.973 82.9731 140.028 82.8941 140.017 82.6946C140.017 82.6946 140.017 81.7611 140.039 81.7059C140.039 81.7059 140.061 81.5828 139.984 81.5493L139.851 81.5608L139.687 81.7164C139.687 81.7164 139.654 81.8838 139.577 81.7059V81.6161L139.676 81.3494L139.742 81.3378C139.742 81.3378 139.841 81.4047 139.928 81.4277H140.446L140.632 81.3378C140.632 81.3378 140.709 81.3494 140.688 81.4494C140.688 81.4494 140.72 81.7059 140.577 81.7384C140.577 81.7384 140.489 81.7059 140.446 81.5828C140.446 81.5828 140.303 81.5057 140.291 81.7611" fill="#12110C"/>
<path d="M142.719 81.4609C142.719 81.4609 142.302 81.4273 142.292 81.883C142.292 81.883 142.247 82.1952 142.709 82.3955C142.709 82.3955 143.05 82.5615 143.027 82.7726C143.027 82.7726 142.983 83.1507 142.62 82.9619C142.62 82.9619 142.445 82.8724 142.457 82.7726C142.457 82.7726 142.401 82.6499 142.335 82.6725C142.335 82.6725 142.258 82.6943 142.292 83.0615C142.292 83.0615 142.292 83.2062 142.457 83.0615L142.543 83.0843C142.543 83.0843 142.84 83.3289 143.093 83.028C143.093 83.028 143.368 82.7726 143.17 82.4615C143.17 82.4615 143.027 82.2399 142.775 82.1285C142.775 82.1285 142.533 82.0163 142.478 81.8275C142.478 81.8275 142.555 81.4934 142.851 81.6713C142.851 81.6713 142.961 81.8048 143.027 81.8275C143.027 81.8275 143.115 81.8275 143.093 81.6265L143.072 81.4609C143.072 81.4609 143.05 81.3371 142.895 81.4609C142.895 81.4609 142.752 81.5158 142.719 81.4609" fill="#12110C"/>
<path d="M141.379 81.2267C141.456 81.2834 141.467 81.3942 141.467 81.3942C141.687 81.983 141.874 82.84 141.874 82.84C141.928 82.95 142.027 83.0395 142.027 83.0395C142.214 83.1059 142.027 83.1611 142.027 83.1611C141.95 83.1951 141.698 83.151 141.698 83.151C141.566 83.1272 141.62 83.0839 141.62 83.0839C141.676 83.0283 141.632 82.8053 141.632 82.8053C141.62 82.7173 141.522 82.5723 141.522 82.5723C141.478 82.5498 141.401 82.6499 141.401 82.6499C141.401 82.6499 141.281 82.6946 141.269 82.6499C141.258 82.6047 141.181 82.5626 141.181 82.5626C141.049 82.5626 140.995 82.8941 140.995 82.8941C141.071 83.1723 140.995 83.1272 140.995 83.1272C140.929 83.2171 140.72 83.151 140.72 83.151C140.621 83.1272 140.688 83.0497 140.688 83.0497C140.808 83.0283 140.841 82.8941 140.841 82.8941C140.896 82.8165 141.247 81.3715 141.247 81.3715C141.281 81.3043 141.302 81.1712 141.379 81.2267ZM141.204 81.9603C141.193 82.0162 141.115 82.3276 141.115 82.3276L141.181 82.4398C141.181 82.4398 141.357 82.45 141.423 82.45C141.488 82.45 141.5 82.3954 141.5 82.3387C141.5 82.2836 141.379 81.9502 141.379 81.9502L141.324 81.8834L141.204 81.9603Z" fill="#12110C"/>
<path d="M138.403 78.5346C138.403 78.5346 138.281 78.9246 137.743 78.5234L135.897 78.4786C135.897 78.4786 135.655 78.5573 135.622 78.3012C135.622 78.3012 135.666 77.7902 135.643 77.7455C135.643 77.7455 135.655 77.6004 135.413 77.6004C135.413 77.6004 135.04 77.6458 135.029 77.3121C135.029 77.3121 134.963 76.9552 135.479 76.9675C135.479 76.9675 135.643 77.0451 135.655 76.8337C135.655 76.8337 135.633 75.3885 135.643 75.2767C135.643 75.2767 135.688 75.1447 135.436 75.1219C135.436 75.1219 135.073 75.1991 135.029 74.9545C135.029 74.9545 135.007 74.5883 135.248 74.5655C135.248 74.5655 135.545 74.5883 135.6 74.5114C135.6 74.5114 135.666 74.5543 135.655 74.2873L135.666 73.832C135.666 73.832 135.699 73.7096 135.885 73.7208C135.885 73.7208 136.227 73.7428 136.271 73.7096C136.271 73.7096 136.348 73.6101 136.369 73.5649C136.369 73.5649 136.546 73.5544 136.578 73.5977C136.578 73.5977 136.842 73.7767 137.843 73.7096C137.843 73.7096 137.996 73.7096 138.029 73.7544C138.029 73.7544 138.215 73.8986 138.325 73.7428C138.325 73.7428 138.49 73.7096 138.985 73.7208C138.985 73.7208 139.522 73.8651 139.896 73.5544L140.017 73.5772C140.017 73.5772 140.171 73.832 140.281 73.7544C140.281 73.7544 140.611 73.7208 140.666 73.7879C140.666 73.7879 140.776 73.9546 140.72 74.3887C140.72 74.3887 140.655 74.5774 140.973 74.5774C140.973 74.5774 141.336 74.5114 141.292 74.8545C141.292 74.8545 141.391 75.2439 140.787 75.1886C140.787 75.1886 140.709 75.3001 140.72 75.3777C140.72 75.3777 140.709 76.6446 140.699 76.79C140.699 76.79 140.688 76.9888 140.952 76.9787C140.952 76.9787 141.303 76.9552 141.314 77.279C141.314 77.279 141.358 77.7011 140.853 77.6228C140.853 77.6228 140.699 77.6458 140.676 77.7455L140.655 78.3012C140.655 78.3012 140.666 78.5793 140.357 78.513C140.314 78.513 138.644 78.5458 138.501 78.5022C138.501 78.5022 138.424 78.491 138.403 78.5346Z" fill="#12110C"/>
<path d="M138.403 78.5349C138.403 78.5349 138.281 78.925 137.743 78.5237L135.897 78.479C135.897 78.479 135.655 78.5577 135.622 78.3012C135.622 78.3012 135.666 77.7902 135.643 77.7454C135.643 77.7454 135.655 77.6008 135.413 77.6008C135.413 77.6008 135.04 77.6462 135.029 77.3125C135.029 77.3125 134.963 76.9552 135.479 76.9675C135.479 76.9675 135.643 77.0451 135.655 76.834C135.655 76.834 135.633 75.3882 135.643 75.2767C135.643 75.2767 135.688 75.1442 135.435 75.1218C135.435 75.1218 135.072 75.1992 135.029 74.9541C135.029 74.9541 135.007 74.5878 135.248 74.5655C135.248 74.5655 135.545 74.5878 135.6 74.5107C135.6 74.5107 135.666 74.5543 135.655 74.2872L135.666 73.8315C135.666 73.8315 135.699 73.7093 135.885 73.7208C135.885 73.7208 136.227 73.7425 136.271 73.7093C136.271 73.7093 136.348 73.6101 136.369 73.5649C136.369 73.5649 136.545 73.5541 136.578 73.5977C136.578 73.5977 136.841 73.7764 137.843 73.7093C137.843 73.7093 137.996 73.7093 138.029 73.754C138.029 73.754 138.215 73.8983 138.325 73.7425C138.325 73.7425 138.49 73.7093 138.985 73.7208C138.985 73.7208 139.523 73.8644 139.896 73.5541L140.017 73.5768C140.017 73.5768 140.171 73.8315 140.281 73.754C140.281 73.754 140.611 73.7208 140.667 73.7872C140.667 73.7872 140.776 73.9543 140.72 74.3879C140.72 74.3879 140.655 74.5774 140.973 74.5774C140.973 74.5774 141.336 74.5107 141.292 74.8542C141.292 74.8542 141.391 75.2439 140.787 75.1883C140.787 75.1883 140.709 75.2998 140.72 75.3777C140.72 75.3777 140.709 76.6446 140.699 76.7896C140.699 76.7896 140.688 76.9891 140.952 76.9791C140.952 76.9791 141.303 76.9552 141.314 77.2793C141.314 77.2793 141.358 77.7011 140.853 77.6228C140.853 77.6228 140.699 77.6462 140.677 77.7454L140.655 78.3012C140.655 78.3012 140.667 78.5797 140.358 78.5133C140.314 78.5133 138.644 78.5458 138.501 78.5022C138.501 78.5022 138.424 78.4913 138.403 78.5349Z" stroke="#12110C" stroke-width="0.0133333"/>
<path d="M136.326 73.9546C136.326 73.9546 136.348 74.1765 136.348 74.2321C136.348 74.2877 136.314 77.4453 136.314 77.4453C136.314 77.4453 136.348 77.6906 136.138 77.8122C136.138 77.8122 136.084 77.8349 136.073 77.6794L136.095 74.344C136.095 74.344 136.117 73.9322 136.326 73.9546" fill="white"/>
<path d="M136.326 73.9543C136.326 73.9543 136.348 74.1761 136.348 74.2317C136.348 74.2873 136.315 77.4452 136.315 77.4452C136.315 77.4452 136.348 77.6906 136.138 77.8129C136.138 77.8129 136.084 77.8353 136.072 77.6798L136.094 74.3439C136.094 74.3439 136.116 73.9322 136.326 73.9543V73.9543Z" stroke="#12110C" stroke-width="0.016"/>
<path d="M135.963 77.8454C135.963 77.8454 135.984 74.7102 135.974 74.6542C135.963 74.5994 135.984 74.6994 135.984 74.6994C135.984 74.6994 135.952 74.1552 136.095 73.9323C136.095 73.9323 136.051 73.7431 135.798 73.9762L135.788 74.4324C135.788 74.4324 135.788 74.6882 135.556 74.677C135.556 74.677 135.293 74.6654 135.171 74.7885C135.171 74.7885 135.106 75.0327 135.358 74.9888C135.358 74.9888 135.754 74.9888 135.776 75.1543L135.754 76.8337C135.754 76.8337 135.842 77.1115 135.534 77.1115C135.534 77.1115 135.161 77.0902 135.171 77.3237C135.171 77.3237 135.248 77.5239 135.568 77.4568C135.568 77.4568 135.798 77.5015 135.788 77.7228V78.1464C135.788 78.1464 135.765 78.3134 135.984 78.3235H137.699C137.699 78.3235 137.787 78.3347 137.787 78.2232C137.787 78.2232 137.776 78.1355 137.644 78.1355L136.217 78.1124C136.217 78.1124 135.984 78.1904 135.963 77.8454Z" fill="white"/>
<path d="M136.26 77.8682C136.26 77.8682 136.216 78.0244 136.38 77.9901H137.512L137.82 78.0565C137.82 78.0565 138.139 77.9789 137.82 77.8006C137.82 77.8006 136.809 77.8126 136.721 77.7902C136.721 77.7902 136.513 77.7347 136.468 77.7234C136.468 77.7234 136.358 77.6794 136.26 77.8682Z" fill="white"/>
<path d="M136.259 77.8678C136.259 77.8678 136.216 78.0247 136.38 77.9897H137.512L137.82 78.0568C137.82 78.0568 138.14 77.9793 137.82 77.8007C137.82 77.8007 136.809 77.8125 136.721 77.7895C136.721 77.7895 136.512 77.7343 136.468 77.7235C136.468 77.7235 136.358 77.6791 136.259 77.8678Z" stroke="#12110C" stroke-width="0.016"/>
<path d="M138.139 78.0244C138.139 78.0244 137.93 78.0244 137.941 78.3008C137.941 78.3008 137.963 78.5133 138.182 78.5133C138.182 78.5133 138.38 78.4787 138.359 78.2575C138.359 78.2575 138.237 77.9789 138.139 78.0244" fill="white"/>
<path d="M138.292 77.9122C138.292 77.9122 138.391 77.801 138.457 77.801C138.457 77.801 139.556 77.9014 139.743 77.7682C139.743 77.7682 139.908 77.735 139.951 77.7682C139.951 77.7682 140.116 77.9014 140.116 77.9789C140.116 77.9789 140.105 78.08 139.908 78.0244C139.908 78.0244 138.665 78.0348 138.6 78.0348C138.6 78.0348 138.259 78.1124 138.292 77.9122" fill="white"/>
<path d="M138.292 77.9122C138.292 77.9122 138.391 77.8007 138.457 77.8007C138.457 77.8007 139.556 77.9014 139.743 77.7682C139.743 77.7682 139.908 77.7346 139.952 77.7682C139.952 77.7682 140.116 77.9014 140.116 77.9793C140.116 77.9793 140.106 78.0804 139.908 78.0244C139.908 78.0244 138.666 78.0352 138.6 78.0352C138.6 78.0352 138.259 78.1128 138.292 77.9122V77.9122Z" stroke="#12110C" stroke-width="0.016"/>
<path d="M138.468 78.2459C138.468 78.2459 138.468 78.1575 138.621 78.1575L140.161 78.146C140.161 78.146 140.303 78.2228 140.303 77.9569C140.303 77.9569 140.359 76.7445 140.364 75.4102C140.366 75.0133 140.383 74.5966 140.369 74.2104C140.369 74.2104 140.336 74.0441 140.292 74.0098C140.292 74.0098 140.292 73.8319 140.479 73.8994C140.479 73.8994 140.643 73.9099 140.6 74.1653L140.61 74.5546C140.61 74.5546 140.577 74.7214 140.874 74.677C140.874 74.677 141.171 74.7214 141.181 74.8325C141.181 74.8325 141.27 75.0555 140.919 75.0327H140.666C140.666 75.0327 140.556 75.0992 140.589 75.2331L140.556 76.8448C140.556 76.8448 140.533 77.1227 140.798 77.1125C140.798 77.1125 141.072 77.101 141.127 77.1898C141.127 77.1898 141.314 77.468 140.907 77.4457C140.907 77.4457 140.654 77.4341 140.6 77.4784C140.6 77.4784 140.556 77.5351 140.523 78.0569C140.523 78.0569 140.545 78.3683 140.314 78.3347C140.314 78.3347 138.787 78.3563 138.644 78.3235C138.644 78.3235 138.49 78.3683 138.468 78.2459" fill="white"/>
<path d="M136.49 73.8536L136.458 77.4228C136.458 77.4228 136.447 77.5885 136.721 77.622C136.721 77.622 137.04 77.6556 137.117 77.622C137.117 77.622 137.325 77.6112 137.864 77.6336C137.864 77.6336 137.996 77.7663 138.006 77.6004C138.006 77.6004 138.094 74.7091 138.051 74.1091C138.051 74.1091 138.04 73.8536 137.852 73.8424C137.852 73.8424 137.018 73.9088 136.941 73.8424L136.612 73.7532C136.612 73.7532 136.479 73.7638 136.49 73.8536Z" fill="white"/>
<path d="M139.973 73.9871L139.962 77.5008C139.962 77.5008 140.05 77.813 140.194 77.7797C140.194 77.7797 140.215 77.7126 140.226 77.6008L140.271 74.2538C140.271 74.2538 140.161 73.72 139.973 73.9871Z" fill="white" stroke="#12110C" stroke-width="0.016"/>
<path d="M139.973 73.9871L139.962 77.5008C139.962 77.5008 140.05 77.813 140.194 77.7797C140.194 77.7797 140.215 77.7126 140.226 77.6008L140.271 74.2538C140.271 74.2538 140.161 73.72 139.973 73.9871Z" stroke="#12110C" stroke-width="0.016"/>
<path d="M138.227 74.017C138.227 74.017 138.194 75.6956 138.204 75.7519L138.184 77.1642L138.139 77.652C138.139 77.652 138.204 77.7534 138.26 77.6863C138.26 77.6863 138.612 77.5978 138.831 77.6308C138.831 77.6308 139.535 77.6979 139.677 77.5863C139.677 77.5863 139.787 77.6416 139.82 77.4636C139.82 77.4636 139.864 74.3511 139.842 74.2952C139.842 74.2952 139.886 73.8511 139.864 73.8071C139.864 73.8071 139.852 73.706 139.667 73.7944C139.667 73.7944 139.688 73.8842 138.645 73.8511C138.645 73.8511 138.249 73.8395 138.227 74.017" fill="white"/>
<path d="M137.888 75.0454L137.788 75.2576C137.788 75.2576 137.547 76.3354 137.416 76.5573C137.416 76.5573 137.394 76.7803 137.207 76.602C137.207 76.602 136.778 75.2349 136.756 75.1902L136.613 75.0901C136.613 75.0901 136.526 74.9679 136.679 74.957L137.086 74.9679C137.086 74.9679 137.218 75.0786 137.042 75.2023C137.042 75.2023 137.064 75.3799 137.295 76.0572C137.295 76.0572 137.36 76.313 137.437 76.1239L137.657 75.3344L137.591 75.101C137.591 75.101 137.525 74.9898 137.624 74.979C137.624 74.979 137.855 74.957 137.888 75.0454" fill="#12110C"/>
<path d="M138.526 75.2236L138.514 76.4021L138.482 76.4909C138.482 76.4909 138.372 76.6349 138.448 76.6464C138.448 76.6464 138.35 76.7135 139.151 76.7243C139.151 76.7243 139.459 76.7796 139.382 76.3794C139.382 76.3794 139.349 76.235 139.239 76.4465C139.239 76.4465 139.206 76.6236 138.811 76.5685C138.811 76.5685 138.723 76.4909 138.723 76.4021V75.9125C138.723 75.9125 138.711 75.7898 138.899 75.8024C138.899 75.8024 139.107 75.9352 139.14 75.8789C139.14 75.8789 139.217 75.7017 139.14 75.5903C139.14 75.5903 139.041 75.5798 139.031 75.6242C139.031 75.6242 138.965 75.7569 138.778 75.679C138.778 75.679 138.69 75.5015 138.745 75.3568C138.745 75.3568 138.723 75.0787 138.91 75.1013C138.91 75.1013 139.13 75.1453 139.151 75.2128C139.151 75.2128 139.206 75.3467 139.262 75.1909L139.206 75.001C139.206 75.001 139.174 74.923 139.119 74.9454C139.119 74.9454 138.745 75.001 138.7 74.9559L138.404 74.9898C138.404 74.9898 138.36 75.1013 138.492 75.1562C138.492 75.1562 138.526 75.1789 138.526 75.2236Z" fill="#12110C"/>
<defs>
<filter id="filter0_bd_4_184" x="0.223881" y="-4.85075" width="248.552" height="191.194" filterUnits="userSpaceOnUse" color-interpolation-filters="sRGB">
<feFlood flood-opacity="0" result="BackgroundImageFix"/>
<feGaussianBlur in="BackgroundImage" stdDeviation="10.9254"/>
<feComposite in2="SourceAlpha" operator="in" result="effect1_backgroundBlur_4_184"/>
<feColorMatrix in="SourceAlpha" type="matrix" values="0 0 0 0 0 0 0 0 0 0 0 0 0 0 0 0 0 0 127 0" result="hardAlpha"/>
<feOffset dy="16.3881"/>
<feGaussianBlur stdDeviation="16.3881"/>
<feColorMatrix type="matrix" values="0 0 0 0 0.387689 0 0 0 0 0.116111 0 0 0 0 0.733333 0 0 0 0.5 0"/>
<feBlend mode="normal" in2="effect1_backgroundBlur_4_184" result="effect2_dropShadow_4_184"/>
<feBlend mode="normal" in="SourceGraphic" in2="effect2_dropShadow_4_184" result="shape"/>
</filter>
<filter id="filter1_d_4_184" x="157.013" y="13.9381" width="68.0104" height="68.0105" filterUnits="userSpaceOnUse" color-interpolation-filters="sRGB">
<feFlood flood-opacity="0" result="BackgroundImageFix"/>
<feColorMatrix in="SourceAlpha" type="matrix" values="0 0 0 0 0 0 0 0 0 0 0 0 0 0 0 0 0 0 127 0" result="hardAlpha"/>
<feOffset dy="10.9254"/>
<feGaussianBlur stdDeviation="10.9254"/>
<feColorMatrix type="matrix" values="0 0 0 0 0 0 0 0 0 0 0 0 0 0 0 0 0 0 0.3 0"/>
<feBlend mode="normal" in2="BackgroundImageFix" result="effect1_dropShadow_4_184"/>
<feBlend mode="normal" in="SourceGraphic" in2="effect1_dropShadow_4_184" result="shape"/>
</filter>
<filter id="filter2_ii_4_184" x="178.863" y="24.8634" width="24.309" height="24.309" filterUnits="userSpaceOnUse" color-interpolation-filters="sRGB">
<feFlood flood-opacity="0" result="BackgroundImageFix"/>
<feBlend mode="normal" in="SourceGraphic" in2="BackgroundImageFix" result="shape"/>
<feColorMatrix in="SourceAlpha" type="matrix" values="0 0 0 0 0 0 0 0 0 0 0 0 0 0 0 0 0 0 127 0" result="hardAlpha"/>
<feOffset dx="-0.546269" dy="-0.546269"/>
<feComposite in2="hardAlpha" operator="arithmetic" k2="-1" k3="1"/>
<feColorMatrix type="matrix" values="0 0 0 0 1 0 0 0 0 1 0 0 0 0 1 0 0 0 0.25 0"/>
<feBlend mode="normal" in2="shape" result="effect1_innerShadow_4_184"/>
<feColorMatrix in="SourceAlpha" type="matrix" values="0 0 0 0 0 0 0 0 0 0 0 0 0 0 0 0 0 0 127 0" result="hardAlpha"/>
<feOffset dx="0.546269" dy="0.546269"/>
<feComposite in2="hardAlpha" operator="arithmetic" k2="-1" k3="1"/>
<feColorMatrix type="matrix" values="0 0 0 0 1 0 0 0 0 1 0 0 0 0 1 0 0 0 0.25 0"/>
<feBlend mode="normal" in2="effect1_innerShadow_4_184" result="effect2_innerShadow_4_184"/>
</filter>
<clipPath id="clip0_4_184">
<rect width="58.997" height="92.8657" fill="white" transform="translate(43.9226 27.9234)"/>
</clipPath>
<clipPath id="clip1_4_184">
<rect width="58.997" height="39.3313" fill="white" transform="translate(43.9226 81.4577)"/>
</clipPath>
<clipPath id="clip2_4_184">
<rect width="45.3403" height="19.6657" fill="white" transform="translate(43.9226 101.123)"/>
</clipPath>
<clipPath id="clip3_4_184">
<rect width="37.1463" height="17.4806" fill="white" transform="translate(157.002 103.308)"/>
</clipPath>
<clipPath id="clip4_4_184">
<rect width="28.9522" height="4.37015" fill="white" transform="translate(157.002 116.419)"/>
</clipPath>
</defs>
</svg>
