<svg width="249" height="121" viewBox="0 0 249 121" fill="none" xmlns="http://www.w3.org/2000/svg">
<g filter="url(#filter0_bd_1338_21863)">
<rect x="33.1385" y="0.136506" width="182.727" height="119.906" rx="16.2515" stroke="white" stroke-opacity="0.3" stroke-width="0.273134"/>
</g>
<g filter="url(#filter1_d_1338_21863)">
<g filter="url(#filter2_ii_1338_21863)">
<path fill-rule="evenodd" clip-rule="evenodd" d="M191.02 32.0358C197.657 32.0358 203.038 26.6552 203.038 20.0178C203.038 13.3805 197.657 7.99994 191.02 7.99994C184.383 7.99994 179.002 13.3805 179.002 20.0178C179.002 26.6552 184.383 32.0358 191.02 32.0358Z" fill="url(#paint0_linear_1338_21863)"/>
</g>
<path fill-rule="evenodd" clip-rule="evenodd" d="M191.02 32.0358C197.657 32.0358 203.038 26.6552 203.038 20.0178C203.038 13.3805 197.657 7.99994 191.02 7.99994C184.383 7.99994 179.002 13.3805 179.002 20.0178C179.002 26.6552 184.383 32.0358 191.02 32.0358Z" stroke="black" stroke-opacity="0.3" stroke-width="0.273134"/>
<path d="M194.727 19.4336L190.436 23.725L192.193 25.4825L196.484 21.1911L194.727 19.4336Z" fill="#3913B8"/>
<path fill-rule="evenodd" clip-rule="evenodd" d="M185.666 15.1297L189.454 18.9177C189.446 18.9577 189.441 18.9991 189.441 19.0416C189.441 19.3735 189.71 19.6425 190.042 19.6425C190.374 19.6425 190.643 19.3735 190.643 19.0416C190.643 18.7098 190.374 18.4407 190.042 18.4407C189.999 18.4407 189.957 18.4452 189.917 18.4537L186.128 14.6648L192.774 15.9225H192.779L193.948 20.2162L191.217 22.9475L186.923 21.773L185.666 15.1297Z" fill="white"/>
</g>
<g clip-path="url(#clip0_1338_21863)">
<path d="M48.9581 14.2742H49.8032V18.8339C49.8032 19.552 49.5401 20.1092 49.0138 20.5054C48.5619 20.8521 47.9707 21.0255 47.2401 21.0255C46.3981 21.0255 45.7481 20.8057 45.2899 20.3661C44.8937 19.9761 44.6956 19.4653 44.6956 18.8339V14.2742H45.5407V18.8339C45.5407 19.292 45.6893 19.648 45.9864 19.9018C46.2836 20.1495 46.7015 20.2733 47.2401 20.2733C47.8097 20.2733 48.2492 20.1309 48.5588 19.8461C48.825 19.5923 48.9581 19.2549 48.9581 18.8339V14.2742ZM52.2826 14.2742V20.9233H51.4189V14.2742H52.2826ZM55.561 20.9233V14.2742H58.1241C59.0218 14.2742 59.7121 14.6085 60.195 15.2771C60.616 15.8653 60.8265 16.6391 60.8265 17.5987C60.8265 18.7008 60.5541 19.5489 60.0093 20.1433C59.5326 20.6633 58.9042 20.9233 58.1241 20.9233H55.561ZM56.4061 20.1711H57.9755C59.3128 20.1711 59.9814 19.3137 59.9814 17.5987C59.9814 15.8838 59.3128 15.0264 57.9755 15.0264H56.4061V20.1711ZM62.9994 17.8959V20.1711H66.9183V20.9233H62.1543V14.2742H66.7605V15.0264H62.9994V17.1437H66.6212V17.8959H62.9994ZM72.855 16.1872H72.0564C72.0378 15.3204 71.4837 14.8871 70.3941 14.8871C69.9483 14.8871 69.5892 14.9892 69.3168 15.1935C69.0444 15.3916 68.9082 15.6548 68.9082 15.9829C68.9082 16.2305 68.9887 16.4286 69.1497 16.5772C69.3168 16.7196 69.6016 16.8434 70.004 16.9487L71.5827 17.3573C72.5857 17.6235 73.0872 18.1807 73.0872 19.0289C73.0872 19.6418 72.8426 20.1402 72.3535 20.524C71.9202 20.8583 71.298 21.0255 70.4869 21.0255C69.4592 21.0255 68.7132 20.7159 68.2489 20.0968C68.0012 19.7625 67.8712 19.3137 67.8588 18.7503H68.6575V18.7689C68.6575 19.2518 68.8215 19.6263 69.1497 19.8925C69.484 20.1526 69.9483 20.2826 70.5426 20.2826C71.0875 20.2826 71.493 20.1928 71.7592 20.0133C72.0749 19.7966 72.2328 19.4932 72.2328 19.1032C72.2328 18.6079 71.8273 18.2581 71.0163 18.0538L69.3633 17.6266C68.4965 17.4037 68.0631 16.893 68.0631 16.0943C68.0631 15.4628 68.3015 14.9737 68.7782 14.627C69.193 14.3237 69.7409 14.172 70.4219 14.172C71.3877 14.172 72.078 14.4537 72.4928 15.0171C72.7343 15.3452 72.855 15.7012 72.855 16.085C72.855 16.1036 72.855 16.1377 72.855 16.1872ZM75.2813 14.2742V20.9233H74.4177V14.2742H75.2813ZM82.5103 17.4223V20.9233H81.9717L81.7581 19.9854C81.1267 20.6788 80.3713 21.0255 79.4922 21.0255C78.5264 21.0255 77.7587 20.6695 77.1891 19.9575C76.6939 19.3322 76.4462 18.5522 76.4462 17.6173C76.4462 16.3977 76.8455 15.4597 77.6442 14.8035C78.1642 14.3825 78.8298 14.172 79.6408 14.172C80.6004 14.172 81.3371 14.463 81.851 15.0449C82.1296 15.3607 82.3184 15.7693 82.4175 16.2708H81.5538C81.461 15.8498 81.2443 15.5217 80.9038 15.2864C80.5633 15.0449 80.1361 14.9242 79.6222 14.9242C78.8731 14.9242 78.2819 15.1966 77.8485 15.7414C77.477 16.2181 77.2913 16.828 77.2913 17.5709C77.2913 18.4376 77.5266 19.1217 77.9971 19.6232C78.4057 20.0566 78.966 20.2733 79.6779 20.2733C80.3218 20.2733 80.8419 20.0628 81.2381 19.6418C81.5848 19.2703 81.7581 18.8184 81.7581 18.286V18.1745H79.7337V17.4223H82.5103ZM89.0265 14.2742V20.9233H88.0792L84.6339 15.5278V20.9233H83.8353V14.2742H84.7547L88.2278 19.7068V14.2742H89.0265Z" fill="white"/>
<path d="M48.5408 29.6894H47.8732C47.8022 29.3486 47.6791 29.1 47.504 28.9438C47.2767 28.7355 46.9453 28.6313 46.5097 28.6313C45.9795 28.6313 45.57 28.8396 45.2812 29.2562C45.0303 29.6208 44.9048 30.0989 44.9048 30.6907C44.9048 31.3583 45.0729 31.8767 45.409 32.246C45.7073 32.5632 46.0908 32.7218 46.5595 32.7218C47.1323 32.7218 47.5276 32.5111 47.7454 32.0897C47.8448 31.8956 47.9229 31.6376 47.9798 31.3157H48.6473C48.4911 32.6365 47.7975 33.297 46.5666 33.297C45.9038 33.297 45.3806 33.1029 44.9971 32.7147C44.5048 32.2176 44.2586 31.55 44.2586 30.712C44.2586 29.8977 44.4953 29.2278 44.9687 28.7023C45.3569 28.2715 45.8919 28.0561 46.5737 28.0561C47.6815 28.0561 48.3372 28.6005 48.5408 29.6894ZM52.5317 31.5642H49.8402C49.845 31.8767 49.9113 32.1252 50.0391 32.3099C50.2427 32.6081 50.5362 32.7573 50.9197 32.7573C51.3931 32.7573 51.7127 32.5324 51.8784 32.0826H52.4607C52.3849 32.4661 52.2098 32.7644 51.9352 32.9774C51.6606 33.1905 51.315 33.297 50.8984 33.297C50.3444 33.297 49.9207 33.1076 49.6272 32.7289C49.3668 32.3975 49.2366 31.9595 49.2366 31.4151C49.2366 30.7854 49.407 30.2954 49.7479 29.9451C50.0462 29.6421 50.432 29.4906 50.9055 29.4906C51.2511 29.4906 51.5541 29.5734 51.8145 29.7391C52.0796 29.9048 52.2689 30.1321 52.3826 30.4209C52.482 30.6671 52.5317 31.0411 52.5317 31.5429V31.5642ZM51.9068 31.0884C51.9068 30.7712 51.8121 30.5156 51.6227 30.3215C51.4381 30.1226 51.199 30.0232 50.9055 30.0232C50.6072 30.0232 50.3634 30.1203 50.174 30.3144C49.9894 30.5037 49.8852 30.7618 49.8615 31.0884H51.9068ZM53.3192 29.5687H53.859V30.2362C54.072 29.7344 54.4081 29.4835 54.8674 29.4835C54.9242 29.4835 54.9928 29.4906 55.0733 29.5048V30.1013C54.6946 30.1061 54.4342 30.1605 54.2922 30.2647C54.0318 30.454 53.9016 30.8067 53.9016 31.3228V33.2189H53.3192V29.5687ZM57.077 29.5687V30.0374H56.3313V32.4661C56.3313 32.5513 56.3597 32.6247 56.4166 32.6863C56.4781 32.7431 56.5562 32.7715 56.6509 32.7715C56.7409 32.7715 56.8782 32.7502 57.0628 32.7076L57.1267 33.2189C56.8332 33.2709 56.6107 33.297 56.4592 33.297C55.9905 33.297 55.7561 33.1052 55.7561 32.7218V30.0374H55.259V29.5687H55.7561V28.823L56.3313 28.5603V29.5687H57.077ZM58.3047 29.5687V33.2189H57.7294V29.5687H58.3047ZM58.0277 28.1413C58.1271 28.1413 58.21 28.1768 58.2763 28.2478C58.3473 28.3141 58.3828 28.3946 58.3828 28.4893C58.3828 28.5887 58.3473 28.6739 58.2763 28.7449C58.21 28.8112 58.1271 28.8444 58.0277 28.8444C57.933 28.8444 57.8502 28.8112 57.7792 28.7449C57.7129 28.6739 57.6797 28.5887 57.6797 28.4893C57.6797 28.3946 57.7129 28.3141 57.7792 28.2478C57.8502 28.1768 57.933 28.1413 58.0277 28.1413ZM60.611 29.5687V30.0374H60.0074V33.2189H59.4322V30.0374H58.9422V29.5687H59.4322V28.9438C59.4322 28.6834 59.5056 28.4798 59.6523 28.333C59.8038 28.1863 60.0145 28.1129 60.2844 28.1129C60.3885 28.1129 60.4974 28.1247 60.611 28.1484V28.6313H60.5471C60.495 28.6266 60.4501 28.6242 60.4122 28.6242C60.1423 28.6242 60.0074 28.7473 60.0074 28.9935V29.5687H60.611ZM61.793 29.5687V33.2189H61.2178V29.5687H61.793ZM61.516 28.1413C61.6155 28.1413 61.6983 28.1768 61.7646 28.2478C61.8356 28.3141 61.8711 28.3946 61.8711 28.4893C61.8711 28.5887 61.8356 28.6739 61.7646 28.7449C61.6983 28.8112 61.6155 28.8444 61.516 28.8444C61.4213 28.8444 61.3385 28.8112 61.2675 28.7449C61.2012 28.6739 61.1681 28.5887 61.1681 28.4893C61.1681 28.3946 61.2012 28.3141 61.2675 28.2478C61.3385 28.1768 61.4213 28.1413 61.516 28.1413ZM65.5836 30.7902H65.0013C64.9302 30.2789 64.6415 30.0232 64.1349 30.0232C63.8177 30.0232 63.5691 30.1487 63.3892 30.3996C63.2093 30.6505 63.1194 30.9985 63.1194 31.4435C63.1194 31.8838 63.2259 32.2199 63.4389 32.4519C63.6188 32.6555 63.8603 32.7573 64.1633 32.7573C64.6509 32.7573 64.9421 32.4922 65.0368 31.9619H65.6262C65.5883 32.4164 65.425 32.7596 65.1362 32.9916C64.8853 33.1952 64.5562 33.297 64.1491 33.297C63.6141 33.297 63.1975 33.1076 62.8992 32.7289C62.6436 32.4022 62.5157 31.9737 62.5157 31.4435C62.5157 30.8091 62.6838 30.312 63.0199 29.9522C63.3087 29.6445 63.6827 29.4906 64.142 29.4906C64.6722 29.4906 65.0699 29.6681 65.335 30.0232C65.4723 30.2078 65.5552 30.4635 65.5836 30.7902ZM69.5193 32.7289V33.1976C69.3583 33.2544 69.2329 33.2828 69.1429 33.2828C68.7642 33.2828 68.5582 33.11 68.5251 32.7644C68.2647 33.1195 67.8505 33.297 67.2823 33.297C66.8894 33.297 66.584 33.1881 66.3662 32.9703C66.1769 32.7809 66.0822 32.5371 66.0822 32.2389C66.0822 31.898 66.2029 31.6352 66.4444 31.4506C66.5817 31.3464 66.8681 31.2447 67.3036 31.1452L68.4967 30.8754L68.5038 30.57C68.5038 30.2055 68.2292 30.0232 67.68 30.0232C67.1545 30.0232 66.8728 30.2362 66.8349 30.6623H66.2455C66.2597 30.3404 66.3402 30.0942 66.487 29.9238C66.7379 29.635 67.145 29.4906 67.7084 29.4906C68.6222 29.4906 69.079 29.822 69.079 30.4848V32.5229C69.079 32.7028 69.1571 32.7928 69.3134 32.7928C69.3323 32.7928 69.382 32.7786 69.4625 32.7502C69.4909 32.7407 69.5098 32.7336 69.5193 32.7289ZM68.5038 31.3512L67.5664 31.5926C67.2303 31.6778 66.9983 31.7654 66.8705 31.8554C66.7474 31.9453 66.6858 32.0708 66.6858 32.2318C66.6858 32.6058 66.9273 32.7928 67.4102 32.7928C67.751 32.7928 68.0398 32.6815 68.2765 32.459C68.428 32.3217 68.5038 32.1655 68.5038 31.9903V31.3512ZM71.5851 29.5687V30.0374H70.8395V32.4661C70.8395 32.5513 70.8679 32.6247 70.9247 32.6863C70.9862 32.7431 71.0643 32.7715 71.159 32.7715C71.249 32.7715 71.3863 32.7502 71.5709 32.7076L71.6348 33.2189C71.3413 33.2709 71.1188 33.297 70.9673 33.297C70.4986 33.297 70.2642 33.1052 70.2642 32.7218V30.0374H69.7671V29.5687H70.2642V28.823L70.8395 28.5603V29.5687H71.5851ZM75.348 31.5642H72.6566C72.6613 31.8767 72.7276 32.1252 72.8554 32.3099C73.059 32.6081 73.3525 32.7573 73.736 32.7573C74.2094 32.7573 74.529 32.5324 74.6947 32.0826H75.277C75.2013 32.4661 75.0261 32.7644 74.7515 32.9774C74.4769 33.1905 74.1313 33.297 73.7147 33.297C73.1608 33.297 72.737 33.1076 72.4435 32.7289C72.1831 32.3975 72.0529 31.9595 72.0529 31.4151C72.0529 30.7854 72.2234 30.2954 72.5642 29.9451C72.8625 29.6421 73.2484 29.4906 73.7218 29.4906C74.0674 29.4906 74.3704 29.5734 74.6308 29.7391C74.8959 29.9048 75.0853 30.1321 75.1989 30.4209C75.2983 30.6671 75.348 31.0411 75.348 31.5429V31.5642ZM74.7231 31.0884C74.7231 30.7712 74.6284 30.5156 74.439 30.3215C74.2544 30.1226 74.0153 30.0232 73.7218 30.0232C73.4235 30.0232 73.1797 30.1203 72.9903 30.3144C72.8057 30.5037 72.7015 30.7618 72.6779 31.0884H74.7231Z" fill="white" fill-opacity="0.6"/>
<g clip-path="url(#clip1_1338_21863)">
<rect x="43.9248" y="64.4577" width="58.997" height="2.18507" rx="1.09254" fill="white" fill-opacity="0.3"/>
<rect x="43.9248" y="71.0129" width="31.6836" height="2.18507" rx="1.09254" fill="white" fill-opacity="0.3"/>
<rect x="43.9248" y="77.5681" width="42.609" height="2.18507" rx="1.09254" fill="white" fill-opacity="0.3"/>
<g clip-path="url(#clip2_1338_21863)">
<rect x="43.9248" y="84.1234" width="31.6836" height="2.18507" rx="1.09254" fill="white" fill-opacity="0.3"/>
<rect x="43.9248" y="99.4189" width="45.3403" height="4.37015" rx="2.18507" fill="white" fill-opacity="0.6"/>
</g>
</g>
</g>
<g clip-path="url(#clip3_1338_21863)">
<rect x="157.004" y="86.3084" width="37.1463" height="2.18507" rx="1.09254" fill="white" fill-opacity="0.3"/>
<rect x="157.004" y="92.8636" width="20.7582" height="2.18507" rx="1.09254" fill="white" fill-opacity="0.3"/>
<g clip-path="url(#clip4_1338_21863)">
<rect x="157.004" y="99.4188" width="28.9522" height="4.37015" rx="2.18507" fill="white" fill-opacity="0.6"/>
</g>
</g>
<defs>
<filter id="filter0_bd_1338_21863" x="0.225834" y="-21.8508" width="248.552" height="191.194" filterUnits="userSpaceOnUse" color-interpolation-filters="sRGB">
<feFlood flood-opacity="0" result="BackgroundImageFix"/>
<feGaussianBlur in="BackgroundImage" stdDeviation="10.9254"/>
<feComposite in2="SourceAlpha" operator="in" result="effect1_backgroundBlur_1338_21863"/>
<feColorMatrix in="SourceAlpha" type="matrix" values="0 0 0 0 0 0 0 0 0 0 0 0 0 0 0 0 0 0 127 0" result="hardAlpha"/>
<feOffset dy="16.3881"/>
<feGaussianBlur stdDeviation="16.3881"/>
<feColorMatrix type="matrix" values="0 0 0 0 0.387689 0 0 0 0 0.116111 0 0 0 0 0.733333 0 0 0 0.5 0"/>
<feBlend mode="normal" in2="effect1_backgroundBlur_1338_21863" result="effect2_dropShadow_1338_21863"/>
<feBlend mode="normal" in="SourceGraphic" in2="effect2_dropShadow_1338_21863" result="shape"/>
</filter>
<filter id="filter1_d_1338_21863" x="157.014" y="-3.062" width="68.0111" height="68.0105" filterUnits="userSpaceOnUse" color-interpolation-filters="sRGB">
<feFlood flood-opacity="0" result="BackgroundImageFix"/>
<feColorMatrix in="SourceAlpha" type="matrix" values="0 0 0 0 0 0 0 0 0 0 0 0 0 0 0 0 0 0 127 0" result="hardAlpha"/>
<feOffset dy="10.9254"/>
<feGaussianBlur stdDeviation="10.9254"/>
<feColorMatrix type="matrix" values="0 0 0 0 0 0 0 0 0 0 0 0 0 0 0 0 0 0 0.3 0"/>
<feBlend mode="normal" in2="BackgroundImageFix" result="effect1_dropShadow_1338_21863"/>
<feBlend mode="normal" in="SourceGraphic" in2="effect1_dropShadow_1338_21863" result="shape"/>
</filter>
<filter id="filter2_ii_1338_21863" x="178.865" y="7.86337" width="24.3096" height="24.309" filterUnits="userSpaceOnUse" color-interpolation-filters="sRGB">
<feFlood flood-opacity="0" result="BackgroundImageFix"/>
<feBlend mode="normal" in="SourceGraphic" in2="BackgroundImageFix" result="shape"/>
<feColorMatrix in="SourceAlpha" type="matrix" values="0 0 0 0 0 0 0 0 0 0 0 0 0 0 0 0 0 0 127 0" result="hardAlpha"/>
<feOffset dx="-0.546269" dy="-0.546269"/>
<feComposite in2="hardAlpha" operator="arithmetic" k2="-1" k3="1"/>
<feColorMatrix type="matrix" values="0 0 0 0 1 0 0 0 0 1 0 0 0 0 1 0 0 0 0.25 0"/>
<feBlend mode="normal" in2="shape" result="effect1_innerShadow_1338_21863"/>
<feColorMatrix in="SourceAlpha" type="matrix" values="0 0 0 0 0 0 0 0 0 0 0 0 0 0 0 0 0 0 127 0" result="hardAlpha"/>
<feOffset dx="0.546269" dy="0.546269"/>
<feComposite in2="hardAlpha" operator="arithmetic" k2="-1" k3="1"/>
<feColorMatrix type="matrix" values="0 0 0 0 1 0 0 0 0 1 0 0 0 0 1 0 0 0 0.25 0"/>
<feBlend mode="normal" in2="effect1_innerShadow_1338_21863" result="effect2_innerShadow_1338_21863"/>
</filter>
<linearGradient id="paint0_linear_1338_21863" x1="191.02" y1="7.99994" x2="191.02" y2="32.0358" gradientUnits="userSpaceOnUse">
<stop stop-color="#FD364B"/>
<stop offset="1" stop-color="#E70B50"/>
</linearGradient>
<clipPath id="clip0_1338_21863">
<rect width="58.997" height="92.8657" fill="white" transform="translate(43.9248 10.9233)"/>
</clipPath>
<clipPath id="clip1_1338_21863">
<rect width="58.997" height="39.3313" fill="white" transform="translate(43.9248 64.4577)"/>
</clipPath>
<clipPath id="clip2_1338_21863">
<rect width="45.3403" height="19.6657" fill="white" transform="translate(43.9248 84.1234)"/>
</clipPath>
<clipPath id="clip3_1338_21863">
<rect width="37.1463" height="17.4806" fill="white" transform="translate(157.004 86.3084)"/>
</clipPath>
<clipPath id="clip4_1338_21863">
<rect width="28.9522" height="4.37015" fill="white" transform="translate(157.004 99.4188)"/>
</clipPath>
</defs>
</svg>
